<?xml version="1.0" encoding="utf-8"?>
<!-- Generator: Adobe Illustrator 21.1.0, SVG Export Plug-In . SVG Version: 6.00 Build 0)  -->
<!DOCTYPE svg PUBLIC "-//W3C//DTD SVG 1.1//EN" "http://www.w3.org/Graphics/SVG/1.1/DTD/svg11.dtd">
<svg version="1.1" id="Calque_1" xmlns="http://www.w3.org/2000/svg" xmlns:xlink="http://www.w3.org/1999/xlink" x="0px" y="0px"
	 viewBox="0 0 512 640" style="enable-background:new 0 0 512 640;" xml:space="preserve">
<g>
	<g>
		<path d="M251.4,188c-0.1-0.3-0.2-0.5-0.3-0.8c0-0.1,0-0.1,0-0.2c-0.1-0.3-0.1-0.7-0.1-1V91.1c-50.1,2.6-90,44.2-90,94.9
			c0,52.4,42.6,95,95,95c12,0,23.4-2.2,34-6.3L251.4,188C251.4,188,251.4,188,251.4,188z"/>
		<path d="M299.1,270.6c29.4-15,50-44.9,51.8-79.6h-87.2L299.1,270.6z"/>
		<path d="M261,91.1V181h89.9C348.3,132.6,309.4,93.7,261,91.1z"/>
		<path d="M486,341h-45V31h45c2.8,0,5-2.2,5-5s-2.2-5-5-5h-50H76H26c-2.8,0-5,2.2-5,5s2.2,5,5,5h45v310H26c-2.8,0-5,2.2-5,5
			s2.2,5,5,5h50h170.8l-85,132.3c-1.5,2.3-0.8,5.4,1.5,6.9c0.8,0.5,1.8,0.8,2.7,0.8c1.6,0,3.3-0.8,4.2-2.3L256,355.2l85.8,133.5
			c1,1.5,2.6,2.3,4.2,2.3c0.9,0,1.9-0.3,2.7-0.8c2.3-1.5,3-4.6,1.5-6.9l-85-132.3H436h50c2.8,0,5-2.2,5-5S488.8,341,486,341z
			 M256,291c-57.9,0-105-47.1-105-105S198.1,81,256,81s105,47.1,105,105S313.9,291,256,291z M396,301h-50c-2.8,0-5-2.2-5-5
			s2.2-5,5-5h50c2.8,0,5,2.2,5,5S398.8,301,396,301z M396,271h-30c-2.8,0-5-2.2-5-5s2.2-5,5-5h30c2.8,0,5,2.2,5,5S398.8,271,396,271
			z"/>
	</g>
</g>
</svg>
