<?xml version="1.0" encoding="utf-8"?>
<!-- Generator: Adobe Illustrator 21.1.0, SVG Export Plug-In . SVG Version: 6.00 Build 0)  -->
<!DOCTYPE svg PUBLIC "-//W3C//DTD SVG 1.1//EN" "http://www.w3.org/Graphics/SVG/1.1/DTD/svg11.dtd">
<svg version="1.1" id="Calque_1" xmlns:sketch="http://www.bohemiancoding.com/sketch/ns"
	 xmlns="http://www.w3.org/2000/svg" xmlns:xlink="http://www.w3.org/1999/xlink" x="0px" y="0px" viewBox="0 0 42 52.5"
	 style="enable-background:new 0 0 42 52.5; fill: #fff" xml:space="preserve">
<title>Close Circle</title>
<desc>Created with Sketch.</desc>
<g sketch:type="MSPage">
	<path sketch:type="MSShapeGroup" d="M35.6,6.6c-7.9-7.9-20.8-7.9-28.7,0s-7.9,20.8,0,28.7c4,4,9.1,5.9,14.3,5.9s10.4-2,14.3-5.9
		C43.6,27.3,43.6,14.5,35.6,6.6L35.6,6.6z M33.5,33.1c-6.7,6.7-17.7,6.7-24.4,0s-6.7-17.7,0-24.4c3.4-3.4,7.8-5.1,12.2-5.1
		s8.9,1.7,12.2,5.1C40.3,15.4,40.3,26.4,33.5,33.1L33.5,33.1z M27.8,14.4c-0.6-0.6-1.5-0.6-2.1,0l-4.4,4.4l-4.4-4.4
		c-0.6-0.6-1.5-0.6-2.1,0c-0.6,0.6-0.6,1.5,0,2.1l4.4,4.4l-4.4,4.4c-0.6,0.6-0.6,1.5,0,2.1c0.3,0.3,0.7,0.4,1.1,0.4s0.8-0.1,1.1-0.4
		l4.4-4.4l4.4,4.4c0.3,0.3,0.7,0.4,1.1,0.4s0.8-0.1,1.1-0.4c0.6-0.6,0.6-1.5,0-2.1l-4.4-4.4l4.4-4.4C28.4,15.9,28.4,15,27.8,14.4
		L27.8,14.4z"/>
</g>
</svg>
