<?xml version="1.0" encoding="utf-8"?>
<!-- Generator: Adobe Illustrator 21.1.0, SVG Export Plug-In . SVG Version: 6.00 Build 0)  -->
<!DOCTYPE svg PUBLIC "-//W3C//DTD SVG 1.1//EN" "http://www.w3.org/Graphics/SVG/1.1/DTD/svg11.dtd">
<svg version="1.1"
	 id="Calque_1" xmlns:cc="http://creativecommons.org/ns#" xmlns:dc="http://purl.org/dc/elements/1.1/" xmlns:inkscape="http://www.inkscape.org/namespaces/inkscape" xmlns:rdf="http://www.w3.org/1999/02/22-rdf-syntax-ns#" xmlns:sodipodi="http://sodipodi.sourceforge.net/DTD/sodipodi-0.dtd" xmlns:svg="http://www.w3.org/2000/svg"
	 xmlns="http://www.w3.org/2000/svg" xmlns:xlink="http://www.w3.org/1999/xlink" x="0px" y="0px" viewBox="0 0 100 125"
	 style="enable-background:new 0 0 100 125;" xml:space="preserve">
<g transform="translate(0,-952.36218)">
	<path d="M5.2,1027.5c-0.1,0.3-0.2,0.6-0.2,0.8v4c0,1.8,0.7,3.5,2.1,4.5c1.3,1.1,3,1.5,4.9,1.5h76c1.9,0,3.6-0.4,4.9-1.5
		s2.1-2.8,2.1-4.5v-4c0-0.3-0.1-0.6-0.2-0.8l-6.8-14.6v-40.6c0-3.3-2.7-6-6-6H18c-3.3,0-6,2.7-6,6v40.6 M18,970.4h64
		c1.4,0,2,0.6,2,2v40H16v-40C16,971,16.6,970.4,18,970.4z M54.9,975.3c-0.8,0.1-1.5,0.6-1.8,1.3l-10,28c-0.5,1,0.1,2.4,1.1,2.7
		c1,0.4,2.3-0.3,2.6-1.4l10-28C57.3,976.8,56.2,975.2,54.9,975.3z M37.9,980.3c-0.3,0-0.6,0.1-0.9,0.3l-16,9c-1.2,0.7-1.2,2.8,0,3.5
		l16,9c0.9,0.7,2.4,0.3,2.9-0.6s0.1-2.4-1-2.8l-12.9-7.2l12.9-7.3c0.8-0.4,1.2-1.4,1-2.3C39.7,980.9,38.8,980.3,37.9,980.3z
		 M61.8,980.3c-0.9,0.1-1.6,0.7-1.8,1.6c-0.2,0.8,0.2,1.8,1,2.2l12.9,7.3L61,998.6c-1,0.4-1.5,1.8-1,2.8s2,1.3,2.9,0.6l16-9
		c1.2-0.7,1.2-2.8,0-3.5l-16-9C62.6,980.4,62.2,980.3,61.8,980.3z M14.8,1016.4h70.4l4.7,10H10.1L14.8,1016.4z M9,1030.4h82v2
		c0,0.8-0.2,1.1-0.6,1.4s-1.1,0.6-2.4,0.6H12c-1.3,0-2.1-0.3-2.4-0.6s-0.6-0.6-0.6-1.4V1030.4z"/>
</g>
</svg>
