<?xml version="1.0" encoding="utf-8"?>
<!-- Generator: Adobe Illustrator 21.1.0, SVG Export Plug-In . SVG Version: 6.00 Build 0)  -->
<!DOCTYPE svg PUBLIC "-//W3C//DTD SVG 1.1//EN" "http://www.w3.org/Graphics/SVG/1.1/DTD/svg11.dtd">
<svg version="1.1" id="Calque_1" xmlns="http://www.w3.org/2000/svg" xmlns:xlink="http://www.w3.org/1999/xlink" x="0px" y="0px"
	 viewBox="0 0 95.9 95.9" style="enable-background:new 0 0 95.9 95.9;" xml:space="preserve">
<style type="text/css">
	.st0{fill:#FFFFFF;}
  .contact0{fill:#073B4C;}
</style>
<circle class="st0" cx="48" cy="48" r="48"/>
<g>
	<path class="contact0" d="M49.2,54.9c-0.4,0.2-0.8,0.3-1.2,0.3c-0.4,0-0.8-0.1-1.2-0.3L17,37.3c-0.4-0.3-1,0.1-1,0.6v26.7c0,2.8,2.3,5,5,5h53.9
		c2.8,0,5-2.3,5-5V37.9c0-0.5-0.6-0.8-1-0.6C79,37.3,49.2,54.9,49.2,54.9z M49.3,49.4l30.3-17.9c0.2-0.1,0.3-0.4,0.3-0.6
		c-0.2-2.6-2.4-4.6-5-4.6H21c-2.6,0-4.8,2-5,4.6c0,0.2,0.1,0.5,0.3,0.6l30.3,17.9C47.5,49.9,48.5,49.9,49.3,49.4z"/>
</g>
</svg>
