<?xml version="1.0" encoding="utf-8"?>
<!-- Generator: Adobe Illustrator 21.1.0, SVG Export Plug-In . SVG Version: 6.00 Build 0)  -->
<!DOCTYPE svg PUBLIC "-//W3C//DTD SVG 1.1//EN" "http://www.w3.org/Graphics/SVG/1.1/DTD/svg11.dtd">
<svg version="1.1" id="Calque_1" xmlns="http://www.w3.org/2000/svg" xmlns:xlink="http://www.w3.org/1999/xlink" x="0px" y="0px"
	 viewBox="0 0 64 80" style="enable-background:new 0 0 64 80;" xml:space="preserve">
   <style type="text/css">
    .design{fill:#073B4C;}
  </style>
<g>
	<path class="design" d="M49,48c1.7,0,3-1.3,3-3s-1.3-3-3-3s-3,1.3-3,3S47.3,48,49,48z M49,44c0.6,0,1,0.4,1,1s-0.4,1-1,1s-1-0.4-1-1S48.4,44,49,44
		z"/>
	<path class="design" d="M59.2,40.8c-0.3-0.7-0.1-1.6,0.4-2.1l1.5-1.5L56.8,33l-1.5,1.5c-0.6,0.6-1.4,0.7-2.1,0.4c-0.7-0.3-1.2-1-1.2-1.8V31h-2.1
		c-0.1-1.6-0.4-3.2-0.9-4.6l11.6-11.6c1.5-1.5,2.4-3.6,2.4-5.7C63,4.6,59.4,1,54.9,1c-2.2,0-4.2,0.8-5.7,2.4L37.7,14.9
		c-1.5-0.5-3.1-0.8-4.7-0.9c-1.4-2.4-4-4-6.9-4c-0.8,0-1.5,0.1-2.2,0.3C22.1,7.1,18.7,5,15,5C9.5,5,5,9.5,5,15
		c0,0.8,0.1,1.5,0.3,2.3C2.8,18,1,20.3,1,23c0,3.3,2.7,6,6,6h7.3c-0.2,1-0.3,2-0.3,3c0,2.2,0.4,4,1.1,5.5l-8.9,8.9l-5,12.9
		C1.1,59.7,1,60,1,60.3C1,61.8,2.2,63,3.7,63c0.3,0,0.7-0.1,1-0.2l12.9-5l6.5-6.5c0,0.2-0.1,0.4-0.1,0.7c0,0.8,0.3,1.5,0.8,2
		c-0.5,0.5-0.8,1.2-0.8,2c0,1.4,1,2.6,2.2,2.9c0.9,2.4,3.1,4.1,5.8,4.1s4.9-1.7,5.8-4.1C39,58.6,40,57.4,40,56c0-0.1,0-0.1,0-0.2
		l1.2,1.2l1.5-1.5c0.6-0.6,1.4-0.7,2.1-0.4c0.7,0.3,1.2,1,1.2,1.8V59h6v-2.1c0-0.8,0.5-1.5,1.2-1.8c0.7-0.3,1.6-0.1,2.1,0.4l1.5,1.5
		l4.2-4.2l-1.5-1.5c-0.6-0.6-0.7-1.4-0.4-2.1c0.3-0.7,1-1.2,1.8-1.2H63v-6h-2.1C60.2,42,59.5,41.5,59.2,40.8z M44.2,43.7
		c1.1-1.1,2.2-2.2,3.1-3.4c0.5-0.2,1.1-0.3,1.7-0.3c2.8,0,5,2.2,5,5s-2.2,5-5,5s-5-2.2-5-5C44,44.6,44.1,44.1,44.2,43.7z M45.4,20
		l4.6-4.6l3.6,3.6l-5.3,5.3C47.5,22.8,46.5,21.3,45.4,20z M46.4,9L48,7.4l8.6,8.6L55,17.6L46.4,9z M54.9,3C58.3,3,61,5.7,61,9.1
		c0,1.6-0.6,3.1-1.8,4.3L58,14.6L49.4,6l1.2-1.2C51.8,3.6,53.3,3,54.9,3z M45,10.4l3.6,3.6L44,18.6c-1.3-1.2-2.7-2.1-4.3-2.9
		L45,10.4z M48,32c0,5.2-2.6,7.8-5.4,10.5c-1.9,1.9-3.9,3.8-5,6.6C37.4,49,37.2,49,37,49h-4v-5c0-1.7-1.3-3-3-3h-2c-0.6,0-1-0.4-1-1
		s0.4-1,1-1h10c1.7,0,3-1.3,3-3s-1.3-3-3-3h-8c-0.6,0-1-0.4-1-1v-3h5c2.8,0,5-2.2,5-5s-2.2-5-5-5c0,0-0.1,0-0.1,0
		c0-0.3,0.1-0.7,0.1-1c0-0.7-0.1-1.3-0.2-1.9C41.7,17,48,23.8,48,32z M26,52c0-0.6,0.4-1,1-1h10c0.6,0,1,0.4,1,1s-0.4,1-1,1H27
		C26.4,53,26,52.6,26,52z M13.4,52l7.4-7.4c1.2,1.2,2.4,2.5,3.2,4l-7,7L13.4,52z M3,23c0-2.2,1.8-4,4-4s4,1.8,4,4h2
		c0-3.2-2.6-5.9-5.7-6C7.1,16.4,7,15.7,7,15c0-4.4,3.6-8,8-8c2.9,0,5.6,1.6,7,4.1c-2.1,1.3-3.6,3.5-3.9,6c-1.7,0.4-3,2-3,3.9h2
		c0-1.1,0.9-2,2-2s2,0.9,2,2h2c0-1.8-1.2-3.4-2.9-3.8C20.5,14.2,23,12,26,12c3.3,0,6,2.7,6,6c0,0.5-0.1,1-0.2,1.5
		C30.1,20.4,29,22,29,24h2c0-1.7,1.3-3,3-3s3,1.3,3,3s-1.3,3-3,3H7C4.8,27,3,25.2,3,23z M27,29v3c0,1.7,1.3,3,3,3h8c0.6,0,1,0.4,1,1
		s-0.4,1-1,1H28c-1.7,0-3,1.3-3,3s1.3,3,3,3h2c0.6,0,1,0.4,1,1v5h-4c-0.2,0-0.4,0-0.6,0.1c-1.1-2.8-3.1-4.7-5-6.6
		C18.6,39.8,16,37.2,16,32c0-1,0.1-2,0.3-3H27z M19.3,43.2L12,50.6L8.4,47l7.6-7.6C17,40.8,18.1,42.1,19.3,43.2z M7.4,48.8l7.8,7.8
		l-6.6,2.5l-3.7-3.7L7.4,48.8z M3.9,61C3.5,61.1,3,60.8,3,60.3c0-0.1,0-0.2,0-0.2l1-2.6L6.5,60L3.9,61z M32,61c-1.5,0-2.8-0.8-3.5-2
		h7C34.8,60.2,33.5,61,32,61z M37,57H27c-0.6,0-1-0.4-1-1s0.4-1,1-1h10c0.6,0,1,0.4,1,1S37.6,57,37,57z M61,46L61,46
		c-1.6,0-3.1,1-3.7,2.5c-0.6,1.5-0.3,3.2,0.8,4.3l0,0l-1.4,1.4l0,0c-1.1-1.1-2.8-1.5-4.3-0.8c-1.5,0.6-2.4,2-2.4,3.6V57h-2v-0.1
		c0-1.6-1-3-2.5-3.6c-1.5-0.6-3.2-0.3-4.3,0.8l0,0l-1.4-1.4c0.1-0.3,0.1-0.5,0.1-0.8c0-0.7-0.3-1.4-0.7-1.9c0.6-1.7,1.6-3,2.7-4.3
		c0.4,3.5,3.4,6.1,6.9,6.1c3.9,0,7-3.1,7-7s-3.1-7-7-7c-0.1,0-0.2,0-0.3,0c0.7-1.4,1.1-3,1.3-5h0v0.1c0,1.6,1,3,2.5,3.6
		c1.5,0.6,3.2,0.3,4.3-0.8l0,0l1.4,1.4l0,0c-1.1,1.1-1.5,2.8-0.8,4.3c0.6,1.5,2,2.4,3.6,2.4H61V46z"/>
</g>
</svg>
