<svg id="Calque_1" data-name="Calque 1" xmlns="http://www.w3.org/2000/svg" viewBox="0 0 95.93 95.93"><defs><style>.cls-1{fill:#fff;}</style></defs><title>dowload-icon</title><circle class="cls-1" cx="47.97" cy="47.97" r="47.97"/><path d="M67.78,28.1a21.91,21.91,0,0,0-42.89,6.26v.31a15.65,15.65,0,0,0,3.13,31h9.39a3.13,3.13,0,1,0,0-6.26H28a9.39,9.39,0,1,1-.15-18.78h.38a3.36,3.36,0,0,0,2.43-1.1A3.13,3.13,0,0,0,31.4,37,15.65,15.65,0,1,1,62.27,32a3.13,3.13,0,0,0,3.56,2.64l.21,0a12.67,12.67,0,0,1,2.68-.27,12.52,12.52,0,0,1,0,25H62.45a3.13,3.13,0,1,0,0,6.26h6.26a18.79,18.79,0,1,0-.93-37.56Z" transform="translate(-1.98 -2.07)"/><path d="M49.93,46.88A3.13,3.13,0,0,0,46.8,50V76.88l-4-4a3.13,3.13,0,0,0-4.43,4.43h0l9.39,9.39a3.13,3.13,0,0,0,4.43,0h0l9.39-9.39a3.13,3.13,0,0,0-4.43-4.43h0l-4,4V50A3.13,3.13,0,0,0,49.93,46.88Z" transform="translate(-1.98 -2.07)"/></svg>