<?xml version="1.0" encoding="utf-8"?>
<!-- Generator: Adobe Illustrator 21.1.0, SVG Export Plug-In . SVG Version: 6.00 Build 0)  -->
<!DOCTYPE svg PUBLIC "-//W3C//DTD SVG 1.1//EN" "http://www.w3.org/Graphics/SVG/1.1/DTD/svg11.dtd">
<svg version="1.1" id="Calque_1" xmlns="http://www.w3.org/2000/svg" xmlns:xlink="http://www.w3.org/1999/xlink" x="0px" y="0px"
	 viewBox="0 0 91 113.8" style="enable-background:new 0 0 91 113.8;" xml:space="preserve">
   <style type="text/css">
    .bg0{fill:#FFFFFF;}
   </style>
<g>
	<path class="bg0" d="M16.5,38.8c3.7-1.5,6.8-4.2,9.5-7.3c2.1,2.1,4.2,4.2,6.1,6.4c2.9,3.4,8.3-2,4.9-4.9c-3.1-2.6-6-5.6-9-8.4
		c-1.5-1.4-3.8-1.1-4.9,0.6c-2.5,3.7-5.3,6.9-8.7,9.8C12.7,36.5,14.4,39.7,16.5,38.8z"/>
	<path class="bg0" d="M55.6,38.8c3.7-1.5,6.8-4.2,9.5-7.3c2.1,2.1,4.2,4.2,6.1,6.4c2.9,3.4,8.3-2,4.9-4.9c-3.1-2.6-6-5.6-9-8.4
		c-1.5-1.4-3.8-1.1-4.9,0.6c-2.5,3.7-5.3,6.9-8.7,9.8C51.8,36.5,53.6,39.7,55.6,38.8z"/>
	<path class="bg0" d="M21.4,58.5c1.2,1.6,2.3,3.2,4,4.4c1.9,1.3,3.9,2.2,6,3c4.1,1.6,8.5,2.5,13,2.8s9.2-0.3,13.6-1.5c4.3-1.1,9.5-2.9,12.6-6.1
		c2.4-2.5-0.6-5.7-3.5-4.5c-3.7,1.6-6.8,3.7-10.7,4.9c-3.9,1.1-7.9,1.5-12,1.5c-7.9,0-14.8-3.1-21.9-5.9
		C21.7,56.8,20.9,57.9,21.4,58.5z"/>
</g>
</svg>
