<svg width="512" height="512" viewBox="0 0 512 512" fill="none" xmlns="http://www.w3.org/2000/svg">
<g clip-path="url(#clip0_14_2)">
<path d="M510.486 284.482L483.224 200.519C483.236 200.557 483.24 200.596 483.252 200.634C483.239 200.59 483.231 200.546 483.219 200.502V200.492L429.1 33.871C427.676 29.5868 424.929 25.8649 421.255 23.2413C417.581 20.6176 413.169 19.2275 408.655 19.271C404.157 19.2455 399.77 20.6621 396.137 23.3129C392.503 25.9638 389.815 29.7093 388.466 34L337.094 192.154H175L123.533 33.989C122.183 29.7015 119.495 25.9593 115.862 23.3111C112.23 20.6629 107.845 19.2481 103.35 19.274H103.237C98.7236 19.2749 94.3253 20.6983 90.6672 23.3419C87.0091 25.9855 84.2773 29.7149 82.86 34L28.888 200.475L28.88 200.496C28.867 200.538 28.861 200.58 28.847 200.623C28.859 200.585 28.864 200.546 28.876 200.508L1.514 284.482C-0.499399 290.638 -0.507847 297.273 1.48987 303.434C3.48759 309.594 7.38845 314.962 12.631 318.765L248.893 490.427C248.928 490.453 248.967 490.468 249.002 490.494C249.102 490.566 249.202 490.64 249.302 490.708C249.202 490.643 249.115 490.572 249.02 490.508C249.035 490.52 249.053 490.528 249.07 490.539C249.087 490.55 249.097 490.554 249.111 490.563H249.117C249.483 490.817 249.862 491.051 250.254 491.263C250.308 491.293 250.354 491.331 250.411 491.363C250.444 491.379 250.475 491.401 250.511 491.417C250.547 491.433 250.564 491.437 250.588 491.449C250.612 491.461 250.626 491.464 250.644 491.472C250.688 491.493 250.736 491.506 250.78 491.529C250.985 491.629 251.201 491.707 251.413 491.793C251.613 491.875 251.802 491.97 252.005 492.041L252.03 492.052C252.064 492.064 252.094 492.08 252.13 492.092C252.166 492.104 252.213 492.124 252.255 492.138L252.305 492.15C252.358 492.166 252.415 492.174 252.468 492.189C252.487 492.195 252.51 492.198 252.531 492.204C252.815 492.29 253.11 492.352 253.403 492.417C253.518 492.443 253.628 492.479 253.744 492.5C253.761 492.5 253.776 492.509 253.794 492.512C253.832 492.52 253.867 492.533 253.906 492.539C253.968 492.55 254.028 492.57 254.092 492.579C254.141 492.586 254.192 492.579 254.243 492.591H254.276C254.839 492.677 255.407 492.722 255.976 492.727H255.995C256.564 492.722 257.132 492.677 257.695 492.591H257.728C257.778 492.583 257.828 492.591 257.881 492.579C257.934 492.567 258.005 492.55 258.068 492.539C258.106 492.533 258.141 492.52 258.178 492.512C258.195 492.512 258.21 492.503 258.227 492.5C258.345 492.477 258.458 492.441 258.576 492.416C258.864 492.352 259.154 492.29 259.437 492.206C259.456 492.2 259.476 492.198 259.496 492.192C259.551 492.175 259.609 492.168 259.665 492.151C259.681 492.145 259.7 492.144 259.716 492.139C259.76 492.126 259.802 492.107 259.845 492.092C259.888 492.077 259.908 492.064 259.945 492.051L259.971 492.041C260.185 491.965 260.388 491.866 260.598 491.78C260.808 491.694 260.992 491.626 261.182 491.535C261.229 491.512 261.282 491.499 261.324 491.476C261.342 491.467 261.364 491.461 261.382 491.452C261.4 491.443 261.435 491.432 261.46 491.419C261.485 491.406 261.528 491.379 261.56 491.363C261.616 491.335 261.666 491.294 261.721 491.263C262.111 491.052 262.488 490.82 262.853 490.568C262.882 490.548 262.915 490.533 262.945 490.512C262.953 490.506 262.962 490.503 262.969 490.497C263.004 490.471 263.045 490.454 263.079 490.429L499.379 318.763C504.619 314.959 508.518 309.591 510.514 303.431C512.51 297.271 512.5 290.636 510.486 284.482V284.482ZM408.8 49.48L455.142 192.154H362.46L408.8 49.48ZM103.2 49.48L149.628 192.155H56.948L103.2 49.48ZM26.817 299.251C25.7014 298.439 24.8719 297.294 24.4477 295.981C24.0235 294.668 24.0264 293.254 24.456 291.943L44.796 229.523L193.835 420.6L26.817 299.251ZM65.062 216.279H157.473L223.354 419.22L65.062 216.279ZM248.478 490.109C248.431 490.071 248.386 490.03 248.34 489.991C248.331 489.983 248.322 489.973 248.312 489.965C248.221 489.89 248.132 489.813 248.044 489.734C247.872 489.584 247.703 489.434 247.544 489.272C247.558 489.284 247.573 489.294 247.587 489.307L247.642 489.353C247.987 489.684 248.351 489.994 248.733 490.282L248.745 490.293C248.763 490.306 248.778 490.323 248.796 490.338C248.689 490.263 248.58 490.19 248.478 490.109ZM255.992 441.627L217.226 322.21L182.839 216.279H329.253L255.992 441.627ZM263.927 489.734C263.836 489.813 263.749 489.891 263.657 489.967L263.625 489.995C263.578 490.033 263.534 490.074 263.489 490.112C263.389 490.192 263.28 490.264 263.176 490.341C263.194 490.328 263.209 490.309 263.229 490.297L263.238 490.288C263.619 490.002 263.981 489.692 264.324 489.362C264.338 489.349 264.354 489.338 264.368 489.326C264.382 489.314 264.406 489.296 264.422 489.279C264.262 489.435 264.1 489.586 263.927 489.734V489.734ZM354.627 216.279H447.027L428.117 240.509L288.649 419.209L354.627 216.279ZM485.194 299.246L318.2 420.563L467.284 229.538L487.542 291.931C487.974 293.242 487.979 294.657 487.556 295.971C487.133 297.286 486.304 298.432 485.189 299.246H485.194Z" fill="white"/>
</g>
<defs>
<clipPath id="clip0_14_2">
<rect width="512" height="512" fill="white"/>
</clipPath>
</defs>
</svg>
