<?xml version="1.0" encoding="utf-8"?>
<!-- Generator: Adobe Illustrator 21.1.0, SVG Export Plug-In . SVG Version: 6.00 Build 0)  -->
<!DOCTYPE svg PUBLIC "-//W3C//DTD SVG 1.1//EN" "http://www.w3.org/Graphics/SVG/1.1/DTD/svg11.dtd">
<svg version="1.1" id="Calque_1" xmlns="http://www.w3.org/2000/svg" xmlns:xlink="http://www.w3.org/1999/xlink" x="0px" y="0px"
	 viewBox="0 0 100 125" style="enable-background:new 0 0 100 125;" xml:space="preserve">
<style type="text/css">
	.st0{fill:#FFFFFF;}
  .jgi{fill:#073B4C;}
</style>
<circle class="st0" cx="51.9" cy="58.6" r="45.3"/>
<g>
	<path class="jgi" d="M22.6,33.8c3.2-1.8,7.2-0.8,9.1,2.4L57,79.7c1.5,2.6,2.8,5,3.9,7.2c1,2.2,1.9,4.2,2.4,6.2c0.6,1.9,0.9,3.8,1,5.6
		c0.1,1.8-0.1,3.7-0.4,5.5c-0.8,3.7-2.6,7-5.2,9.8c-1,1-2,2-3.1,3c-3.2,2.7-8,1.9-10-1.7l0,0c-1.4-2.4-1.2-5.4,0.6-7.5
		c0.1-0.1,0.2-0.2,0.3-0.4c0.8-1.1,1.4-2.2,1.8-3.3c0.6-1.6,0.6-3.3,0-5.1c-0.6-1.8-1.5-3.7-2.6-5.8L17.1,44.6
		c-1.8-3.2-0.8-7.2,2.4-9.1L22.6,33.8z"/>
</g>
<g>
	<path class="jgi" d="M61.6,34.9c2.2-1.3,4.4-2.3,6.3-2.9c1.3-0.4,2.5-0.7,3.7-0.9c1-0.2,2,0.5,2.2,1.5l0.6,2.8c0.2,1.1-0.4,2.1-1.5,2.3
		c-1,0.2-1.9,0.4-2.8,0.7c-1.6,0.5-3,1.2-4.3,1.9c-1.5,0.9-2.8,1.9-3.8,3.2c-1,1.2-1.7,2.7-2.1,4.3c-0.4,1.6-0.4,3.4-0.1,5.3
		c0.4,1.9,1.2,3.9,2.4,6.1c2.3,4,4.9,6.5,7.9,7.6c3,1.1,6.1,0.7,9.3-1.2c0.8-0.5,1.5-0.9,2.1-1.4c0,0,0,0,0,0c0.8-0.6,1-1.7,0.5-2.5
		l-2.7-4.7c-0.5-0.9-1.7-1.2-2.6-0.7l-2.2,1.3c-0.9,0.5-2.1,0.2-2.6-0.7L70.1,54c-0.5-0.9-0.2-2.1,0.7-2.6l10.4-6.1
		c0.9-0.5,2.1-0.2,2.6,0.7l8.9,15.4c0.4,0.7,0.3,1.6-0.2,2.2c-0.9,1.1-2.1,2.3-3.4,3.5c-1.7,1.6-3.9,3.1-6.3,4.5
		c-2.7,1.6-5.4,2.6-8.2,3.2c-2.8,0.6-5.5,0.6-8.1,0c-2.6-0.6-5.1-1.7-7.4-3.4c-2.3-1.7-4.3-4-6-7c-1.7-3-2.8-5.9-3.1-8.7
		c-0.4-2.9-0.1-5.6,0.7-8.1c0.8-2.6,2.1-4.9,4-7.1C56.6,38.3,58.9,36.5,61.6,34.9z"/>
</g>
</svg>
