<?xml version="1.0" encoding="utf-8"?>
<!-- Generator: Adobe Illustrator 21.1.0, SVG Export Plug-In . SVG Version: 6.00 Build 0)  -->
<!DOCTYPE svg PUBLIC "-//W3C//DTD SVG 1.1//EN" "http://www.w3.org/Graphics/SVG/1.1/DTD/svg11.dtd">
<svg version="1.1" id="Calque_1" xmlns="http://www.w3.org/2000/svg" xmlns:xlink="http://www.w3.org/1999/xlink" x="0px" y="0px"
	 viewBox="0 0 1200 600" style="enable-background:new 0 0 1200 600;" xml:space="preserve">
<style type="text/css">
	.st0{fill:#F2F2F2;}
	.st1{opacity:0.6;}
	.st2{fill:none;stroke:#555562;stroke-width:0.5;stroke-miterlimit:10;}
	.st3{fill:#FCC010;}
	.st4{fill:#EC6585;}
	.st5{opacity:0.25;fill:#020203;enable-background:new    ;}
	.st6{fill:#FFFFFF;stroke:#343240;stroke-miterlimit:10;}
	.st7{fill:#FFFFFF;stroke:#343240;stroke-width:0.5;stroke-miterlimit:10;}
	.st8{fill:none;stroke:#343240;stroke-miterlimit:10;}
	.st9{fill:url(#SVGID_1_);}
	.st10{fill:#343240;}
	.st11{fill:#66627D;}
	.st12{fill:#F7BEBE;}
	.st13{fill:#403E56;}
	.st14{opacity:0.1;fill:#020203;enable-background:new    ;}
	.st15{fill:#D6B23D;}
	.st16{opacity:0.1;}
	.st17{fill:#020203;}
	.st18{opacity:0.4;fill:#FCC010;enable-background:new    ;}
	.st19{fill:#302F42;}
	.st20{opacity:0.3;fill:#FCC010;enable-background:new    ;}
	.st21{fill:#7E7B8C;}
	.st22{fill:#58B994;}
	.st23{fill:none;stroke:#403E56;stroke-miterlimit:10;}
	.st24{fill:#D0D2D5;}
	.st25{fill:#FCC012;}
	.st26{font-family:'MyriadPro-Regular';}
	.st27{font-size:2.2548px;}
	.st28{fill:#FFFFFF;}
	.st29{letter-spacing:3;}
	.st30{opacity:0.2;fill:#020203;enable-background:new    ;}
	.st31{fill:#EAC1CD;}
	.st32{opacity:0.8;}
	.st33{fill:#57B46A;}
</style>
<path class="st0" d="M1104,191.6c-5.4-2.9-11.3-4.5-17.4-4.7c-12.4-0.5-23.6,4.7-31.3,13.2C1068,197.9,1090,194,1104,191.6z"/>
<g>
	<path class="st0" d="M231.1,196.2c-21-0.7-41-7.5-60.1-14.9c-19.1-7.4-38-15.6-58.5-19.6c-13.2-2.5-28.3-2.9-38.9,4.2
		c-10.2,6.8-13.5,18.5-15.3,29.4c-1.3,8.2-2.1,16.8,1.5,24.5c2.5,5.3,7.1,9.8,10.2,14.9c10.9,17.8,3.2,39.7-8.6,57
		c-5.5,8.1-11.9,15.9-16.2,24.6s-6.2,18.6-2.5,27.4c3.7,8.8,12.5,15.3,22,20c19.4,9.4,42.2,12.1,64.4,13.6
		c49.3,3.4,98.8,1.9,148.2,0.5c18.3-0.5,36.6-1.1,54.6-3.9c10-1.6,20.3-4.1,27.5-10.1c9.2-7.6,11.5-20.6,5.3-30.1
		c-10.3-16.1-38.9-20-46.2-37.3c-4-9.5,0.1-20,5.9-28.8c12.4-18.9,33.2-35.4,34.3-57c0.8-14.8-9.2-29.7-24.7-36.7
		c-16.2-7.3-38.7-6.4-50.6,5.7C271.3,192.1,249.7,196.9,231.1,196.2z"/>
	<g id="abffebd3-2ac6-4c6b-a0d4-e62621854ed7" class="st1">
		<path class="st2" d="M119.6,232.8c0,0-8.9-15.8-22.4-20.4c-5.6-1.9-10.5-5.5-13.9-10.4c-1.6-2.3-3-4.8-4.1-7.4"/>
		<path class="st3" d="M70.8,191.8c1.5,1.5,8.7,3,8.7,3s-1.7-7.1-3.3-8.6c-1.5-1.5-4-1.5-5.5,0C69.2,187.7,69.2,190.2,70.8,191.8
			C70.7,191.7,70.7,191.7,70.8,191.8L70.8,191.8z"/>
		<path class="st3" d="M74.8,204.6c2.1,0.4,8.9-2.2,8.9-2.2s-5.3-5-7.4-5.4c-2.1-0.4-4.1,0.9-4.5,3
			C71.4,202.1,72.7,204.2,74.8,204.6L74.8,204.6z"/>
		<path class="st3" d="M89.5,218.4c2-0.7,6.6-6.4,6.6-6.4s-7.1-1.6-9.1-0.9c-2,0.7-3.1,2.9-2.4,4.9
			C85.3,218.1,87.5,219.1,89.5,218.4L89.5,218.4L89.5,218.4z"/>
		<path class="st3" d="M103,226.4c2.1-0.3,7.6-5.2,7.6-5.2s-6.7-2.8-8.8-2.5c-2.1,0.3-3.5,2.3-3.2,4.4
			C98.9,225.3,100.9,226.8,103,226.4L103,226.4L103,226.4z"/>
		<path class="st3" d="M89.7,196.9c0,2.1-3.9,8.3-3.9,8.3s-3.9-6.2-3.9-8.3c0-2.1,1.7-3.9,3.9-3.9C87.9,193,89.7,194.7,89.7,196.9
			L89.7,196.9z"/>
		<path class="st3" d="M105.3,206.4c-0.6,2-6.2,6.8-6.2,6.8s-1.8-7.1-1.2-9.1c0.6-2,2.8-3.2,4.8-2.5
			C104.8,202.2,105.9,204.4,105.3,206.4L105.3,206.4L105.3,206.4z"/>
		<path class="st3" d="M119.2,217.8c-0.3,2.1-4.9,7.7-4.9,7.7s-3-6.6-2.7-8.8c0.3-2.1,2.2-3.6,4.3-3.3
			C118,213.7,119.5,215.6,119.2,217.8z"/>
		<path class="st4" d="M70.8,191.8c1.5,1.5,8.7,3,8.7,3s-1.7-7.1-3.3-8.6c-1.5-1.5-4-1.5-5.5,0C69.2,187.7,69.2,190.2,70.8,191.8
			C70.7,191.7,70.7,191.7,70.8,191.8L70.8,191.8z"/>
		<path class="st4" d="M74.8,204.6c2.1,0.4,8.9-2.2,8.9-2.2s-5.3-5-7.4-5.4c-2.1-0.4-4.1,0.9-4.5,3
			C71.4,202.1,72.7,204.2,74.8,204.6L74.8,204.6z"/>
		<path class="st5" d="M89.5,218.4c2-0.7,6.6-6.4,6.6-6.4s-7.1-1.6-9.1-0.9c-2,0.7-3.1,2.9-2.4,4.9
			C85.3,218.1,87.5,219.1,89.5,218.4L89.5,218.4L89.5,218.4z"/>
		<path class="st5" d="M103,226.4c2.1-0.3,7.6-5.2,7.6-5.2s-6.7-2.8-8.8-2.5c-2.1,0.3-3.5,2.3-3.2,4.4
			C98.9,225.3,100.9,226.8,103,226.4L103,226.4L103,226.4z"/>
		<path class="st4" d="M89.7,196.9c0,2.1-3.9,8.3-3.9,8.3s-3.9-6.2-3.9-8.3c0-2.1,1.7-3.9,3.9-3.9C87.9,193,89.7,194.7,89.7,196.9
			L89.7,196.9z"/>
		<path class="st5" d="M105.3,206.4c-0.6,2-6.2,6.8-6.2,6.8s-1.8-7.1-1.2-9.1c0.6-2,2.8-3.2,4.8-2.5
			C104.8,202.2,105.9,204.4,105.3,206.4L105.3,206.4L105.3,206.4z"/>
		<path class="st5" d="M119.2,217.8c-0.3,2.1-4.9,7.7-4.9,7.7s-3-6.6-2.7-8.8c0.3-2.1,2.2-3.6,4.3-3.3
			C118,213.7,119.5,215.6,119.2,217.8z"/>
		<path class="st2" d="M119.1,232.5c0,0-1.8-18.1-12.2-27.7c-4.4-4-7.4-9.3-8.5-15.2c-0.5-2.8-0.8-5.6-0.8-8.4"/>
		<path class="st4" d="M91.1,175.2c0.8,2,6.7,6.3,6.7,6.3s1.3-7.2,0.5-9.2c-0.8-2-3-2.9-5-2.1C91.3,170.9,90.3,173.2,91.1,175.2
			L91.1,175.2L91.1,175.2z"/>
		<path class="st4" d="M89.6,188.5c1.7,1.2,9,1.6,9,1.6s-2.8-6.7-4.6-7.9c-1.7-1.2-4.2-0.8-5.4,0.9S87.8,187.3,89.6,188.5
			L89.6,188.5z"/>
		<path class="st4" d="M97.4,207.1c2.1,0.2,8.6-3.2,8.6-3.2s-5.8-4.4-8-4.5c-2.1-0.2-4,1.4-4.2,3.5S95.3,207,97.4,207.1L97.4,207.1z
			"/>
		<path class="st3" d="M106.5,219.9c2.1,0.5,9-1.7,9-1.7s-5-5.3-7.1-5.8c-2-0.6-4.2,0.5-4.8,2.5s0.5,4.2,2.5,4.8
			C106.2,219.8,106.3,219.8,106.5,219.9L106.5,219.9z"/>
		<path class="st4" d="M106.3,187.5c-0.9,1.9-6.9,6-6.9,6s-1-7.2-0.2-9.2c0.9-2,3.1-2.8,5.1-2C106.3,183.3,107.2,185.5,106.3,187.5
			L106.3,187.5z"/>
		<path class="st4" d="M116.7,202.6c-1.4,1.6-8.4,3.7-8.4,3.7s1.2-7.2,2.6-8.8c1.4-1.6,3.8-1.8,5.5-0.4
			C118,198.5,118.1,201,116.7,202.6L116.7,202.6L116.7,202.6z"/>
		<path class="st3" d="M124.8,218.6c-1.1,1.8-7.6,5.1-7.6,5.1s-0.1-7.3,1.1-9.1c1.1-1.8,3.5-2.4,5.3-1.3
			C125.4,214.4,126,216.8,124.8,218.6z"/>
	</g>
	<path class="st6" d="M83.6,206.9c0,0,47.7,1.9,54.2,0c0,0-3.6,79.8-2.3,82.4c0,0-52.9,2.9-56.8,0C74.8,286.4,83.6,206.9,83.6,206.9
		z"/>
	<path class="st6" d="M90.7,221.8c0,0,22.1,35,29.5,38.3"/>
	<path class="st6" d="M120.3,221.8c0,0-21.1,27.6-24.3,37"/>
	<path class="st6" d="M90.7,273.4"/>
	<path class="st6" d="M118.3,273.4H92.7c-1.9,0-1.9,9.1-1.9,9.1h27.6V273.4z"/>
	<path class="st6" d="M173.2,206.9c0,0,45.8-2.3,54.2,0c0,0-3.6,79.8-2.3,82.4c0,0-58.5,4.6-56.8,0
		C171.9,279.6,173.2,206.9,173.2,206.9z"/>
	<path class="st6" d="M191,213c0,0,10.2,16.2,13.6,17.7"/>
	<path class="st6" d="M204.6,213c0,0-9.7,12.7-11.2,17.1"/>
	<path class="st6" d="M216.2,241h-34.4c-2.6,0-2.6,9.1-2.6,9.1h37V241z"/>
	<path class="st6" d="M211.5,269.9h-25.6c-1.9,0-1.9,9.1-1.9,9.1h27.6V269.9z"/>
	<path class="st6" d="M216.2,254.3c2.6,0-31.4,2.9-34.4,0c-1.6-1.5-2.6,9.1-2.6,9.1h37V254.3z"/>
	<polyline class="st6" points="194.4,274.3 196.4,276.2 199.9,271.3 	"/>
	<path class="st6" d="M260.4,207.6c0,0,45.4,5.5,54.2,0c0,0-3.6,79.8-2.3,82.4c0,0-60.3,3.4-56.8,0
		C264.3,281.6,260.4,207.6,260.4,207.6z"/>
	<path class="st6" d="M266.7,221.7c0,0,6.5,10.4,8.8,11.4"/>
	<path class="st6" d="M275.5,221.7c0,0-6.3,8.2-7.2,11"/>
	<path class="st6" d="M304.2,243.1h-34.4c-2.6,0-2.6,4.8-2.6,4.8h37V243.1z"/>
	<path class="st6" d="M285.4,257.4h17.9c2.6,0,2.6,4.8,2.6,4.8h0.1"/>
	<path class="st6" d="M304.2,250.1c2.6,0-31.4,1.5-34.4,0c-1.6-0.8-2.6,4.8-2.6,4.8h37V250.1z"/>
	<path class="st6" d="M260.7,213.7c0,0,50.4,3.7,53.6,1.2"/>
	<path class="st7" d="M308,211.4c0.7-0.1,1.4,0.1,2.1,0.2c0.7,0.1,1.5,0.1,2-0.4"/>
	<path class="st7" d="M307.6,212.6c1.5,0.3,2.9,0.3,4.4,0.2"/>
	<path class="st7" d="M307.6,214.4c1.2-0.2,2.5-0.4,3.8-0.4"/>
	<path class="st7" d="M263.5,212c0.6,0.3,1.3,0.4,1.9,0.4c0.4,0.1,0.9,0,1.2-0.3c0.4-0.3,0.5-1,0.5-1.5c0-0.2,0-0.3-0.1-0.5
		c-0.1-0.1-0.2-0.3-0.3-0.4c-0.8-0.6-2.3-0.8-3.2-0.4C262.2,209.9,262.4,211.4,263.5,212z"/>
	<path class="st6" d="M277.9,219.7c-0.2,2.4,0.4,4.8,0.8,7.2c0.5,3,0.7,6,0.6,9.1c-5.1,0.3-10.2,0.4-15.4,0.2
		c0.5,0,0.4-10.9,0.4-11.9c0.1-1.3-0.2-3.5,1.3-4c1.6-0.5,3.8-0.2,5.4-0.3C273.3,219.9,275.6,219.8,277.9,219.7z"/>
	<path class="st8" d="M145.2,244.2c0,0,12.7-0.6,14.9,0"/>
	<path class="st8" d="M160.2,237.4c0,0,5.5,5.5,5.5,6.8c0,1.3-7.1,5.8-7.1,5.8"/>
	<path class="st8" d="M232.9,244.2c0,0,12.7-0.6,14.9,0"/>
	<path class="st8" d="M247.8,237.4c0,0,5.5,5.5,5.5,6.8c0,1.3-7.1,5.8-7.1,5.8"/>
	<circle class="st4" cx="158.2" cy="160.1" r="7"/>
	<circle class="st4" cx="265" cy="169.8" r="7"/>
	<circle class="st4" cx="340" cy="273.8" r="7"/>
	<circle class="st4" cx="368.4" cy="233" r="11.8"/>
	<circle class="st4" cx="349.5" cy="299.6" r="11.8"/>
	<circle class="st4" cx="47.5" cy="262.8" r="11.8"/>
	<circle class="st4" cx="29.9" cy="295.1" r="4.4"/>
	
		<linearGradient id="SVGID_1_" gradientUnits="userSpaceOnUse" x1="342.6144" y1="185.8756" x2="392.2605" y2="185.8756" gradientTransform="matrix(1 0 0 -1 -74.4 499.62)">
		<stop  offset="0" style="stop-color:#808181;stop-opacity:0.25"/>
		<stop  offset="0.54" style="stop-color:#808181;stop-opacity:0.12"/>
		<stop  offset="1" style="stop-color:#808181;stop-opacity:0.1"/>
	</linearGradient>
	<path class="st9" d="M317.5,278.6c0-0.4-0.1-0.8-0.1-1.2c-0.3-1.1-1-2.4-2-2.8c-1.1-0.3-2.2-0.8-3.2-1.4c-0.2-3.5,0.6-7-0.3-10.4
		c-0.3-1.2-0.9-2.4-1-3.7c-0.2-1.6,0.3-3.2-0.4-4.7c-0.5-1.1-1.6-1.9-2.7-2.4s-2.4-0.5-3.7-0.6c-1.6-0.1-6.6-0.7-8.4,0.7l0,0
		c-0.1,0.1-0.2,0.2-0.3,0.3l0,0c0,0.1-0.1,0.1-0.1,0.2c0,0,0,0,0,0c0,0.1-0.1,0.1-0.1,0.2l0,0c0,0.1,0,0.2-0.1,0.2c0,0,0,0.1,0,0.1
		c0,0.1,0,0.1,0,0.2v0.1c0,0.1,0,0.1,0,0.2c0,0.1,0,0,0,0.1c0,0.3,0.1,0.6,0.1,0.9c0,0.1,0,0.3,0,0.4c-0.1,0.4-0.3,0.7-0.5,1l0,0
		l-0.1,0.1l-0.1,0.2l-0.1,0.1l-0.1,0.1c0,0.1-0.1,0.1-0.1,0.2l0,0.1c0,0.1-0.1,0.2-0.1,0.3c-0.1,0.3-0.1,0.6,0,0.9
		c0.1,0.4,0.2,0.7,0.4,1c0.1,0.1,0.2,0.3,0.3,0.4s0.1,0.2,0.2,0.3c0,0.3-0.1,0.6-0.1,0.9c0,2.1,0.9,4,2.6,5.3c0.1,1.4,0.1,2.8,0,4.1
		c0,0.3-0.1,0.6-0.1,0.9c0,0.3-0.1,0.5-0.1,0.7c-0.5,0.1-1,0-1.4-0.1c-0.2-0.1-0.4-0.2-0.6-0.2c-0.9-0.2-1.9,0.7-2.8,0.4
		c0,0,0,0.1,0,0.1c-0.2-0.1-0.4-0.2-0.6-0.2c-0.6,0-1-0.4-1.4-0.8l-1.2-1.2c-0.1-0.1-0.2-0.2-0.2-0.2c-0.1-0.1-0.1-0.3-0.1-0.4
		c-0.3-0.7-0.7-1.2-1.2-1.7c-0.1-0.1-0.2-0.2-0.4-0.3c-0.1,0-0.1,0-0.2,0c0,0-0.1-0.1-0.1-0.1c-0.1-0.1-0.2-0.2-0.3-0.3
		c-0.6-0.5-0.6-1-1.2-1.6c-0.4-0.6-0.9-1.2-1.2-1.8c0-0.3-0.1-0.7-0.2-1c-0.2-0.8-0.4-1.6-0.7-2.4l0.4-0.5v-0.5l0.8-0.9l-0.1,0
		l1-0.9l-1,0l-0.5,0.6l0,0l-0.8,0.8l-0.6,0.1l-0.1,0.1c-0.5-0.7-1-1.1-1.4-1c-0.8,0.2-1.1,1.6-1,3.5l-2.2,2.4l-0.3,0.3l-1.2,1.5
		l0.9,0.9l1.4-1.3l0.2-0.2l1.4-1.5c0,0,0,0.1,0,0.1c0,0.2-0.1,0.5-0.1,0.7c0,0.3,0.3,0.5,0.4,0.7c0.2,0.3,0.3,0.7,0.3,1.1
		c0,0.1-0.1,0.3-0.1,0.4c0,0.3,0.1,0.6,0.3,0.8c0.5,0.9,1.1,1.8,1.6,2.7c0.1,0.2,0.2,0.4,0.3,0.6c0,0,0,0,0,0
		c0.1,0.2,0.3,0.4,0.4,0.5c0.1,0.7,0.2,1.4,0.5,2c0.1,0.1,0.1,0.2,0.2,0.4c0.4,0.7,0.9,1.4,1.5,2l0.8,0.9c0.8,0.9,1.5,1.7,2.3,2.5
		c0.3,0.3,0.7,0.6,1.1,0.7c0.4,0.2,0.8,0.1,1.2-0.2c0,0.4,0,0.8,0,1.2c0.2,0,0.4,0.2,0.6,0.4c0.1,0.2,0.1,0.5-0.1,0.7
		c-0.7,1.7,0,4.5-1,6c0.7,0.4,0,0,0.6,0.6c0.4,0.4,0.7,0.9,1.1,1.4c0,0.2,0,0.5,0.1,0.7c0.2,3.9-1.3,7.7-2.6,11.4
		c-0.4,1-0.8,2.1-0.8,3.2c-0.3,0.2-0.5,0.3-0.7,0.5c0.3,0.7,0.2,1.3,0.1,2.1c0,0.4-0.1,0.9-0.3,1.3c-0.1,0.3-0.3,0.6-0.5,0.8
		c-0.8,1.5-1,3.2-1.2,4.9c-0.1,1,0.3,2.3-0.2,3.2c-0.8,1.6-1.5,3.2-1.6,5c0,0.4-0.1,0.8-0.1,1.2c-0.1,0.3-0.3,0.6-0.4,0.9
		c-0.1,0.4-0.1,0.9-0.1,1.3c0.1,1.6-0.2,3.1-0.7,4.6c-0.4,1.2-0.9,2.4-0.5,3.6c-0.8,0.8-1.3,1.9-1.4,3c0,0.3,0,0.6-0.1,0.9
		c-0.1,0.3-0.2,0.6-0.4,0.8c-0.7,1.2-1,2.5-0.9,3.9c-1,1.3-1.5,2.9-1.7,4.6c-0.3,1.6-0.4,3.3-0.8,4.9c-0.5,2.1-1.4,4.3-1.6,6.4
		c-1.1,0.7-1.5,2-1.7,3.2c-0.2,1.2-0.2,2.5-0.7,3.7c-0.3,0.6-0.6,1.1-0.9,1.7c-0.2,0.5-0.3,1-0.4,1.5c-0.2,0.8-0.3,1.7-0.1,2.4
		c-0.3,0.3-0.6,0.5-1,0.7c0-0.2,0.1-0.4,0.1-0.6c-0.8,0.8-2.4,0.5-3,1.4c-0.4,0.6-0.3,1.4,0.3,1.9c0.2,0.1,0.4,0.2,0.7,0.3
		c1.6,0.5,3.3,1,5,0.8c0.2,0,0.4-0.1,0.6-0.2c0.2-0.2,0.4-0.4,0.5-0.6l0.7-1.2c0.6,0.2,1.2,0.3,1.8,0.4c0.1,0.5,0.1,1,0.1,1.6
		c0.3,0.1,0.8,0.1,0.9-0.2c0-0.1,0.1-0.2,0.1-0.4c0-0.2,0-0.5,0.1-0.9h0.1c1,0,2-0.2,2.9-0.6c-0.4-2.9,0.8-5.7,1.8-8.4
		c1-2.9,1.9-5.8,2.8-8.7c0.6-2,1.4-4,2-6.1c0.8-2.6,1.6-5.2,2.4-7.8c0.4-1.1,0.7-2.3,1.1-3.4c0.8-2.3,1.9-4.5,3-6.7
		c0.3-0.6,0.6-1.2,0.9-1.9c0.3-0.8,0.6-1.6,0.8-2.4c0.6-1.6,1.2-3.2,2-4.8l0.1-0.1c0.3,1.1,0.5,2.2,0.7,3.2c0.2,1.3,0.3,2.7,0.1,4
		c-0.2,0.9-0.5,1.8-0.4,2.7c0,1.3,0.7,2.4,1.1,3.6c0.2,0.9,0.3,1.9,0.4,2.8c0.1,1.5,0.9,3.1,0.3,4.4c-1.7,4.3-0.9,9.1-1.9,13.6
		c-0.5,2.3-2.1,4.5-1.9,6.8c0.1,1.7,0.2,3.3,0.4,5c0,0.5,0.2,1,0.4,1.5c0.1,0.3,0.3,0.5,0.4,0.7c-0.1,0.1-0.3,0.2-0.4,0.5
		c-0.3,0.8,0,1.8,0.7,2.3c0.3,0.2,0.6,0.3,0.9,0.3c0.4,0.1,0.9,0.2,1.4,0.2c0.1,0,0.3,0,0.4-0.1c0.5,0.2,1,0.4,1.5,0.6
		c0,0.1,0,0.3,0,0.4c0,0.1,0.1,0.3,0.2,0.4c0.1,0,0.2,0.1,0.3,0h1.8c0-0.1,0-0.3,0-0.4c0.4,0,0.8-0.1,1.1-0.4
		c0.2-0.2,0.3-0.4,0.3-0.7c0.5-1.6,1-3.3,1.4-4.9c0.2-0.7,0.4-1.4,0.5-2.1c0.2-1.1,0.3-2.3,0.2-3.5c-0.6-6,0.8-12,0.3-18
		c-0.3-3.6-0.1-7.2,0.6-10.8c0.1-0.8,0.3-1.6,0.4-2.4c0.1-1.5,0-3,0.1-4.5c0-0.5,0.1-1,0.2-1.6c0.5-3.2,0.7-6.5,0.8-9.8
		c0-1.1-0.1-2.2-0.2-3.2c0.3-0.1,0.6-0.3,0.9-0.5c0.3-0.4,0.2-0.9,0.2-1.4c0-1.1,0.5-2.2,0.9-3.3c0.5-1.5,0.9-3,1.2-4.5
		c0.3-1.2,0.5-2.5,0.5-3.8c0-0.1,0-0.3,0-0.4c0.1-0.1,0.2-0.2,0.3-0.3c0.1-0.2,0.1-0.4,0.2-0.6c0.1-0.8,0.2-1.7,0.4-2.5
		c0.1-0.6,0.2-1.2,0.3-1.8c0.3-2.4,0.7-4.8,1-7.2c0.1-0.6,0.2-1.2,0.3-1.9l0.3-1.9c0-0.2,0.1-0.4,0.1-0.7
		C318.3,281.9,317.5,280.1,317.5,278.6z M308.9,305.6c-0.4-0.9-0.7-1.8-0.6-2.8h0c0.1-0.3,0.1-0.6,0-0.9c-0.1-0.2-0.3-0.4-0.4-0.7
		c-0.1-0.3-0.2-0.6-0.2-0.9c-0.1-2,0.1-3.9,0.5-5.9c0-0.2,0.1-0.5,0.1-0.7c0.1-0.1,0.3-0.2,0.4-0.3c0.2-0.2,0.3-0.4,0.4-0.6
		c0.4-0.7,0.7-1.5,1-2.2c0.1-0.2,0.2-0.5,0.5-0.6c-0.1,1.9,0.1,3.8-0.6,5.5c-0.1,0.3-0.3,0.6-0.3,0.9c-0.1,0.5,0.1,1,0.1,1.5
		c0,0.2-0.1,0.5-0.2,0.7c-0.1,0.2,0,0.5,0.2,0.7c0,0,0.1,0.1,0.1,0.1c0,0.1,0,0.3,0,0.4c0,0.3,0,0.5-0.1,0.7
		c-0.1,0.8-0.1,1.6-0.1,2.4c0,0.9,0,1.7,0,2.6c0,0.3,0,0.5-0.1,0.7c-0.1,0.1-0.1,0.2-0.2,0.3C309.1,306.1,309,305.8,308.9,305.6z"/>
	<polygon class="st10" points="284.3,258.3 285.4,257.3 284.5,257.2 283.9,258 	"/>
	<polygon class="st11" points="276.5,265.4 277.6,263.9 277.9,263.6 281.4,259.9 282.6,258.7 283.2,258.6 284,257.8 284.5,258.2 
		283.7,259.1 283.7,259.6 282.5,261 279,264.7 278.8,265 277.4,266.3 	"/>
	<polygon class="st10" points="277.9,263.6 281.4,259.9 282.5,261 279,264.7 	"/>
	
		<ellipse transform="matrix(0.9796 -0.2007 0.2007 0.9796 -47.0157 61.9967)" class="st12" cx="282.2" cy="262.8" rx="1.8" ry="5.2"/>
	<path class="st13" d="M298.4,372.2c-0.3,0.8,0,1.7,0.7,2.3c0.3,0.2,0.6,0.3,0.9,0.3c0.4,0.1,0.9,0.2,1.3,0.2c0.6,0,1.1-0.2,1.7-0.3
		c0.1,0,0.1,0,0.2,0c0.1,0.1,0.1,0.1,0.1,0.2c0,0.3,0,0.6,0.1,1c0,0.2,0.1,0.4,0.3,0.4c0,0,0.1,0,0.1,0h1.8c0-1.5-0.1-3.1-0.5-4.6
		c0-0.1-0.1-0.2-0.1-0.3c-0.1-0.2-0.3-0.3-0.6-0.3c-0.4-0.2-0.9-0.3-1.4-0.2c-0.6,0.1-1,0.4-1.5,0.7c-0.5,0.3-1.1,0.6-1.7,0.4
		C299.1,371.8,298.7,371.3,298.4,372.2z"/>
	<path class="st12" d="M272.5,370.8c-0.5,0.5-1.1,0.9-1.8,1.2l-0.3,0.1c0,0-0.1,0-0.1,0.1c0,0.1,0,0.1,0,0.1
		c0.5,0.8,1.5,1.1,2.4,0.9c0.2,0,0.4-0.1,0.5-0.3c0.2-0.3,0.4-0.7,0.4-1c0.1-0.4,0.1-0.8,0-1.2C273.2,369.7,273,370.2,272.5,370.8z"
		/>
	<path class="st13" d="M279.3,374.8c0,0.1,0,0.2-0.1,0.4c-0.1,0.3-0.6,0.3-0.9,0.2c0-1.1-0.2-2.2-0.4-3.3c-0.6,0-1.1,0.6-1.4,1.1
		l-0.9,1.4c-0.1,0.2-0.3,0.4-0.5,0.6c-0.2,0.1-0.4,0.2-0.6,0.2c-1.7,0.3-3.3-0.2-4.9-0.8c-0.2-0.1-0.5-0.2-0.7-0.3
		c-0.6-0.4-0.7-1.3-0.3-1.9c0.7-0.9,2.2-0.6,3-1.4c-0.1,0.5-0.2,1-0.4,1.5c1.1-0.2,1.9-1.2,2.8-1.9c0.2-0.2,0.5-0.3,0.8-0.4
		c0.2,0,0.4,0,0.6,0.1c1,0.3,2,0.7,2.9,1.4c0.3,0.3,0.9,0.6,1,1.1C279.4,373.3,279.3,374.3,279.3,374.8z"/>
	<circle class="st12" cx="301.6" cy="261" r="6.7"/>
	<path class="st13" d="M314.8,300.6c0,1.3-0.2,2.6-0.5,3.8c-0.3,1.5-0.7,3.1-1.2,4.5c-0.4,1.1-0.9,2.2-0.9,3.3c0,0.5,0.1,1-0.2,1.4
		c-0.3,0.3-0.6,0.5-1,0.5c-0.4,0.1-0.7,0.4-0.8,0.7c-0.3-0.5-0.5-1-0.7-1.5c-0.6-1.8-1.1-3.6-1.6-5.4c-0.1-0.2-0.1-0.5,0-0.6
		c0.1-0.1,0.2-0.1,0.3-0.2c0.3-0.1,0.6-0.3,0.9-0.6c0.1-0.1,0.2-0.2,0.3-0.4c0.1-0.2,0.1-0.5,0.1-0.7c0-0.9,0-1.7,0-2.6
		c0-0.8,0-1.6,0.1-2.4c0-0.2,0-0.4,0.1-0.7c0-0.5,0.1-1.1,0.4-1.3c0.4-0.3,1.6,0.1,2.1,0.2c0.8,0.1,1.6,0.2,2.4,0.4
		C314.7,299.6,314.8,300.1,314.8,300.6z"/>
	<path class="st13" d="M287.7,268.5c-0.3,0.5-0.9,0.8-1.4,1.1l-1.6,1.1c-0.2,0.2-0.5,0.3-0.8,0.3c-0.3-0.1-0.5-0.3-0.6-0.6l0,0
		l-0.3-0.6l-1.6-2.7c-0.2-0.2-0.3-0.5-0.3-0.8c0-0.1,0-0.3,0.1-0.4c0-0.4-0.1-0.8-0.3-1.1c-0.1-0.2-0.4-0.4-0.4-0.7
		c0-0.4,0-0.7,0.2-1.1c0.2-0.3,0.4-0.6,0.7-0.8c0.2-0.1,0.3-0.2,0.5-0.3c0.1-0.1,0.2-0.1,0.3-0.1c0.3-0.1,0.5,0.2,0.8,0.2
		c1.2,0.8,1.6,2.3,2.5,3.3c0.5,0.6,0.6,1.1,1.2,1.6c0.1,0.1,0.2,0.2,0.3,0.3c0.1,0.1,0.2,0.3,0.3,0.4
		C287.2,267.9,287.9,268.3,287.7,268.5z"/>
	<path class="st12" d="M299.2,267.7c0.5,1,0.9,2.1,0.7,3.3c0,0.3-0.1,0.6-0.3,0.9c-0.5,0.7-1.4,0.8-2.3,0.9c-0.4,0-0.7,0.1-1,0.3
		c-0.2,0.3-0.2,0.8,0.1,1.1c0.3,0.3,0.6,0.5,1,0.6c1.3,0.6,2.8,1.1,4.3,0.9c0.7-0.1,1.3-0.3,2-0.4c0.7-0.1,1.5-0.1,2.2-0.1
		c0.9,0,1.8-0.1,2.6-0.2l2.3-0.2c0.1,0,0.3,0,0.3-0.1c0.2-0.2,0-0.5-0.3-0.6c-1.2-0.9-2.8-1.5-3.5-2.9c-0.3-0.6-0.4-1.4-0.7-2.1
		s-0.6-1.3-0.8-2c-0.1-0.6-0.1-1.3-0.1-1.9c0-0.6-0.2-1.3-0.6-1.7c-0.5-0.4-1.1-0.5-1.8-0.6c-1.6-0.1-3.2,0.3-4.3,1.4
		c-0.3,0.3-0.5,0.6-0.9,0.9c-0.3,0.3-0.7,0.3-0.5,0.7c0.2,0.4,0.6,0.6,0.8,0.9C298.9,267,299.1,267.4,299.2,267.7z"/>
	<path class="st13" d="M312.5,277.2c-0.4,2.5-1.1,4.9-2,7.3c-0.5,1.1-0.8,2.2-1.2,3.3c-0.3,1-0.2,2.1-0.4,3.1
		c-0.3,1.3-0.6,2.5-0.8,3.8c-0.4,1.9-0.5,3.9-0.5,5.9c0,0.3,0.1,0.6,0.2,0.9c0.1,0.2,0.3,0.4,0.4,0.7c0.2,0.4,0.1,0.9-0.1,1.3
		c-0.2,0.4-0.4,0.7-0.7,1c-3,0.9-6.3,0.6-9.4,0.8c-2.9,0.2-5.8,0.8-8.7,0.3c-0.3-1.3,0.2-2.7,0.7-3.9c1.3-3.7,2.8-7.5,2.6-11.4
		c0-0.4-0.1-0.9-0.2-1.3c-0.5-2.7,0-5.6,0.9-8.2c0.5-1.6,0.5-3.4,0.4-5.1c-0.1-0.6-0.1-1.1,0-1.7c0-0.6,0.3-1.1,0.6-1.6l0-0.1
		c0-0.1,0.1,0,0.2,0l0,0c0.1,0,0.1,0,0.2,0c0,0,0,0,0,0c0,0,0.1,0,0.1,0c0.1,0,0.1,0.2,0.3,0.2c0.2,0,0.5,0.1,0.7,0.1
		c0.3,0,0.6,0,0.9,0.1h0c0.4,0.1,0.9,0,1.3-0.1c0.3-0.1,0.5-0.2,0.8-0.3c0.2-0.1,0.4-0.1,0.6-0.2c0.3-0.2,0.2-1,0.3-1.4
		c0-0.3,0.1-0.7,0.2-1c0.3-0.5,0.8-0.8,1.4-0.8c0.6,0,1.1,0,1.7,0.1c1.2,0.2,2.4,0.1,3.6,0.4c0.6,0.1,1.2,0.4,1.8,0.1
		c0.1,0,0.2,0.2,0.2,0.3c0,0.2,0,0.3-0.1,0.4c-0.2,0.9,0.5,1.7,1.1,2.4c0.3,0.3,0.6,0.6,1,0.8c0.3,0.1,0.6,0.2,1,0.4
		c0.3,0.1,0.5,0.3,0.6,0.6c0.2,0.3,0.3,0.6,0.4,0.9C312.6,275.9,312.6,276.5,312.5,277.2z"/>
	<path class="st14" d="M312.5,277.2c-0.4,2.5-1.1,4.9-2,7.3c-0.5,1.1-0.8,2.2-1.2,3.3c-0.3,1-0.2,2.1-0.4,3.1
		c-0.3,1.3-0.6,2.5-0.8,3.8c-0.1,0-0.1,0.1-0.2,0.1c-0.4,0.2-0.8,0.3-1.3,0.4c-0.8,0.1-1.6,0.1-2.4-0.1l-4.6-0.6
		c-1.8-0.2-3.8-0.5-5.2-1.8c-0.8-0.7-1.3-1.6-1.8-2.5c0-0.4-0.1-0.9-0.2-1.3c-0.5-2.7,0-5.6,0.9-8.2c0.5-1.6,0.5-3.4,0.4-5.1
		c-0.1-0.6-0.1-1.1,0-1.7c0-0.6,0.3-1.1,0.6-1.6c0.1,0,0.2-0.1,0.3-0.1l0,0c0.1,0,0.1,0,0.2,0h0.1c0.1,0,0.2,0,0.3,0
		c0.2,0.1,0.4,0.2,0.6,0.2h0c0.3,0.1,0.6,0.1,0.9,0.1c0.4,0,0.9-0.1,1.3-0.1c0.5-0.1,1.1,0,1.5,0.3c0.3,0.2,0.6,0.5,0.9,0.8
		c0.3,0.3,0.7,0.5,1.1,0.6c2.8,1.1,5.9,1,8.6-0.2c0.3-0.1,0.6-0.2,0.9-0.2c0.2,0,0.4,0.1,0.6,0.3c0.2,0.1,0.4,0.2,0.6,0.3
		c0.2,0.3,0.3,0.6,0.4,0.9C312.6,275.9,312.6,276.5,312.5,277.2z"/>
	<path class="st4" d="M315.3,275c-1.3-0.4-2.5-0.9-3.7-1.6c-0.2-0.1-0.4-0.2-0.6-0.3c-0.3,0-0.6,0.1-0.9,0.2
		c-2.7,1.2-5.8,1.2-8.6,0.2c-0.4-0.1-0.8-0.3-1.1-0.6c-0.3-0.3-0.6-0.5-0.9-0.8c-1.1-0.7-2.5,0.1-3.7-0.3c-0.2-0.1-0.4-0.2-0.6-0.2
		c-0.9-0.2-1.9,0.7-2.8,0.4c-0.3,0.9-0.6,1.9-0.8,2.9c-0.1,1.1-0.2,2.3-0.2,3.4c0,0.7,0,1.4,0,2.1c0.2,0,0.4,0.2,0.6,0.4
		c0.1,0.2,0.1,0.5-0.1,0.7c-1.8,3.5-0.7,12.2-1.8,13.8c0.7,0.4-3.3,10.9-2.7,11.5c1.1,1.2,1.1,1.2,3.8,0.6c3.2-0.2,6.1-3.1,7.9-2.9
		l5.7-0.4c0.8,0.1,2.6,0.2,3.4,0.1c0.4-0.1-0.4-8.8,0-9c0.3-0.1,0.2-1,0.3-1.5c0.2-0.2,0.3-0.4,0.4-0.6c0.4-0.7,0.7-1.5,1-2.2
		c0.1-0.3,0.3-0.6,0.6-0.6c1.7-1.6,3.3-3.1,5.1-4.7c0.7-0.6,1.3-1.2,1.8-1.9c0.9-1.3,0.1-3.1,0-4.6c0-0.4-0.1-0.8-0.1-1.2
		C317,276.7,316.4,275.3,315.3,275z"/>
	<path class="st14" d="M287.7,268.5c-0.3,0.5-0.9,0.8-1.4,1.1l-1.6,1.1c-0.2,0.2-0.5,0.3-0.8,0.3c-0.3-0.1-0.5-0.3-0.6-0.6
		c0-0.1,0-0.2,0-0.2c0-0.3,0-0.5,0.1-0.8c0.2-0.4,0.4-0.7,0.7-0.9c0.6-0.6,1.3-1,2.1-1.3c0.1,0,0.3-0.1,0.4,0c0,0,0.1,0,0.1,0.1
		c0.1,0.1,0.2,0.3,0.3,0.4C287.2,267.9,287.9,268.3,287.7,268.5z"/>
	<path class="st4" d="M291.6,272c-0.6,0-1-0.4-1.4-0.8L289,270c-0.1-0.1-0.2-0.2-0.2-0.2c-0.1-0.1-0.1-0.3-0.1-0.4
		c-0.3-0.7-0.7-1.2-1.2-1.7c-0.1-0.1-0.2-0.2-0.4-0.3c-0.1,0-0.3,0-0.4,0c-0.8,0.3-1.5,0.7-2.1,1.3c-0.3,0.2-0.6,0.6-0.7,0.9
		c-0.1,0.2-0.1,0.5-0.1,0.8c0,0.9,0.2,1.7,0.6,2.5c0.1,0.1,0.1,0.2,0.2,0.4c0.4,0.7,0.9,1.4,1.5,2l0.8,0.9c0.8,0.8,1.5,1.7,2.3,2.5
		c0.3,0.3,0.7,0.6,1,0.7c0.4,0.2,0.9,0.1,1.2-0.2c0.2-0.2,0.3-0.4,0.3-0.6c0.5-1.3,1-2.6,1-4c0-0.6,0-1.1-0.1-1.7
		C292.6,272.2,292.2,272,291.6,272z"/>
	<path class="st10" d="M311.3,317.4c0,3.3-0.2,6.5-0.7,9.8c-0.1,0.5-0.1,1-0.2,1.6c-0.1,1.5,0.1,3-0.1,4.5c-0.1,0.8-0.2,1.6-0.4,2.4
		c-0.6,3.5-0.8,7.2-0.5,10.8c0.4,6-0.9,12-0.3,17.9c0.1,1.2,0,2.3-0.2,3.5c-0.1,0.7-0.3,1.4-0.5,2.1c-0.5,1.6-1,3.2-1.4,4.9
		c-0.1,0.2-0.2,0.5-0.3,0.7c-0.3,0.3-0.8,0.4-1.2,0.4c-1.9-0.1-3.6-0.9-5.3-1.7c-0.2-0.1-0.4-0.2-0.5-0.3c-0.4-0.4-0.3-0.9-0.5-1.4
		c-0.2-0.5-0.6-0.9-0.8-1.4c-0.2-0.5-0.3-1-0.4-1.5c-0.2-1.7-0.4-3.3-0.4-5c-0.1-2.4,1.4-4.5,1.9-6.8c1-4.5,0.2-9.3,1.9-13.6
		c0.5-1.3-0.2-3-0.3-4.4c0-0.9-0.1-1.9-0.4-2.8c-0.3-1.2-1-2.4-1.1-3.6c0-0.9,0.3-1.8,0.4-2.7c0.2-1.3,0.2-2.7-0.1-4
		c-0.2-1.1-0.4-2.2-0.7-3.2l-0.1,0.1c-0.8,1.5-1.5,3.1-2,4.8c-0.3,0.8-0.5,1.6-0.8,2.4c-0.3,0.6-0.6,1.2-0.9,1.8
		c-1.2,2.2-2.2,4.4-3,6.7c-0.4,1.1-0.8,2.3-1.1,3.4c-0.8,2.6-1.6,5.2-2.4,7.8c-0.6,2-1.4,4-2,6.1c-0.9,2.9-1.8,5.8-2.8,8.7
		c-1,2.7-2.1,5.5-1.8,8.4c-0.9,0.4-1.9,0.6-2.9,0.6c-1.7-0.1-3.3-0.5-4.9-1.2c-0.6-0.2-1.2-0.5-1.7-1c-0.7-0.9-0.5-2.2-0.3-3.3
		c0.1-0.5,0.2-1,0.4-1.5c0.2-0.6,0.6-1.1,0.9-1.7c0.5-1.1,0.5-2.4,0.7-3.6c0.2-1.2,0.6-2.5,1.7-3.2c0.2-2.2,1.1-4.3,1.6-6.4
		c0.4-1.6,0.5-3.2,0.8-4.9c0.3-1.6,0.8-3.2,1.7-4.5c-0.1-1.4,0.2-2.7,0.9-3.9c0.2-0.3,0.3-0.5,0.4-0.8c0.1-0.3,0.1-0.6,0.1-0.9
		c0.1-1.1,0.6-2.2,1.4-3c-0.3-1.2,0.1-2.4,0.5-3.6c0.5-1.5,0.7-3,0.7-4.6c0-0.4,0-0.9,0.1-1.3c0.1-0.3,0.3-0.6,0.4-0.9
		c0.1-0.4,0.1-0.8,0.1-1.2c0.1-1.8,0.8-3.4,1.6-5c0.5-0.9,0.1-2.2,0.2-3.2c0.2-1.7,0.4-3.4,1.2-4.9c0.2-0.3,0.3-0.5,0.5-0.8
		c0.2-0.4,0.3-0.9,0.3-1.3c0-0.7,0.1-1.4-0.1-2c1.7-1.4,4.1-1.8,6.4-1.9s4.5,0.1,6.8-0.4c0.6-0.1,1.3-0.3,2-0.4
		c1.6-0.2,3.1,0.1,4.7,0.5c-0.1,1,0.2,1.9,0.6,2.8C310.4,309.5,311.2,313.4,311.3,317.4z"/>
	<path class="st14" d="M303.6,318.1l-3.7,8.4c-0.2-1.1-0.4-2.2-0.7-3.2l-0.1,0.1l0-0.2l2-4.5L303.6,318.1z"/>
	<path class="st14" d="M314.8,300.6c-0.2,0.2-0.5,0.3-0.7,0.3c-0.4,0-0.8,0-1.2-0.2l-2.9-0.7c-0.1,0-0.2-0.1-0.3-0.1
		c0-0.5,0.1-1.1,0.4-1.3c0.4-0.3,1.6,0.1,2.1,0.2c0.8,0.1,1.6,0.2,2.4,0.4C314.7,299.6,314.8,300.1,314.8,300.6z"/>
	<path class="st4" d="M317.3,281.3c0.1,0.3,0.2,0.5,0.2,0.8c0.1,0.7,0.1,1.3-0.1,2l-0.3,1.9l-0.3,1.9l-1,7.2l-0.3,1.8l-0.4,2.5
		c0,0.2-0.1,0.4-0.2,0.6c-0.2,0.4-0.6,0.6-1,0.6c-0.4,0-0.8,0-1.2-0.2l-2.9-0.7c-0.1,0-0.2-0.1-0.4-0.1c-0.2-0.2-0.3-0.4-0.2-0.7
		c0-0.2,0.1-0.5,0.2-0.7c0.1-0.5-0.1-1-0.1-1.5c0.1-0.3,0.2-0.6,0.3-0.9c1-2.2,0.4-4.7,0.7-7c0.3-1.8,1.1-3.6,2.2-5
		c0.7-0.9,1.6-1.7,2.5-2.4c0.4-0.3,0.9-0.9,1.4-1C317.3,280.1,317.2,280.9,317.3,281.3z"/>
	<path class="st15" d="M312.1,274C311.7,273.4,312.1,274.6,312.1,274c-0.3-3.6,0.6-7.2-0.3-10.7c-0.3-1.2-0.9-2.4-1-3.7
		c-0.2-1.6,0.2-3.2-0.4-4.7c-0.5-1.1-1.6-1.9-2.7-2.4c-1.2-0.4-2.4-0.6-3.6-0.6c-1.8-0.2-8.1-0.9-8.9,1.4c-0.2,0.7,0.1,1.4,0,2.1
		c-0.2,0.8-0.9,1.3-1.1,2.1c-0.3,1.2,0.7,2.2,1.4,3.2c2.7,3.6,2,4,2.1,8.4c-0.7,3.5-0.2-0.1-1.5,3.3c-0.4,1,0,1,0.7,0.8
		c1.5-0.4,4.1,0.4,5.6,0.9c1.9,0.5,3.6,0.4,5.5,0c1.2-0.3,2.1,0.2,3.1-0.3"/>
	<g class="st16">
		<path class="st17" d="M297.4,272.8"/>
		<path class="st17" d="M296,259.3c-0.6-0.9-1.5-1.8-1.5-2.8c-0.2,0.3-0.4,0.7-0.6,1c-0.3,1.2,0.7,2.2,1.4,3.2"/>
		<path class="st17" d="M295.2,255.1c0.3-0.3,0.5-0.7,0.6-1.1c0.1-0.5,0-1,0-1.4c-0.3,0.2-0.4,0.4-0.5,0.7
			C295,253.9,295.2,254.5,295.2,255.1z"/>
	</g>
</g>
<g>
	<circle class="st18" cx="1129.2" cy="290.7" r="34.8"/>
	<rect x="935.9" y="338.8" class="st13" width="194.1" height="52.6"/>
	<path class="st0" d="M1117.5,208.5l-7.8,3.7l6.9-5.1c-1.1-1.7-2.4-3.4-3.7-4.9l-33.6,8.4l30.4-11.6c-1.4-1.2-2.9-2.3-4.4-3.4
		l-51.2,8.2c-5.4,6.8-8.4,15.2-8.4,24h77.1C1122.7,221,1120.9,214.4,1117.5,208.5z"/>
	<path class="st13" d="M1083.6,227.7l-26.2-39c0,0,39.7,13.9,35.2,39H1083.6z"/>
	<path class="st3" d="M1084.7,227.7l26.2-39c0,0-39.7,13.9-35.2,39H1084.7z"/>
	<path class="st19" d="M1130.2,445H935.6V154.7h194.5V445z M936.6,444.1h192.7V155.6H936.6V444.1z"/>
	<rect x="936.3" y="161.6" class="st19" width="193.6" height="0.9"/>
	<circle class="st3" cx="941.3" cy="158.4" r="1.8"/>
	<circle class="st3" cx="946.3" cy="158.4" r="1.8"/>
	<circle class="st3" cx="951.3" cy="158.4" r="1.8"/>
	<rect x="943.1" y="167.9" class="st3" width="8.2" height="4.5"/>
	<rect x="943.1" y="203.7" class="st3" width="39.9" height="4.5"/>
	<rect x="1085.1" y="167.9" class="st0" width="39.9" height="4.5"/>
	<rect x="943.1" y="211.4" class="st0" width="67.1" height="2.7"/>
	<rect x="943.1" y="217.3" class="st0" width="63.5" height="2.7"/>
	<rect x="943.1" y="223.2" class="st0" width="46.3" height="2.7"/>
	<rect x="958.5" y="303.9" class="st0" width="26.3" height="2.7"/>
	<rect x="958.5" y="309.8" class="st0" width="24.9" height="2.7"/>
	<rect x="958.5" y="315.7" class="st0" width="18.1" height="2.7"/>
	<rect x="1019.8" y="303.9" class="st0" width="26.3" height="2.7"/>
	<rect x="1019.8" y="309.8" class="st0" width="24.9" height="2.7"/>
	<rect x="1019.8" y="315.7" class="st0" width="18.1" height="2.7"/>
	<rect x="1083.3" y="303.9" class="st0" width="26.3" height="2.7"/>
	<rect x="1083.3" y="309.8" class="st0" width="24.9" height="2.7"/>
	<rect x="1083.3" y="315.7" class="st0" width="18.1" height="2.7"/>
	<rect x="999.4" y="406.9" class="st3" width="39.9" height="4.5"/>
	<rect x="999.4" y="414.6" class="st0" width="67.1" height="2.7"/>
	<rect x="999.4" y="420.5" class="st0" width="63.5" height="2.7"/>
	<rect x="999.4" y="426.4" class="st0" width="46.3" height="2.7"/>
	<rect x="955.1" y="252.7" class="st20" width="157.8" height="0.9"/>
	<rect x="954.9" y="268.6" class="st20" width="33.6" height="29.9"/>
	<rect x="1016.1" y="268.6" class="st13" width="33.6" height="29.9"/>
	<rect x="1079.6" y="268.6" class="st13" width="33.6" height="29.9"/>
	<path class="st3" d="M1028.5,298.4l-0.4,0c0-0.5,0.3-12,4.8-15.2l0.3,0.4C1028.8,286.5,1028.6,298.2,1028.5,298.4z"/>
	<circle class="st3" cx="1035.3" cy="280.8" r="2.2"/>
	<path class="st3" d="M1034.8,288.6c-1.2,0.4-2.4,0.4-3.6,0.2c1.5-1.9,4.1-2.8,6.5-2.2C1037,287.4,1036,288.2,1034.8,288.6z"/>
	<path class="st3" d="M1092,298.4l-0.4,0c0-0.5,0.3-12,4.8-15.2l0.3,0.4C1092.3,286.5,1092,298.2,1092,298.4z"/>
	<circle class="st3" cx="1098.8" cy="280.8" r="2.2"/>
	<path class="st3" d="M1098.3,288.6c-1.2,0.4-2.4,0.4-3.6,0.2c1.5-1.9,4.1-2.8,6.5-2.2C1100.5,287.4,1099.5,288.2,1098.3,288.6z"/>
	<rect x="943.1" y="355.6" class="st3" width="39.9" height="4.5"/>
	<rect x="943.1" y="363.3" class="st0" width="67.1" height="2.7"/>
	<rect x="943.1" y="369.2" class="st0" width="63.5" height="2.7"/>
	<rect x="943.1" y="375.1" class="st0" width="46.3" height="2.7"/>
	<circle class="st18" cx="1090.9" cy="361.9" r="14.2"/>
	<circle class="st18" cx="1064.6" cy="368.7" r="9.9"/>
	
		<rect x="948.8" y="251.1" transform="matrix(0.2872 -0.9579 0.9579 0.2872 430.4012 1114.1213)" class="st13" width="29.9" height="33.6"/>
	<path class="st3" d="M955.3,280.8l-0.4-0.1c0.1-0.5,3.7-11.5,9-13.2l0.1,0.4C959,269.6,955.4,280.7,955.3,280.8z"/>
	<circle class="st3" cx="966.8" cy="265.9" r="2.2"/>
	<path class="st3" d="M964.1,273.3c-1.2,0-2.4-0.3-3.5-0.9c2-1.4,4.7-1.5,6.8-0.3C966.5,272.8,965.4,273.2,964.1,273.3z"/>
</g>
<g>
	<circle class="st21" cx="372.4" cy="260.9" r="2.2"/>
	<circle class="st21" cx="380" cy="260.9" r="2.2"/>
	<circle class="st21" cx="387.6" cy="260.9" r="2.2"/>
	<rect x="386" y="382.7" class="st0" width="212.7" height="25.1"/>
	<rect x="491.1" y="296.1" class="st0" width="126.5" height="64.2"/>
	<polyline class="st3" points="513.3,354.4 542,306.5 571.7,354.4 	"/>
	<polygon class="st3" points="556.7,329.9 562.5,315 594.9,354.4 556.6,354.4 	"/>
	<path class="st3" d="M550.7,324c3.7-2.3,4.9-7.2,2.6-10.9c-2.3-3.7-7.2-4.9-10.9-2.6c0,0,0,0,0,0"/>
	<path class="st22" d="M653.4,398.6c-0.2,0.7-0.4,1.4-0.4,2.1c0,1.1,0.3,2.1,0.8,3c-1.1,1.9-1.1,4.2,0,6.1c-1.1,1.9-1.1,4.2,0,6.1
		c-1.1,1.9-1.1,4.2,0,6.1c-0.5,0.9-0.8,2-0.8,3c0,2.7,1.7,5,3.8,5c2.1,0,3.8-2.2,3.8-5c0-1.1-0.3-2.1-0.8-3c1.1-1.9,1.1-4.2,0-6.1
		c1.1-1.9,1.1-4.2,0-6.1c1.1-1.9,1.1-4.2,0-6.1c0.5-0.9,0.8-2,0.8-3c0-0.7-0.1-1.4-0.4-2.1"/>
	<path class="st22" d="M642.6,347.1c-0.5-0.7-1-1.4-1.4-2.1l10-1.6l-10.8,0.1c-2.1-4.5-2.2-9.7-0.3-14.4l14.5,7.5l-13.3-9.8
		c5-8.7,16.1-11.6,24.8-6.6c8.7,5,11.6,16.1,6.6,24.8c-0.4,0.7-0.9,1.5-1.4,2.1c0.8,1,1.5,2.1,2.1,3.3l-12.9,6.7l13.8-4.6
		c2,5.8,0.9,12.2-2.9,17c6.2,7.9,4.8,19.3-3,25.5c-7.9,6.2-19.3,4.8-25.5-3c-5.2-6.6-5.2-15.9,0-22.4
		C637.4,363,637.4,353.7,642.6,347.1L642.6,347.1z"/>
	<path class="st23" d="M656.5,398.3c-0.2,0.7-0.4,1.4-0.4,2.1c0,1.1,0.3,2.1,0.8,3c-1.1,1.9-1.1,4.2,0,6.1c-1.1,1.9-1.1,4.2,0,6.1
		c-1.1,1.9-1.1,4.2,0,6.1c-0.5,0.9-0.8,2-0.8,3c0,2.7,1.7,5,3.8,5s3.8-2.2,3.8-5c0-1.1-0.3-2.1-0.8-3c1.1-1.9,1.1-4.2,0-6.1
		c1.1-1.9,1.1-4.2,0-6.1c1.1-1.9,1.1-4.2,0-6.1c0.5-0.9,0.8-2,0.8-3c0-0.7-0.1-1.4-0.4-2.1"/>
	<path class="st23" d="M645.8,346.8c-0.5-0.7-1-1.4-1.4-2.1l10-1.6l-10.8,0.1c-2.1-4.5-2.2-9.7-0.3-14.4l14.5,7.5l-13.3-9.8
		c5-8.7,16.1-11.6,24.8-6.6c8.7,5,11.6,16.1,6.6,24.8c-0.4,0.7-0.9,1.5-1.4,2.1c0.8,1,1.5,2.1,2.1,3.3l-12.9,6.7l13.8-4.6
		c2,5.8,0.9,12.2-2.9,17c6.2,7.9,4.8,19.3-3,25.5c-7.9,6.2-19.3,4.8-25.5-3c-5.2-6.6-5.2-15.9,0-22.4
		C640.6,362.7,640.6,353.4,645.8,346.8L645.8,346.8z"/>
	<rect x="366.3" y="255.2" class="st23" width="267" height="173.6"/>
	<line class="st23" x1="366.3" y1="264.8" x2="633.4" y2="264.8"/>
	<circle class="st23" cx="373" cy="260" r="2.2"/>
	<circle class="st23" cx="380.6" cy="260" r="2.2"/>
	<circle class="st23" cx="388.3" cy="260" r="2.2"/>
	<rect x="371.4" y="303" class="st0" width="92.2" height="6.7"/>
	<rect x="371.4" y="318.9" class="st0" width="92.2" height="6.7"/>
	<rect x="371.4" y="334.8" class="st0" width="92.2" height="6.7"/>
	<rect x="374.6" y="300.8" class="st23" width="92.2" height="6.7"/>
	<rect x="374.6" y="316.7" class="st23" width="92.2" height="6.7"/>
	<rect x="374.6" y="332.6" class="st23" width="92.2" height="6.7"/>
	<rect x="498.6" y="287.9" class="st23" width="126.5" height="64.2"/>
	<rect x="393.5" y="377" class="st23" width="212.7" height="25.1"/>
	<polyline class="st23" points="514.9,352.2 543.6,304.3 573.3,352.2 	"/>
	<polyline class="st23" points="557.7,327.1 563.4,312.1 595.8,352.2 	"/>
	<path class="st23" d="M552.9,319.5c3.7-2.3,4.9-7.2,2.6-10.9s-7.2-4.9-10.9-2.6c0,0,0,0,0,0"/>
	<path class="st22" d="M337.7,392.1c3.8,0.2,7-2.7,7.2-6.5c0.2-3.8-2.7-7-6.5-7.2c-1.3-0.1-2.6,0.2-3.7,0.9l1.2,3.3l-2.5-2.4
		c-1.3,1.2-2.1,2.9-2.2,4.7c0,0.6,0,1.3,0.2,1.9C332.1,389.8,334.7,391.9,337.7,392.1z"/>
	<path class="st23" d="M357.8,428.8c-1.5-2.7,0.2-6,2.1-8.4c1.9-2.4,4.2-4.9,4.2-8c-0.1-4.4-4.7-7-8.5-9.3c-2.8-1.7-5.3-3.8-7.6-6.1
		c-0.9-0.9-1.8-1.9-2.3-3.1c-0.8-1.7-0.8-3.7-0.7-5.6c0.2-6.3,0.5-12.6,0.9-18.8"/>
	<path class="st23" d="M337.7,391.1c3.8,0.2,7-2.7,7.2-6.5c0.2-3.8-2.7-7-6.5-7.2c-1.3-0.1-2.6,0.2-3.7,0.9l1.2,3.3l-2.5-2.4
		c-1.3,1.2-2.1,2.9-2.2,4.7c0,0.6,0,1.3,0.2,1.9C332.1,388.8,334.7,391,337.7,391.1z"/>
	<path class="st22" d="M338.8,370.3c0.1-2.3,1.4-4.5,3.4-5.6l1.5,3l0-3.7c3.6-1.1,7.5,1,8.5,4.6c1.1,3.6-1,7.5-4.6,8.5
		c-3.6,1.1-7.5-1-8.5-4.6C338.8,371.8,338.7,371.1,338.8,370.3z"/>
	<path class="st23" d="M338.8,369c0.1-2.3,1.4-4.5,3.4-5.6l1.5,3l0-3.7c3.6-1.1,7.5,1,8.5,4.6c1.1,3.6-1,7.5-4.6,8.5
		c-3.6,1.1-7.5-1-8.5-4.6C338.8,370.6,338.7,369.8,338.8,369z"/>
	<path class="st22" d="M354.5,403.5c3.8,0.2,7-2.8,7.2-6.5c0.1-3.2-1.9-6.1-5-6.9l0,2.8l-1.6-3.1c0,0,0,0,0,0
		c-3.8-0.2-7,2.8-7.2,6.5C347.7,400.1,350.7,403.3,354.5,403.5z"/>
	<path class="st23" d="M354.4,402.2c3.8,0.2,7-2.8,7.2-6.5c0.1-3.2-1.9-6.1-5-6.9l0,2.8l-1.6-3.1c0,0,0,0,0,0
		c-3.8-0.2-7,2.8-7.2,6.5C347.7,398.8,350.6,402,354.4,402.2z"/>
	<path class="st22" d="M351,416.5c1.7,3.4,5.9,4.7,9.3,3c3.4-1.7,4.7-5.9,3-9.3c-1.7-3.4-5.9-4.7-9.3-3c-1.5,0.8-2.7,2.1-3.3,3.7
		l4.3,3.5l-4.7-1.1C350.2,414.5,350.5,415.5,351,416.5z"/>
	<path class="st23" d="M351,415.5c1.7,3.4,5.9,4.7,9.3,3c3.4-1.7,4.7-5.9,3-9.3c-1.7-3.4-5.9-4.7-9.3-3c-1.5,0.8-2.7,2.1-3.3,3.7
		l4.3,3.5l-4.7-1.1C350.2,413.5,350.5,414.6,351,415.5z"/>
</g>
<g id="programmer-group">
	<g id="ecran">
		<polygon class="st24" points="730.7,419.3 685.6,418.7 685.7,417.6 687.9,398.5 727.5,398.5 730.5,417.6 730.7,419 		"/>
		<polygon class="st14" points="730.7,419 708.1,419 685.6,418.7 685.7,417.6 730.5,417.6 		"/>
		<rect x="678" y="417.9" class="st24" width="59.9" height="1.4"/>
		<path class="st13" d="M795.2,283.7c0-2.1-1.7-3.8-3.7-3.8c0,0,0,0,0,0H624c-2.1,0-3.8,1.7-3.8,3.8c0,0,0,0,0,0v101.5h174.9V283.7z
			"/>
		<path class="st24" d="M620.2,384.1V396c0,2.1,1.7,3.8,3.8,3.8h167.4c2.1,0,3.8-1.7,3.8-3.8v-11.9H620.2z"/>
		<rect x="627.5" y="286.2" class="st19" width="161.3" height="91.2"/>
		<path class="st3" d="M708.6,395.3c1.2,0,2.3-0.6,3.1-1.5l0,0c0.1-0.1,0.2-0.3,0.3-0.4l-2.1-0.4l2.3,0c0.4-1,0.5-2.1,0.1-3.1
			l-3.1,1.6l2.9-2.1c-1.1-1.9-3.4-2.6-5.3-1.5c-1.9,1.1-2.6,3.4-1.5,5.3c0.1,0.2,0.2,0.4,0.4,0.5l0,0
			C706.3,394.7,707.4,395.2,708.6,395.3z"/>
		<polygon class="st14" points="712.5,399.8 730.5,417.9 727.7,399.8 		"/>
	</g>
	<g>
		<text transform="matrix(1 0 0 1 633.5781 293.3057)"><tspan x="0" y="0" class="st25 st26 st27">body </tspan><tspan x="5.3" y="0" class="st28 st26 st27">{</tspan><tspan x="0" y="2.7" class="st28 st26 st27">   </tspan><tspan x="1.4" y="2.7" class="st4 st26 st27">background-color</tspan><tspan x="18.3" y="2.7" class="st28 st26 st27">: #141723 ;</tspan><tspan x="0" y="5.4" class="st4 st26 st27">   /* background-color:</tspan><tspan x="21" y="5.4" class="st28 st26 st27"> #FFF ; */</tspan><tspan x="0" y="8.1" class="st4 st26 st27">   overflow: </tspan><tspan x="10.6" y="8.1" class="st28 st26 st27">hidden;</tspan><tspan x="0" y="10.8" class="st28 st26 st27">   </tspan><tspan x="1.4" y="10.8" class="st4 st26 st27">text-align:</tspan><tspan x="10.9" y="10.8" class="st28 st26 st27">center;</tspan><tspan x="0" y="13.5" class="st4 st26 st27">   display:</tspan><tspan x="8.6" y="13.5" class="st28 st26 st27"> flex;</tspan><tspan x="0" y="16.2" class="st28 st26 st27">  </tspan><tspan x="1" y="16.2" class="st4 st26 st27"> align-items: </tspan><tspan x="12.9" y="16.2" class="st28 st26 st27">center;</tspan><tspan x="0" y="18.9" class="st28 st26 st27">  </tspan><tspan x="1" y="18.9" class="st4 st26 st27"> justify-content:</tspan><tspan x="15.6" y="18.9" class="st28 st26 st27"> center;</tspan><tspan x="22.6" y="18.9" class="st28 st26 st27 st29">	</tspan><tspan x="0" y="21.6" class="st28 st26 st27">}</tspan><tspan x="0" y="27.1" class="st25 st26 st27">body </tspan><tspan x="5.3" y="27.1" class="st28 st26 st27">{</tspan><tspan x="0" y="29.8" class="st28 st26 st27">   </tspan><tspan x="1.4" y="29.8" class="st4 st26 st27">background-color</tspan><tspan x="18.3" y="29.8" class="st28 st26 st27">: #141723 ;</tspan><tspan x="0" y="32.5" class="st4 st26 st27">   /* background-color:</tspan><tspan x="21" y="32.5" class="st28 st26 st27"> #FFF ; */</tspan><tspan x="0" y="35.2" class="st4 st26 st27">   overflow: </tspan><tspan x="10.6" y="35.2" class="st28 st26 st27">hidden;</tspan><tspan x="0" y="37.9" class="st28 st26 st27">   </tspan><tspan x="1.4" y="37.9" class="st4 st26 st27">text-align:</tspan><tspan x="10.9" y="37.9" class="st28 st26 st27">center;</tspan><tspan x="0" y="40.6" class="st4 st26 st27">   display:</tspan><tspan x="8.6" y="40.6" class="st28 st26 st27"> flex;</tspan><tspan x="0" y="43.3" class="st28 st26 st27">  </tspan><tspan x="1" y="43.3" class="st4 st26 st27"> align-items: </tspan><tspan x="12.9" y="43.3" class="st28 st26 st27">center;</tspan><tspan x="0" y="46" class="st28 st26 st27">  </tspan><tspan x="1" y="46" class="st4 st26 st27"> justify-content:</tspan><tspan x="15.6" y="46" class="st28 st26 st27"> center;</tspan><tspan x="22.6" y="46" class="st28 st26 st27 st29">	</tspan><tspan x="0" y="48.7" class="st28 st26 st27">}</tspan><tspan x="0" y="54.1" class="st25 st26 st27">body </tspan><tspan x="5.3" y="54.1" class="st28 st26 st27">{</tspan><tspan x="0" y="56.8" class="st28 st26 st27">   </tspan><tspan x="1.4" y="56.8" class="st4 st26 st27">background-color</tspan><tspan x="18.3" y="56.8" class="st28 st26 st27">: #141723 ;</tspan><tspan x="0" y="59.5" class="st4 st26 st27">   /* background-color:</tspan><tspan x="21" y="59.5" class="st28 st26 st27"> #FFF ; */</tspan><tspan x="0" y="62.2" class="st4 st26 st27">   overflow: </tspan><tspan x="10.6" y="62.2" class="st28 st26 st27">hidden;</tspan><tspan x="0" y="64.9" class="st28 st26 st27">   </tspan><tspan x="1.4" y="64.9" class="st4 st26 st27">text-align:</tspan><tspan x="10.9" y="64.9" class="st28 st26 st27">center;</tspan><tspan x="0" y="67.6" class="st4 st26 st27">   display:</tspan><tspan x="8.6" y="67.6" class="st28 st26 st27"> flex;</tspan><tspan x="0" y="70.3" class="st28 st26 st27">  </tspan><tspan x="1" y="70.3" class="st4 st26 st27"> align-items: </tspan><tspan x="12.9" y="70.3" class="st28 st26 st27">center;</tspan><tspan x="0" y="73.1" class="st28 st26 st27">  </tspan><tspan x="1" y="73.1" class="st4 st26 st27"> justify-content:</tspan><tspan x="15.6" y="73.1" class="st28 st26 st27"> center;</tspan><tspan x="22.6" y="73.1" class="st28 st26 st27 st29">	</tspan><tspan x="0" y="75.8" class="st28 st26 st27">}</tspan></text>
		<text transform="matrix(1 0 0 1 730.4316 293.3057)"><tspan x="0" y="0" class="st25 st26 st27">body </tspan><tspan x="5.3" y="0" class="st28 st26 st27">{</tspan><tspan x="0" y="2.7" class="st28 st26 st27">   </tspan><tspan x="1.4" y="2.7" class="st4 st26 st27">background-color</tspan><tspan x="18.3" y="2.7" class="st28 st26 st27">: #141723 ;</tspan><tspan x="0" y="5.4" class="st4 st26 st27">   /* background-color:</tspan><tspan x="21" y="5.4" class="st28 st26 st27"> #FFF ; */</tspan><tspan x="0" y="8.1" class="st4 st26 st27">   overflow: </tspan><tspan x="10.6" y="8.1" class="st28 st26 st27">hidden;</tspan><tspan x="0" y="10.8" class="st28 st26 st27">   </tspan><tspan x="1.4" y="10.8" class="st4 st26 st27">text-align:</tspan><tspan x="10.9" y="10.8" class="st28 st26 st27">center;</tspan><tspan x="0" y="13.5" class="st4 st26 st27">   display:</tspan><tspan x="8.6" y="13.5" class="st28 st26 st27"> flex;</tspan><tspan x="0" y="16.2" class="st28 st26 st27">  </tspan><tspan x="1" y="16.2" class="st4 st26 st27"> align-items: </tspan><tspan x="12.9" y="16.2" class="st28 st26 st27">center;</tspan><tspan x="0" y="18.9" class="st28 st26 st27">  </tspan><tspan x="1" y="18.9" class="st4 st26 st27"> justify-content:</tspan><tspan x="15.6" y="18.9" class="st28 st26 st27"> center;</tspan><tspan x="22.6" y="18.9" class="st28 st26 st27 st29">	</tspan><tspan x="0" y="21.6" class="st28 st26 st27">}</tspan><tspan x="0" y="27.1" class="st25 st26 st27">body </tspan><tspan x="5.3" y="27.1" class="st28 st26 st27">{</tspan><tspan x="0" y="29.8" class="st28 st26 st27">   </tspan><tspan x="1.4" y="29.8" class="st4 st26 st27">background-color</tspan><tspan x="18.3" y="29.8" class="st28 st26 st27">: #141723 ;</tspan><tspan x="0" y="32.5" class="st4 st26 st27">   /* background-color:</tspan><tspan x="21" y="32.5" class="st28 st26 st27"> #FFF ; */</tspan><tspan x="0" y="35.2" class="st4 st26 st27">   overflow: </tspan><tspan x="10.6" y="35.2" class="st28 st26 st27">hidden;</tspan><tspan x="0" y="37.9" class="st28 st26 st27">   </tspan><tspan x="1.4" y="37.9" class="st4 st26 st27">text-align:</tspan><tspan x="10.9" y="37.9" class="st28 st26 st27">center;</tspan><tspan x="0" y="40.6" class="st4 st26 st27">   display:</tspan><tspan x="8.6" y="40.6" class="st28 st26 st27"> flex;</tspan><tspan x="0" y="43.3" class="st28 st26 st27">  </tspan><tspan x="1" y="43.3" class="st4 st26 st27"> align-items: </tspan><tspan x="12.9" y="43.3" class="st28 st26 st27">center;</tspan><tspan x="0" y="46" class="st28 st26 st27">  </tspan><tspan x="1" y="46" class="st4 st26 st27"> justify-content:</tspan><tspan x="15.6" y="46" class="st28 st26 st27"> center;</tspan><tspan x="22.6" y="46" class="st28 st26 st27 st29">	</tspan><tspan x="0" y="48.7" class="st28 st26 st27">}</tspan><tspan x="0" y="54.1" class="st25 st26 st27">body </tspan><tspan x="5.3" y="54.1" class="st28 st26 st27">{</tspan><tspan x="0" y="56.8" class="st28 st26 st27">   </tspan><tspan x="1.4" y="56.8" class="st4 st26 st27">background-color</tspan><tspan x="18.3" y="56.8" class="st28 st26 st27">: #141723 ;</tspan><tspan x="0" y="59.5" class="st4 st26 st27">   /* background-color:</tspan><tspan x="21" y="59.5" class="st28 st26 st27"> #FFF ; */</tspan><tspan x="0" y="62.2" class="st4 st26 st27">   overflow: </tspan><tspan x="10.6" y="62.2" class="st28 st26 st27">hidden;</tspan><tspan x="0" y="64.9" class="st28 st26 st27">   </tspan><tspan x="1.4" y="64.9" class="st4 st26 st27">text-align:</tspan><tspan x="10.9" y="64.9" class="st28 st26 st27">center;</tspan><tspan x="0" y="67.6" class="st4 st26 st27">   display:</tspan><tspan x="8.6" y="67.6" class="st28 st26 st27"> flex;</tspan><tspan x="0" y="70.3" class="st28 st26 st27">  </tspan><tspan x="1" y="70.3" class="st4 st26 st27"> align-items: </tspan><tspan x="12.9" y="70.3" class="st28 st26 st27">center;</tspan><tspan x="0" y="73.1" class="st28 st26 st27">  </tspan><tspan x="1" y="73.1" class="st4 st26 st27"> justify-content:</tspan><tspan x="15.6" y="73.1" class="st28 st26 st27"> center;</tspan><tspan x="22.6" y="73.1" class="st28 st26 st27 st29">	</tspan><tspan x="0" y="75.8" class="st28 st26 st27">}</tspan></text>
	</g>
	<g id="programmer">
		<path class="st14" d="M712.7,388.7c-0.2,1.7-0.5,3.5-0.9,5.2h43.6v-5.2H712.7z M676.3,417.9l5.2,0v-12.8c-1.8-0.1-3.5-0.2-5.2-0.2
			V417.9z"/>
		<polygon class="st11" points="882.9,429.6 882.9,435.6 812.2,436.3 811.5,436.3 784.6,436.6 784,436.6 775.8,436.6 775.6,436.6 
			725.9,437.1 644.2,437.9 644.1,437.9 623.4,438.1 623.1,438.1 530.9,438.9 530.9,431.9 552.6,418.9 596.1,418.5 597,418.5 
			597.3,418.5 598.3,418.5 619.2,418.3 620.1,418.3 620.4,418.3 621.3,418.3 628,418.3 628.2,418.3 644.7,418.1 644.9,418.1 
			773.9,417 777,417 777.3,417 779.7,417 797.3,416.9 798.2,416.8 799,416.8 799.5,416.8 804.9,416.8 806,416.8 807.5,416.8 
			812,416.7 819.2,416.7 820.1,416.7 821.7,416.6 822,416.6 856.8,416.3 		"/>
		<polygon class="st30" points="882.9,429.6 882.9,435.6 812.2,436.3 811.5,436.3 784.6,436.6 784,436.6 775.8,436.6 775.6,436.6 
			725.9,437.1 644.2,437.9 644.1,437.9 623.4,438.1 623.1,438.1 530.9,438.9 530.9,431.9 552.6,418.9 596.1,418.5 597,418.5 
			597.3,418.5 598.3,418.5 619.2,418.3 620.1,418.3 620.4,418.3 621.3,418.3 628,418.3 628.2,418.3 644.7,418.1 644.9,418.1 
			773.9,417 777,417 777.3,417 779.7,417 797.3,416.9 798.2,416.8 799,416.8 799.5,416.8 804.9,416.8 806,416.8 807.5,416.8 
			812,416.7 819.2,416.7 820.1,416.7 821.7,416.6 822,416.6 856.8,416.3 		"/>
		<polygon class="st14" points="882.9,429.6 882.9,435.6 812.2,436.3 811.5,436.3 784.6,436.6 784,436.6 775.8,436.6 775.6,436.6 
			725.9,437.1 644.2,437.9 644.1,437.9 623.4,438.1 623.1,438.1 530.9,438.9 530.9,431.9 625,431.3 625.3,431.3 644.3,431.2 
			644.4,431.2 776.1,430.3 776.2,430.3 776.3,430.3 776.5,430.3 778.7,430.3 779.4,430.3 814,430.1 816.1,430 816.5,430 		"/>
		<circle class="st12" cx="708.1" cy="320.1" r="23.9"/>
		<path class="st12" d="M732,356.8c0,0-46.3,5.6-41.9,0c1.6-2,2-8,2-14.8c0-2.1-0.1-4.2-0.2-6.3c-0.5-10.2-1.7-20.2-1.7-20.2
			s40.5-19.1,35.8-4c-1.9,6.1-1.3,14.7,0.2,22.7c0.4,2.3,0.9,4.7,1.4,6.8C728.7,346.4,730.2,351.7,732,356.8z"/>
		<path class="st31" d="M716.9,354.9c5.4-1,11-2.8,16.1-0.7c1.3,0.5,2.5,1.3,3.9,1.8c1.4,0.5,2.8,0.6,4.3,0.9c5,1.1,9,4.9,11.6,9.3
			c2.6,4.4,3.9,9.4,5.2,14.3l3.2,12c2.8,10.4,5.6,21,6.2,31.8c-38.8,2.2-77.8,2.4-116.6,0.7c2.5-4.8,5.1-9.9,4.9-15.3
			c-0.2-5.4-3.3-10.8-2.2-16.2c0.7-3.4,3.1-6.2,4.5-9.4c4.1-9.1,0.9-21.3,8.1-28.2c3.2-3.1,7.9-4.3,12.4-4.1
			c5.7,0.2,11.6,2,17.2,2.8C702.8,355.6,709.6,356.3,716.9,354.9z"/>
		<path class="st14" d="M777.8,406.6l0,0.7v0l-0.1,1.1L777,417l-0.7,10.4l-0.2,2.9l-0.5,6.2v0.1l-49.8,0.5l-81.7,0.9v0.4h-0.1V438
			v-0.1l0.2-6.7l0.4-13l0.3-11.1l0-1.1c0.1-2.7,2.3-4.8,5-4.7c0.1,0,0.2,0,0.3,0c2.2,0.2,5,0.4,8.5,0.7l1.4,0.1
			c19.7,1.4,56.1,3.1,92.8,0.9c0.8,0,1.5-0.1,2.3-0.1c5.7-0.4,11.4-0.8,17-1.4c2.7-0.3,5.1,1.7,5.4,4.4
			C777.8,406,777.8,406.3,777.8,406.6L777.8,406.6z"/>
		<path class="st13" d="M644.2,438.4V438l81.7-0.9l49.8-0.5h0.1v-0.1l0.5-6.2l0.2-2.8l0.8-10.5l0.6-8.3v-0.2c0-0.4,0-0.8-0.1-1.1
			c0,0,0,0,0,0c-0.1-0.8-0.4-1.5-0.9-2.2c-1-1.3-2.7-2-4.4-1.9c-5.6,0.6-11.3,1-17,1.4c-0.8,0.1-1.6,0.1-2.3,0.1
			c-36.7,2.2-73.1,0.4-92.8-0.9l-1.4-0.1c-3.4-0.2-6.3-0.5-8.5-0.7c-2.5-0.2-4.8,1.5-5.2,4c0,0.3-0.1,0.5-0.1,0.8l-0.3,10.3
			l-0.4,13.1l-0.2,6.7v0.1L644.2,438.4L644.2,438.4z"/>
		<path class="st14" d="M777.9,409.9l-0.6,7.1l-0.9,10.6l-0.2,2.7l-0.5,6l0,0.3v0.1l0,0l-0.1,0.7l0.1-0.7h-0.1l-49.8,0.5l-81.7,0.9
			v-0.1l0.2-6.7l0.5-13l0.3-8.7c0-1,0.6-1.9,1.4-2.4c0.5-0.3,1.1-0.5,1.8-0.4c1,0.1,2.2,0.2,3.6,0.3c2.3,0.2,5.1,0.4,8.3,0.6
			c6,0.4,13.6,0.8,22.3,1.1c24.2,0.9,56.8,1.2,87.8-1.5c1.4-0.1,2.8-0.3,4.2-0.4c0.6-0.1,1.1,0.1,1.6,0.3c0.1,0.1,0.3,0.2,0.4,0.3
			c0.4,0.3,0.7,0.7,0.9,1.1c0,0.1,0.1,0.2,0.1,0.3C777.9,409.1,777.9,409.5,777.9,409.9z"/>
		<path class="st13" d="M712.9,385.9"/>
		<path class="st15" d="M741.2,360.5c1.1,0,1.8-1.1,1.6-2.1c-1-4.4-1.8-8.8-2.4-13.3c-0.2-1.7-0.4-3.4,0-5c0.5-1.9,1.7-3.5,2.6-5.2
			c2.6-4.9,2.7-10.8,1.3-16.2c-1.3-5.4-3.9-10.4-6.5-15.3c-2.1-3.9-4.3-8-8.1-10.4c-2.4-1.4-5.1-2-7.8-2.6l-11.8-2.5
			c-2.6-0.6-5.2-1.1-7.8-0.7c-4.4,0.7-7.5,3.9-10.2,7.1c-2.1,2.5-7.4,7.3-7.7,10.6c-0.3,3.1,2.4,8.2,2.8,11.4c0.6,4.2,1,2.8,3.4,5.4
			c1.5,1.6,2.5,3.4,2.5,5.7c0,3.3-1.5,6.3-2.7,9.3c-4.7,11-8.9,8.3-5.3,18.8l19.1,5.5c4.6,1.3,9.3,1.8,14,1.4L741.2,360.5z"/>
	</g>
</g>
<g>
	<g class="st32">
		<line class="st23" x1="548.2" y1="226.8" x2="777.4" y2="226.8"/>
		<path class="st23" d="M568.5,226.8c0,0,11,1.5,5.3-10.2c-5.7-11.8,15.4-9.5,15.4-9.5"/>
		<path class="st23" d="M641.6,226.8c0,0,11-1.5,5.3,10.2c-5.7,11.8,15.4,9.5,15.4,9.5"/>
		<path class="st23" d="M746.7,226.8c0,0-11-1.5-5.3,10.2c5.7,11.8-15.4,9.5-15.4,9.5"/>
		<line class="st23" x1="726" y1="246.6" x2="665.5" y2="246.6"/>
		<circle class="st3" cx="548.2" cy="226.8" r="6.7"/>
		<circle class="st33" cx="589.3" cy="206.9" r="6.7"/>
		<circle class="st3" cx="589.3" cy="226.8" r="6.7"/>
		<circle class="st3" cx="615.9" cy="226.8" r="6.7"/>
		<circle class="st4" cx="662.4" cy="246.5" r="6.7"/>
		<circle class="st4" cx="697.5" cy="246.5" r="6.7"/>
		<circle class="st3" cx="695.6" cy="226.8" r="6.7"/>
		<circle class="st3" cx="775.7" cy="226.8" r="6.7"/>
		<circle class="st3" cx="743" cy="226.8" r="6.7"/>
		<rect x="536.9" y="165.2" class="st3" width="22.5" height="15.5"/>
		<rect x="578.2" y="165.2" class="st33" width="22.5" height="15.5"/>
		<rect x="651" y="165.2" class="st4" width="22.5" height="15.5"/>
	</g>
	<g>
		<g class="st16">
			<path class="st3" d="M530.6,212.9c0,0-27.4-11.5-31,9.3c0,0-1.9,3.2,0.7,5.9c0,0,0.6-1.4,3.2,0c0.9,0.5,2,0.9,3,1.2
				c1.4,0.4,2.9,0.3,4.3-0.2l0,0c0,0,9-0.5,16.6-12.3c0,0,3.3-2,3.4-2.8l-5.4,0.4c0,0,0.4,4-1.8,6.4c0,0,2-6.2,1-6.3
				c-0.2,0-2.9,0.3-2.9,0.3s0.7,6.9-2.9,10.5c0,0,3.4-7,1.9-10.4l-4,0.8c0,0,1.1,7.3-2.9,11.5c0,0,3.3-7.5,2-11.3l-3.8,1.3
				c0,0,0.9,7.1-2.4,10.6c0,0,2.9-9,1.5-10.3c0,0-3.5,1.4-4.2,2.2c0,0,0.5,5.1-1.6,7c0,0,1.3-6.2,0.7-6.5c0,0-4,3-5.2,5.6
				c0,0,1.5-4,4.7-6.2c0,0-2.7-0.5-4.8,0.7c0,0,1.4-2.6,5.7-1.4c0,0,3.2-2.2,3.9-2.2c0,0-4.1-1.8-7.1-1.6c0,0,3.2-1.8,8.1,1.2
				l3.8-1.4c0,0-5.3-2.7-8-2.7c0,0,3.5-1.4,9,2.4l3.9-0.8c0,0-4.4-2.7-7.4-3.3c0,0,3.6-0.6,8.5,3.1l2.7-0.2c0,0-3.2-1.9-4.2-2.4
				s-0.9-0.8-0.9-0.8c2.3,0.4,4.5,1.4,6.3,3C525,213.3,530.6,213.2,530.6,212.9z"/>
		</g>
		<g class="st16">
			<path class="st3" d="M512.5,180.3c0,0-9.7-22.5-23.7-12.2c0,0-3,0.9-2.9,3.9c0,0,1.2-0.5,1.9,1.9c0.3,0.8,0.6,1.7,1.1,2.4
				c0.6,1,1.5,1.8,2.7,2.3l0,0c0,0,5.6,4.8,16.9,2.2c0,0,3.1,0.7,3.6,0.3l-3.4-2.9c0,0-2,2.6-4.7,2.7c0,0,4.7-2.5,4.2-3.2
				c-0.1-0.1-1.9-1.4-1.9-1.4s-3.5,4.5-7.7,4.6c0,0,6-2.3,7-5.1l-2.8-1.8c0,0-3.6,5-8.3,5.2c0,0,6.2-2.6,7.6-5.6l-3-1.4
				c0,0-3.5,4.8-7.5,4.9c0,0,6.9-3.7,6.8-5.2c0,0-2.8-1.1-3.8-1.1c0,0-2.6,3.4-4.9,3.3c0,0,4.3-3,4.1-3.5c0,0-4.1-0.5-6.3,0.4
				c0,0,3.2-1.5,6.4-1c0,0-1.3-1.8-3.2-2.3c0,0,2.3-0.8,4.2,2.4c0,0,3.2,0.5,3.6,0.9c0,0-1.4-3.4-3.3-5c0,0,2.9,0.7,4.1,5.3l3.1,1.4
				c0,0-1.6-4.7-3.2-6.2c0,0,2.9,1.2,3.9,6.6l2.8,1.8c0,0-1.1-4.1-2.5-6.2c0,0,2.4,1.7,3.3,6.7l1.7,1.4c0,0-0.8-3-1.2-3.8
				c-0.3-0.8-0.1-1-0.1-1c1.2,1.6,1.9,3.4,2,5.4C508.9,177.4,512.3,180.5,512.5,180.3z"/>
		</g>
	</g>
</g>
<g>
	<g class="st16">
		<path class="st3" d="M817.2,273.3c3-2.6,6.7-4.4,10.6-5c0,0,0.1,0.5-1.6,1.3c-1.7,0.8-7.1,4-7.1,4l4.5,0.4
			c8.3-6.2,14.3-5.3,14.3-5.3c-5,1.1-12.4,5.6-12.4,5.6l6.6,1.3c9.1-6.4,15.1-4.1,15.1-4.1c-4.5,0-13.4,4.6-13.4,4.6l6.4,2.3
			c8.3-5.2,13.6-2.1,13.6-2.1c-5-0.4-11.9,2.7-11.9,2.7c1.1-0.1,6.5,3.7,6.5,3.7c7.3-2.1,9.7,2.3,9.7,2.3c-3.5-1.9-8-1.1-8-1.1
			c5.4,3.8,8,10.5,8,10.5c-2.1-4.4-8.8-9.5-8.8-9.5c-1.1,0.4,1.1,10.9,1.1,10.9c-3.5-3.1-2.6-11.8-2.6-11.8
			c-1.2-1.3-7.1-3.7-7.1-3.7c-2.3,2.1,2.6,17.3,2.6,17.3c-5.6-5.9-4-17.9-4-17.9l-6.5-2.2c-2.1,6.4,3.4,19,3.4,19
			c-6.7-7.1-4.8-19.4-4.8-19.4l-6.8-1.3c-2.5,5.6,3.2,17.5,3.2,17.5c-6.1-6-4.9-17.7-4.9-17.7s-4.5-0.6-4.8-0.5
			c-1.6,0.3,1.7,10.7,1.7,10.7c-3.8-4-3.1-10.7-3.1-10.7l-9.1-0.6c0.3,1.3,5.7,4.7,5.7,4.7c12.8,19.9,27.9,20.7,27.9,20.7l0,0
			c2.3,0.9,4.8,1,7.2,0.4c1.8-0.5,3.4-1.2,5-2c4.5-2.5,5.4-0.1,5.4-0.1c4.4-4.5,1.2-10,1.2-10c-6-35-52.2-15.6-52.2-15.6
			C807.9,273.1,817.2,273.3,817.2,273.3z"/>
	</g>
	<g class="st16">
		<path class="st3" d="M822.3,191.9c0.3-3.3,1.4-6.4,3.4-9.1c0,0,0.3,0.3-0.2,1.7s-1.9,6.4-1.9,6.4l2.9-2.3
			c1.4-8.4,5.5-11.3,5.5-11.3c-2.4,3.5-4.2,10.4-4.2,10.4l4.7-3c1.8-9,6.6-11,6.6-11c-2.7,2.5-5.4,10.4-5.4,10.4l5.2-2.3
			c2-7.8,6.9-9,6.9-9c-3.2,2.6-5.6,8.4-5.6,8.4c0.6-0.6,6-1.5,6-1.5c3.1-5.4,7.1-4.1,7.1-4.1c-3.1,0.8-5.4,3.9-5.4,3.9
			c5.4-0.8,10.7,1.7,10.7,1.7c-3.7-1.4-10.6-0.6-10.6-0.6c-0.4,0.9,6.9,5.9,6.9,5.9c-3.9,0.2-8.3-5.5-8.3-5.5
			c-1.5-0.1-6.3,1.8-6.3,1.8c-0.2,2.5,11.4,8.8,11.4,8.8c-6.7-0.3-12.6-8.3-12.6-8.3l-5.1,2.4c2.4,5,12.8,9.4,12.8,9.4
			c-8-0.4-14-8.8-14-8.8l-4.8,3.1c1.7,4.7,11.8,8.5,11.8,8.5c-7-0.1-13-7.7-13-7.7s-3,2.2-3.2,2.4c-0.8,1.1,7.1,5.3,7.1,5.3
			c-4.6-0.2-8-4.6-8-4.6l-5.8,4.9c0.9,0.6,6.1-0.5,6.1-0.5c18.9,4.5,28.4-3.6,28.4-3.6l0,0c1.9-0.8,3.4-2.1,4.5-3.9
			c0.8-1.3,1.4-2.6,1.9-4.1c1.2-4,3.2-3.1,3.2-3.1c0-5.2-4.9-6.6-4.9-6.6c-23.5-17.3-39.9,20.5-39.9,20.5
			C816.6,197.1,822.3,191.9,822.3,191.9z"/>
	</g>
	<g class="st16">
		<path class="st3" d="M882.7,227.6c1-2.5,2.7-4.7,4.9-6.3c0,0,0.2,0.3-0.6,1.3s-3.1,4.6-3.1,4.6l2.9-1.1c3.2-6.3,7.1-7.5,7.1-7.5
			c-2.7,2.2-5.9,7.1-5.9,7.1l4.4-1.2c3.6-6.7,8-7.1,8-7.1c-2.7,1.3-6.8,6.8-6.8,6.8l4.6-0.5c3.5-5.6,7.7-5.4,7.7-5.4
			c-3.2,1.3-6.5,5.2-6.5,5.2c0.7-0.3,5.1,0.3,5.1,0.3c3.8-3.5,6.6-1.5,6.6-1.5c-2.7-0.1-5.2,1.7-5.2,1.7c4.4,0.7,8,4,8,4
			c-2.6-2.1-8.2-3.1-8.2-3.1c-0.5,0.6,4,6.3,4,6.3c-3.1-0.8-5.1-6.4-5.1-6.4c-1.2-0.5-5.4-0.1-5.4-0.1c-0.8,2,6.8,9.7,6.8,9.7
			c-5.2-1.9-7.8-9.7-7.8-9.7l-4.6,0.6c0.6,4.5,7.8,10.6,7.8,10.6c-6.2-2.3-8.9-10.4-8.9-10.4l-4.5,1.3c0.2,4.2,7.2,9.7,7.2,9.7
			c-5.5-1.8-8.3-9.3-8.3-9.3s-2.9,1-3.1,1.1c-0.9,0.7,4.3,6,4.3,6c-3.5-1.3-5.1-5.6-5.1-5.6l-5.8,2.4c0.5,0.7,4.9,1.1,4.9,1.1
			c13.8,8.2,23.3,4.2,23.3,4.2l0,0c1.7-0.1,3.2-0.8,4.5-1.9c0.9-0.8,1.8-1.7,2.5-2.8c2-2.9,3.3-1.7,3.3-1.7c1.3-4.1-2.3-6.4-2.3-6.4
			c-14.2-19.5-36.5,6.2-36.5,6.2C876.9,230.3,882.7,227.6,882.7,227.6z"/>
	</g>
</g>
</svg>
