<?xml version="1.0" encoding="utf-8"?>
<!-- Generator: Adobe Illustrator 21.1.0, SVG Export Plug-In . SVG Version: 6.00 Build 0)  -->
<!DOCTYPE svg PUBLIC "-//W3C//DTD SVG 1.1//EN" "http://www.w3.org/Graphics/SVG/1.1/DTD/svg11.dtd">
<svg version="1.1" id="Calque_1" xmlns="http://www.w3.org/2000/svg" xmlns:xlink="http://www.w3.org/1999/xlink" x="0px" y="0px"
	 viewBox="0 0 91 113.8" style="enable-background:new 0 0 91 113.8;" xml:space="preserve">
   <style type="text/css">
    .bg0{fill:#FFFFFF;}
   </style>
<g>
	<path class="bg0" d="M29.3,21.6c-1.7-1.8-3.3-4.7-6-4.7c-0.7,0-1.2,0.5-1.5,1.1c-1.1,2.7,1.8,5.8,3.4,7.8c0.4,0.5,0.8,1,1.3,1.5
		c-0.9,0-1.8,0-2.7,0c-2.9,0-6.7-0.3-9.1,1.5c-1.1,0.8-1.3,2.4,0,3.2c2.5,1.4,5.7,1,8.5,1.2c1.4,0.1,2.8,0.3,4.2,0.5
		C25.2,36,23.3,38.4,22,41c-1.6,3.4,2.6,7.3,5.5,4.2c3.5-3.8,6.1-8.4,9.6-12.2c1.5-1.6,1-3.8-0.6-5C33.9,26.2,31.5,24,29.3,21.6z"/>
	<path class="bg0" d="M53.5,28.1c-1.7,1.2-2.1,3.4-0.6,5c3.6,3.8,6.1,8.4,9.6,12.2c2.8,3.1,7.1-0.8,5.5-4.2c-1.2-2.6-3.2-5-5.4-7.3
		c1.4-0.2,2.9-0.4,4.2-0.5c2.8-0.2,6,0.2,8.5-1.2c1.3-0.7,1.1-2.4,0-3.2c-2.4-1.8-6.2-1.5-9.1-1.5c-0.9,0-1.8,0-2.7,0
		c0.4-0.5,0.9-1,1.3-1.5c1.6-2,4.5-5.1,3.4-7.8c-0.3-0.6-0.7-1.1-1.5-1.1c-2.7,0-4.2,2.9-6,4.7C58.5,24,56.1,26.2,53.5,28.1z"/>
	<path class="bg0" d="M57.1,63.7c4.2,2.6,6.8,6,9.6,10c2.1,3,6.4,0.5,4.9-2.8C67,61,54.6,55,44.1,55.1c-5.5,0-11.1,1.7-15.8,4.5
		c-3.6,2.2-10.1,6.8-10,11.6c0,1,1,1.4,1.7,1c2.1-0.9,3.3-3.1,5-4.6c1.7-1.6,3.5-3,5.6-4.1c4.1-2.3,8.8-3.6,13.6-3.5
		C48.7,60,53.2,61.4,57.1,63.7z"/>
</g>
</svg>
