<?xml version="1.0" encoding="utf-8"?>
<!-- Generator: Adobe Illustrator 21.1.0, SVG Export Plug-In . SVG Version: 6.00 Build 0)  -->
<!DOCTYPE svg PUBLIC "-//W3C//DTD SVG 1.1//EN" "http://www.w3.org/Graphics/SVG/1.1/DTD/svg11.dtd">
<svg version="1.1" id="Calque_1" xmlns="http://www.w3.org/2000/svg" xmlns:xlink="http://www.w3.org/1999/xlink" x="0px" y="0px"
	 viewBox="0 0 526.3 500" style="enable-background:new 0 0 526.3 500;" xml:space="preserve">
<style type="text/css">
	.st0{fill:#8AC5CC;}
	.st1{fill:#DDE3E9;}
	.st2{fill:#C2DFE2;}
	.st3{fill:#6AA2AD;}
	.st4{fill:#F2F2F2;}
	.st5{fill:#FFFFFF;}
	.st6{fill:#C5CFD7;}
	.st7{fill:#B0B9C5;}
	.st8{fill:#F1F2F2;}
	.st9{fill:#FCDA76;}
	.st10{fill:#EEAF1A;}
	.st11{fill:#D39416;}
	.st12{fill:#E2C88E;}
	.st13{fill:#BC9F6C;}
	.st14{fill:#F39326;}
	.st15{fill:#DE7916;}
	.st16{fill:#B9BC45;}
	.st17{fill:#A3A535;}
	.st18{fill:#BDBEC0;}
	.st19{fill:#4C3A38;}
	.st20{fill:#802F24;}
	.st21{fill:#6BA1AD;}
	.st22{fill:#716F6F;}
	.st23{fill:#F7B089;}
	.st24{fill:#F29D81;}
	.st25{fill:#7F7E7E;}
	.st26{fill:#A46E27;}
	.st27{fill:#ABD8DB;}
	.st28{fill:#89C4CB;}
	.st29{display:none;fill:#C1BEBF;}
	.st30{fill:#E4483F;}
	.st31{fill:#609754;}
	.st32{fill:#BADAAD;}
	.st33{fill:#65B144;}
	.st34{fill:#B59D72;}
	.st35{fill:#A69068;}
	.st36{fill:#CCB690;}
	.st37{fill:#F5B408;}
	.st38{fill:#398333;}
	.st39{fill:#F29C2C;}
	.st40{fill:#65A84A;}
	.st41{fill:#7A554F;}
	.st42{fill:#8EC476;}
	.st43{fill:#F49724;}
	.st44{fill:#E9731A;}
	.st45{fill:#FCC464;}
	.st46{fill:#F4AB43;}
	.st47{fill:#FBCB44;}
	.st48{fill:#FFE168;}
	.st49{fill:#E06F6C;}
	.st50{fill:#E6CE9C;}
	.st51{fill:#F6E7CC;}
	.st52{fill:#EA5827;}
	.st53{font-family:'PaytoneOne-Regular';}
	.st54{font-size:14.8771px;}
	.st55{font-size:7.7089px;}
</style>
<g id="Scene_x2F_Wireframe">
	<path id="Twisted-Leaf" class="st0" d="M519.5,75.8c-0.5-0.4-1.7-0.5-2.2-0.6c-2.3-0.5-4.7-0.6-7-0.6c-7.2,0-14.5,0.7-21.6,1.9
		c-4.5,0.8-9.9,3.4-14.4,2c-7.8-2.5-15.7-2.4-23.1,1.2c-6.8,3.2-11.9,9.4-14.9,16c-0.5,1-2.3,4.7-2.8,7.2c-0.2,0.5-0.4,1-0.6,1.5
		c-0.5,1.5-1,3-1.5,4.5c-0.2,0.6-0.7,2.1-0.1,2.3c-0.9,1.7-1.7,3.5-2.4,5.3c-2,5.3-4.2,11.1-4.9,16.7c-0.3,2.1-0.3,4.2,0,6.3
		c0.1,1,0.1,3.1,0.8,3.9c1.5,1.7,2.2-0.7,2.1-1.8c-1.3-8.4,1.2-16.4,4.1-24.3c1.9-5.1,5-9.8,8.5-14.1c2.8-3.4,5.8-6.2,9.7-8.4
		c4.7-2.8,9.7-5,14.7-7.3c3.3-1.5,6.6-2.9,9.9-4.2c0.8-0.3,1.9-1,2.8-1c1.8,0,4.3,1.3,6,1.8c5.6,1.6,11.3,3.6,17,4.4
		c3.7,0.5,7.2-0.1,10.6-1.3c0.4-0.1,0.9-0.4,1.7-0.9c2.6-1,5-2.2,7.1-4c1.2-1,2.3-2.4,3.3-3.6c0.3-0.4,0.4-0.8,0.4-1.2
		c0.2-0.1,0.4-0.3,0.4-0.4C523.3,75.8,521,75.7,519.5,75.8"/>
	<path id="Fill-16" class="st1" d="M59.2,174.2c-1.4,1.1-2.8,2.3-4.2,3.5c-1,0.9-2.9,2-3.2,3.4c-0.4,1.5,0.8,2.8,1.8,3.7
		c5.1,4.7,10.8,7.8,17.8,8.4c10.8,0.8,20.3-2,29.7-7.4c6.6-3.8,11-9.5,11.9-17.1c7.9,3.3,15.5,7.8,21.9,13.3
		c3.2,2.7,5.9,5.7,8.5,9.1c1.6,2.1,3.2,4.3,4.7,6.6c0.6,1,1.3,2.7,2.3,3.3c1.2,0.7,2.7-0.4,2.7-1.7c-0.1-1.1-1.3-2.5-1.9-3.4
		c-1-1.5-1.9-3.1-2.9-4.6c-1.7-2.4-3.4-4.8-5.2-7.1c-4.2-5.1-9.5-9.3-15-12.9c-10.6-6.9-22.2-11.3-35.1-11.6
		c-7.9-0.2-14.6,2.5-21.4,6.5C67.4,168.7,63,171.1,59.2,174.2"/>
	<path id="Leaf" class="st2" d="M161.9,140.8c-8.3-8.5-16.5-16.9-25.8-24.4c-5.4-4.4-11.2-8.4-16.8-12.6c0.6,0.6,1.3,1.2,1.9,1.7
		c-1.8-1.2-4-1.9-5.9-3c-2.1-1.2-4-2.6-6-4c-3.8-2.8-7.5-5.6-11.4-8.2c-4.3-2.9-8.8-5.6-13.2-8.4c-3.7-2.4-7.5-5-11.5-6.9
		c-2.2-1.1-4.4-2.3-6.6-3.4c-0.7-0.4-8.2-5.1-8.2-5.1c0.4-0.3,4.2,1.5,4.7,1.7c1.7,0.7,3.3,1.5,4.9,2.3c-0.9-1.8-1.6-3.6-2-5.6
		c-0.1-0.6-1.1-5-0.6-5.3c0.2-0.2,2.6,7.7,2.7,8.4c0.1,0.6,0.1,1.5,0.3,2.1c0.3,0.9,0.3,0.7,1,1.2c1.3,1,3,1.6,4.5,2.4
		c0.8,0.4,3.1,2.1,4.5,2.6c4.3,2.1,8.7,5.3,12.7,8c-1.1-2-1.9-4.1-2.5-6.3c-0.1-0.5-1.7-5.2-1.3-5.5c0.4-0.3,3.3,6.9,3.5,7.5
		c0.3,1.3,0.4,2.7,0.8,3.9c0.4,1.3,1.8,1.8,3.1,2.6c4.6,2.9,8.9,6,13.3,9.2c4.7-8.4-0.7-18.5-5.3-25.6c-3.3-5.1-7.8-9.4-12.4-13.2
		C84.2,51.8,77,47.7,69.9,44c-8.3-4.3-17.4-7-26.7-8.2c-4.9-0.6-9.9-0.6-14.9-0.4c-2.4,0.1-4.7,0.4-7.1,1.2c-1,0.4-2.1,0.8-3,1.3
		c-0.7,0.4-2.6,0.8-3,1.4c-3.5,4.6-5.4,9.2-5.1,15c0.3,5.5,2,11,4.3,15.9c2.6,5.4,6,10.4,10.4,14.5c3.4,3.2,7.1,5.9,10.8,8.6
		c13.3,9.7,30.1,18.1,47.3,15.9c5.6-0.7,10.8-2.6,15.8-5.3c1.2-0.6,2.3-1.3,3.4-2c0.7-0.5,2.7-2.7,3.5-2.8c1-0.1,3.2,2,4.2,2.6
		c7.3,4.8,14.4,9.9,21.3,15.2c7.4,5.6,14.4,11.6,21.2,17.9c2.9,2.7,5.8,5.3,8.6,8.1c0.7,0.6,2.3,3,3.4,3.1c0.8,0.1,1.3-0.6,1.2-1.3
		C165.3,143.5,162.8,141.7,161.9,140.8"/>
	<path id="Fill-10" class="st3" d="M510.8,109.9c-3.2-0.7-6.7-0.6-10-0.6c-17.5,0.2-34.6,8.5-45.8,21.7c-9.5,11.2-12.1,25.2-14,39.4
		c-0.2,1.4-0.3,2.8-0.4,4.2c0,0.3-0.1,0.6-0.1,0.8c-0.7,0.7-1.1,1.4-0.7,2.3c-1.6,3.6-3,7.2-4.2,11c-3.5,11.1-7,22.4-4.8,34
		c0.5-6.4,1.6-13,2.9-19.3c0.1-0.4,0.2-0.7,0.2-1.1c0,0,0-0.1,0-0.1c0.5-1.9,1-3.8,1.8-5.6c0,0,0,0,0-0.1c0.1-0.2,0.2-0.5,0.3-0.7
		c0.2-0.5,0.4-1,0.6-1.5c0.1-0.2,0.1-0.3,0.2-0.5c1-2.6,1.5-5.4,2.4-8.1c0.2-0.6,0.5-1.2,0.7-1.8c0,0,0-0.1,0-0.1
		c0.7-1.6,1.4-3.2,2.2-4.8c0.4-0.3,0.6-1.1,1-1.8c0.1-0.1,0.7-1.1,0.8-1.6c0.5-0.9,0.9-1.8,1.4-2.6c0,0,0,0,0,0
		c0.5-0.8,0.9-1.7,1.4-2.5c0.1-0.2,0.2-0.4,0.3-0.6c0.2-0.3,0.3-0.6,0.5-0.9c1.5-2.7,3.2-5.4,4.8-8.1c0.6-0.9,2-2.3,2.3-3.4
		c0,0,0-0.1,0-0.1c3.7-5.1,7.9-9.9,12.9-13.6c-0.6,0.7-1.9,2.9-2.2,3.3c-1,1.4-2.2,2.6-3.3,3.9c-2,2.3-4,4.7-5.8,7.1
		c-3.2,4.6-6,9.4-8.7,14.3c0,0-0.1,0.1-0.1,0.1c-1.3,1.6-2.2,4.1-3.1,6c3.8-1.8,8-2.9,11.9-4.5c3.9-1.6,7.7-3.3,11.3-5.3
		c4.8-2.7,9.9-5.8,14.4-9.2c5.2-3.3,9.7-7.7,13.5-12.4c4.6-5.6,8.8-11.2,11.4-17.9c1.3-3.3,2.3-6.8,2.9-10.3c0-0.2,0.1-0.3,0.1-0.5
		c0.6-1.2,1.2-2.4,1.6-3.7C512.4,112.8,514.1,110.6,510.8,109.9"/>
	<path id="Leave-the-Leaf_x21_" class="st0" d="M94.6,131.3c-1-1.1-2.1-2.1-3.4-2.8c-0.3-0.2-2.8-1.4-3-1.1
		C87.8,128,94.3,131,94.6,131.3 M106.4,124.1c0,0,0.9,1.5,1.1,2c0.5,1,1,1.9,1.4,2.9C108.2,127.2,107.6,125.6,106.4,124.1 M46.1,136
		c-0.8,0.3-1.8-0.8-0.8-1c0.9-0.2,0.8-0.3,1.2-1c0.3-0.6,0.5-1.3,0.8-1.9c0.6-1.3,1.3-2.5,2.1-3.6c1.8-2.4,3.9-4.5,6.3-6.3
		c4.2-3.1,8.9-5.9,13.9-7.3c8-2.2,17-2.4,25-0.8c4.9,1,9.5,2.6,12.7,6.6c1.6,2,2.9,4.3,3.5,6.9c0.1,0.7,0.1,1.4,0.3,2.1
		c0.3,1,0.2,0.7,1.3,0.9c1.3,0.2,2.6,0.4,3.9,0.7c3.4,0.6,6.8,1.2,10,2.1c1.1,0.3,2.1,0.7,3.2,1.1c0.8,0.3,3.9,1.4,4.3,2.4
		c0.6,1.7-1.5,0.9-2.1,0.6c-0.6-0.3-1.2-0.6-1.8-0.9c-1.5-0.7-3.1-1.2-4.7-1.7c-1.7-0.5-3.5-0.8-5.3-1.2c-1.6-0.3-3.3-0.6-4.9-0.9
		c-0.9-0.2-1.8-0.3-2.8-0.5c-0.3-0.1-0.9-0.3-0.8,0.1c-1.9-0.4-4-0.3-6-0.4c-2.4-0.1-4.8-0.2-7.2-0.2c-1.7,0.1-3.5,0.2-5.2,0.4
		c-1,0.1-2,0.3-3,0.6c-0.5,0.1-2.7,0.4-3,0.9c0.1-0.2,2.5,0,2.8,0c1.2,0,2.4-0.2,3.6-0.3c2.2-0.2,4.5-0.4,6.7-0.4
		c0,0.4-1.5,1.1-1.9,1.4c-0.8,0.6-1.6,1.2-2.4,1.9c-1.3,1.2-2.9,2.8-3.8,4.2c0.3-0.4,1.6-1,2.1-1.3c0.8-0.5,1.5-1.1,2.2-1.7
		c0.6-0.6,1.2-1.2,1.8-1.8c0.6-0.6,1.4-1.9,2.2-2.3c0,0,0.4,0.2,0.6,0.2c0.2-0.1,0.4-0.6,0.5-0.6c0.7-0.3,2.1,0.1,2.9,0.1
		c2,0.1,3.9,0.2,5.9,0.3c0.6,0,1.1-0.1,1.4,0.3c0.2,0.5-0.2,1.7-0.3,2.3c-0.5,1.9-1.3,3.7-2.7,5.2c-2.5,2.8-5.6,4.7-9,6
		c-13.3,4.8-27.4,6.8-40.7,1.7C53.4,147,45.1,143.3,46.1,136"/>
	<g id="Web" transform="translate(270.000000, 127.000000)">
		<path id="Container_4_" class="st4" d="M-136.8-123.1h299c4.1,0,7.5,3.4,7.5,7.5v309.3c0,4.1-3.4,7.5-7.5,7.5h-299
			c-4.1,0-7.5-3.4-7.5-7.5v-309.3C-144.3-119.7-141-123.1-136.8-123.1z"/>
		<path id="Background_8_" class="st5" d="M96.5-82.8h50.6c4.1,0,7.5,3.4,7.5,7.5v60.9c0,4.1-3.4,7.5-7.5,7.5H96.5
			c-4.1,0-7.5-3.4-7.5-7.5v-60.9C89-79.4,92.4-82.8,96.5-82.8z"/>
		<g id="Profile-Info" transform="translate(259.000000, 58.000000)">
			<circle id="Avatar_6_" class="st1" cx="-137.2" cy="-111.7" r="15"/>
			<path id="Name_12_" class="st1" d="M-157.8-93h41.2c1.6,0,2.8,1.3,2.8,2.8l0,0c0,1.6-1.3,2.8-2.8,2.8h-41.2
				c-1.6,0-2.8-1.3-2.8-2.8l0,0C-160.6-91.7-159.3-93-157.8-93z"/>
			<path id="Name_13_" class="st1" d="M-150.3-83.6h26.2c1.6,0,2.8,1.3,2.8,2.8l0,0c0,1.6-1.3,2.8-2.8,2.8h-26.2
				c-1.6,0-2.8-1.3-2.8-2.8l0,0C-153.1-82.3-151.8-83.6-150.3-83.6z"/>
		</g>
		<path id="Header" class="st6" d="M-136.8-123.1h299c4.1,0,7.5,3.4,7.5,7.5v17.8h-314v-17.8C-144.3-119.7-141-123.1-136.8-123.1z"
			/>
		<g id="Buttons" transform="translate(9.000000, 10.000000)">
			<circle id="buttons" class="st4" cx="-141.1" cy="-120" r="3.7"/>
			<circle id="buttons_1_" class="st4" cx="-129.9" cy="-120" r="3.7"/>
			<circle id="buttons_2_" class="st4" cx="-118.6" cy="-120" r="3.7"/>
		</g>
		<g id="Components" transform="translate(249.000000, 132.000000)">
			<path id="Background_9_" class="st5" d="M-152.5-131.4h50.6c4.1,0,7.5,3.4,7.5,7.5V43c0,4.1-3.4,7.5-7.5,7.5h-50.6
				c-4.1,0-7.5-3.4-7.5-7.5v-166.8C-160-128-156.6-131.4-152.5-131.4z"/>
			<g id="Rows_2_" transform="translate(18.000000, 18.000000)">
				<path id="Data" class="st1" d="M-157.3-132.5h24.4c2.1,0,3.7,1.7,3.7,3.7v16.9c0,2.1-1.7,3.7-3.7,3.7h-24.4
					c-2.1,0-3.7-1.7-3.7-3.7v-16.9C-161.1-130.8-159.4-132.5-157.3-132.5z"/>
				<path id="Data_1_" class="st7" d="M-157.3-100.6h24.4c2.1,0,3.7,1.7,3.7,3.7V-81c0,2.1-1.7,3.7-3.7,3.7h-24.4
					c-2.1,0-3.7-1.7-3.7-3.7v-15.9C-161.1-99-159.4-100.6-157.3-100.6z"/>
				<path id="Data_2_" class="st1" d="M-157.3-69.7h24.4c2.1,0,3.7,1.7,3.7,3.7V-50c0,2.1-1.7,3.7-3.7,3.7h-24.4
					c-2.1,0-3.7-1.7-3.7-3.7V-66C-161.1-68-159.4-69.7-157.3-69.7z"/>
				<path id="Data_3_" class="st1" d="M-157.3-7.9h24.4c2.1,0,3.7,1.7,3.7,3.7v15.9c0,2.1-1.7,3.7-3.7,3.7h-24.4
					c-2.1,0-3.7-1.7-3.7-3.7V-4.1C-161.1-6.2-159.4-7.9-157.3-7.9z"/>
				<path id="Data_4_" class="st6" d="M-157.3-38.8h24.4c2.1,0,3.7,1.7,3.7,3.7v15.9c0,2.1-1.7,3.7-3.7,3.7h-24.4
					c-2.1,0-3.7-1.7-3.7-3.7V-35C-161.1-37.1-159.4-38.8-157.3-38.8z"/>
			</g>
		</g>
		<g id="Rows_3_" transform="translate(16.000000, 44.000000)">
			<g id="Row_8_">
				<path id="Container_5_" class="st5" d="M-141.6-125.8H61.8c2.1,0,3.7,1.7,3.7,3.7v36.5c0,2.1-1.7,3.7-3.7,3.7h-203.4
					c-2.1,0-3.7-1.7-3.7-3.7v-36.5C-145.3-124.2-143.6-125.8-141.6-125.8z"/>
				<g id="Text-Stuff_2_" transform="translate(9.000000, 14.100000)">
					<path id="Label_4_" class="st1" d="M-143.1-126.7H7.8c1.6,0,2.8,1.3,2.8,2.8v1c0,1.6-1.3,2.8-2.8,2.8h-150.9
						c-1.6,0-2.8-1.3-2.8-2.8v-1C-145.9-125.5-144.6-126.7-143.1-126.7z"/>
					<path id="Label_5_" class="st1" d="M-143.1-115.7h99.4c1.6,0,2.8,1.3,2.8,2.8v1c0,1.6-1.3,2.8-2.8,2.8h-99.4
						c-1.6,0-2.8-1.3-2.8-2.8v-1C-145.9-114.5-144.6-115.7-143.1-115.7z"/>
				</g>
				<g id="Check_2_" transform="translate(193.954198, 16.500000)">
					<circle id="Background_10_" class="st1" cx="-150.9" cy="-120.3" r="6.6"/>
					<circle id="Indicator_2_" class="st4" cx="-150.9" cy="-120.3" r="2.8"/>
				</g>
			</g>
			<g id="Row_9_" transform="translate(0.000000, 55.000000)">
				<path id="Container_6_" class="st5" d="M-141.6-129.3H61.8c2.1,0,3.7,1.7,3.7,3.7v29.1c0,2.1-1.7,3.7-3.7,3.7h-203.4
					c-2.1,0-3.7-1.7-3.7-3.7v-29.1C-145.3-127.6-143.6-129.3-141.6-129.3z"/>
				<g id="Text-Stuff_3_" transform="translate(9.000000, 11.700000)">
					<path id="Label_6_" class="st1" d="M-143.1-130h151c1.5,0,2.7,1.2,2.7,2.7l0,0c0,1.5-1.2,2.7-2.7,2.7h-151
						c-1.5,0-2.7-1.2-2.7-2.7l0,0C-145.9-128.8-144.7-130-143.1-130z"/>
					<path id="Label_7_" class="st1" d="M-143.1-120.9h99.6c1.5,0,2.7,1.2,2.7,2.7l0,0c0,1.5-1.2,2.7-2.7,2.7h-99.6
						c-1.5,0-2.7-1.2-2.7-2.7l0,0C-145.9-119.7-144.7-120.9-143.1-120.9z"/>
				</g>
				<g id="Check_3_" transform="translate(193.954198, 12.500000)">
					<circle id="Background_11_" class="st1" cx="-150.9" cy="-123.5" r="6.6"/>
					<circle id="Indicator_3_" class="st4" cx="-150.9" cy="-123.5" r="2.8"/>
				</g>
			</g>
			<g id="Row_10_" transform="translate(0.000000, 102.000000)">
				<path id="Container_7_" class="st5" d="M-141.6-132.2H61.8c2.1,0,3.7,1.7,3.7,3.7v29.1c0,2.1-1.7,3.7-3.7,3.7h-203.4
					c-2.1,0-3.7-1.7-3.7-3.7v-29.1C-145.3-130.6-143.6-132.2-141.6-132.2z"/>
				<g id="Text-Stuff_4_" transform="translate(9.000000, 11.700000)">
					<path id="Label_8_" class="st1" d="M-143.1-133h151c1.5,0,2.7,1.2,2.7,2.7l0,0c0,1.5-1.2,2.7-2.7,2.7h-151
						c-1.5,0-2.7-1.2-2.7-2.7l0,0C-145.9-131.8-144.7-133-143.1-133z"/>
					<path id="Label_9_" class="st1" d="M-143.1-123.8h99.6c1.5,0,2.7,1.2,2.7,2.7l0,0c0,1.5-1.2,2.7-2.7,2.7h-99.6
						c-1.5,0-2.7-1.2-2.7-2.7l0,0C-145.9-122.6-144.7-123.8-143.1-123.8z"/>
				</g>
				<g id="Check_4_" transform="translate(193.954198, 12.500000)">
					<circle id="Background_12_" class="st1" cx="-150.9" cy="-126.5" r="6.6"/>
					<circle id="Indicator_4_" class="st7" cx="-150.9" cy="-126.5" r="2.8"/>
				</g>
			</g>
			<g id="Row_11_" transform="translate(0.000000, 243.000000)">
				<path id="Container_8_" class="st5" d="M-141.6-141.1H61.8c2.1,0,3.7,1.7,3.7,3.7v29.1c0,2.1-1.7,3.7-3.7,3.7h-203.4
					c-2.1,0-3.7-1.7-3.7-3.7v-29.1C-145.3-139.4-143.6-141.1-141.6-141.1z"/>
				<g id="Text-Stuff_5_" transform="translate(9.000000, 11.700000)">
					<path id="Label_10_" class="st1" d="M-143.1-141.8h151c1.5,0,2.7,1.2,2.7,2.7l0,0c0,1.5-1.2,2.7-2.7,2.7h-151
						c-1.5,0-2.7-1.2-2.7-2.7l0,0C-145.9-140.6-144.7-141.8-143.1-141.8z"/>
					<path id="Label_11_" class="st1" d="M-143.1-132.7h99.6c1.5,0,2.7,1.2,2.7,2.7l0,0c0,1.5-1.2,2.7-2.7,2.7h-99.6
						c-1.5,0-2.7-1.2-2.7-2.7l0,0C-145.9-131.5-144.7-132.7-143.1-132.7z"/>
				</g>
				<g id="Check_5_" transform="translate(193.954198, 12.500000)">
					<circle id="Background_13_" class="st1" cx="-150.9" cy="-135.3" r="6.6"/>
					<circle id="Indicator_5_" class="st4" cx="-150.9" cy="-135.3" r="2.8"/>
				</g>
			</g>
			<g id="Row_12_" transform="translate(0.000000, 196.000000)">
				<path id="Container_9_" class="st5" d="M-141.6-138.1H61.8c2.1,0,3.7,1.7,3.7,3.7v29.1c0,2.1-1.7,3.7-3.7,3.7h-203.4
					c-2.1,0-3.7-1.7-3.7-3.7v-29.1C-145.3-136.5-143.6-138.1-141.6-138.1z"/>
				<g id="Text-Stuff_6_" transform="translate(9.000000, 11.700000)">
					<path id="Label_12_" class="st1" d="M-143.1-138.9h151c1.5,0,2.7,1.2,2.7,2.7l0,0c0,1.5-1.2,2.7-2.7,2.7h-151
						c-1.5,0-2.7-1.2-2.7-2.7l0,0C-145.9-137.7-144.7-138.9-143.1-138.9z"/>
					<path id="Label_13_" class="st1" d="M-143.1-129.7h99.6c1.5,0,2.7,1.2,2.7,2.7l0,0c0,1.5-1.2,2.7-2.7,2.7h-99.6
						c-1.5,0-2.7-1.2-2.7-2.7l0,0C-145.9-128.5-144.7-129.7-143.1-129.7z"/>
				</g>
				<g id="Check_6_" transform="translate(193.954198, 12.500000)">
					<circle id="Background_14_" class="st1" cx="-150.9" cy="-132.4" r="6.6"/>
					<circle id="Indicator_6_" class="st4" cx="-150.9" cy="-132.4" r="2.8"/>
				</g>
			</g>
			<g id="Row_13_" transform="translate(0.000000, 149.000000)">
				<path id="Container_10_" class="st5" d="M-141.6-135.2H61.8c2.1,0,3.7,1.7,3.7,3.7v29.1c0,2.1-1.7,3.7-3.7,3.7h-203.4
					c-2.1,0-3.7-1.7-3.7-3.7v-29.1C-145.3-133.5-143.6-135.2-141.6-135.2z"/>
				<g id="Text-Stuff_7_" transform="translate(9.000000, 11.700000)">
					<path id="Label_14_" class="st1" d="M-143.1-135.9h151c1.5,0,2.7,1.2,2.7,2.7l0,0c0,1.5-1.2,2.7-2.7,2.7h-151
						c-1.5,0-2.7-1.2-2.7-2.7l0,0C-145.9-134.7-144.7-135.9-143.1-135.9z"/>
					<path id="Label_15_" class="st1" d="M-143.1-126.8h99.6c1.5,0,2.7,1.2,2.7,2.7l0,0c0,1.5-1.2,2.7-2.7,2.7h-99.6
						c-1.5,0-2.7-1.2-2.7-2.7l0,0C-145.9-125.6-144.7-126.8-143.1-126.8z"/>
				</g>
				<g id="Check_7_" transform="translate(193.954198, 12.500000)">
					<circle id="Background_15_" class="st1" cx="-150.9" cy="-129.4" r="6.6"/>
					<circle id="Indicator_7_" class="st4" cx="-150.9" cy="-129.4" r="2.8"/>
				</g>
			</g>
		</g>
	</g>
	<path id="Fill-1" class="st2" d="M517.4,171.4c-3.7-2.5-8.6-3.2-13-3.2c-17.3,0-33.5,6.4-47.5,16c-7.7,5.2-14.6,11.9-20.6,18.8
		c-3.5,4-6.6,8.3-8.8,13.2c-1.5,3.3-2.5,6.6-3.2,10.1c-0.8,4.3-1.5,8.6-1.8,12.9c-0.1,1.7-1.1,10.8,1.7,10.9c0,0.2,0,0.4,0,0.6
		c-6.2,9.6-10,20.9-13.5,31.6c-3.1,9.3-5.8,18.7-7.6,28.3c-2.3,12.7-3.9,25.5-4.6,38.4c-0.2,2.8-0.3,5.5-0.4,8.3
		c-0.1,2.4-0.2,4.7-0.2,7.1c-0.1,2.6-0.6,5.7-0.1,8.3c0.4,2.3,2.3,1.9,2.4-0.3c0.1-2.8,0.1-5.5,0.2-8.3c0.2-3.7,0.3-7.3,0.5-11
		c1.2-25.4,5.9-50.4,14.5-74.4c3.5-9.7,7.5-18.9,12.6-27.9c4.5-7.9,10-15.5,15.5-22.7c5.4-6.9,11-13.7,17.6-19.5
		c5.4-4.8,11.3-8.9,17.3-12.8c7.7-4.9,15.4-9.7,23.8-13.4c4.3-2,8.8-3.7,13.1-5.6c0.8-0.3,1.6-0.7,2.4-1.1
		C520.3,174.8,519.4,172.8,517.4,171.4"/>
	<path id="Fill-20" class="st0" d="M447.9,260.1c7,0,13.2,0.9,19.7,3.7c5.6,2.4,10.7,5.6,15.6,9c6.9,4.9,12.4,10.5,16.2,18.1
		c2.3,4.5,4,10.8,2.4,15.7c-1.8,5.8-6.8,10.6-13.3,9.6c-4-0.6-7.7-3.3-10.8-5.8c-3.7-3-6.6-6.6-9-10.7c-4-6.6-6.3-14-9.7-20.8
		c-1.6-3.3-3.1-6.5-5.1-9.6c-0.9-1.5-2-3-3.4-4.2c-0.8-0.6-4-1.7-2.8-3c-18.2,0.2-34.3,14.2-37.8,31.5c-0.3,1.6-0.6,3.2-0.8,4.9
		c-0.2,1-0.1,4.8-1,5.4c-2,1.4-1.2-2.9-1.1-3.6c0.2-1.6,0.5-3.3,0.7-4.9c1.4-8.8,5.3-17.1,11.9-23.4
		C427.2,264.8,437.3,260.1,447.9,260.1"/>
</g>
<g>
	<ellipse class="st8" cx="298.5" cy="481.2" rx="109.2" ry="16.9"/>
	<ellipse class="st8" cx="167.6" cy="428.2" rx="109.2" ry="16.9"/>
	<g>
		<polygon class="st9" points="297.9,438.3 246.5,440.9 247.3,480 295.9,476.6 		"/>
		<polygon class="st10" points="246.5,440.9 206.8,440.9 212.1,476.9 247.3,480 		"/>
		<polygon class="st11" points="297.9,438.3 292.3,438.6 288.5,438.8 287.6,438.8 278.9,439.3 276.9,439.4 275.4,439.5 272.4,439.6 
			272.4,439.6 271.4,439.7 264,440 262.9,440.1 256.4,440.4 254.4,440.5 251.1,440.7 246.5,440.9 206.8,440.9 218.7,440.2 
			234.8,439.2 236.4,439.1 237.6,439 243.3,438.6 247.3,438.4 249.4,438.3 251.8,438.1 251.8,438.1 252.5,438.1 258.6,437.7 
			260.5,437.6 262.9,437.4 266.7,437.2 266.9,437.1 270.9,436.9 271.2,436.9 274.3,437.1 275.3,437.1 275.4,437.1 277.6,437.2 
			288.2,437.8 288.9,437.8 292.2,438 		"/>
		<g>
			<path class="st12" d="M292.3,438.6l-3.9,0.2l-0.8,0l-8.7,0.4l-2,0.1l-1.5,0.1c-0.2-0.5-0.5-1-0.7-1.6c0-0.1-0.1-0.1-0.1-0.2
				c-0.1-0.2-0.2-0.4-0.3-0.6c0,0,0,0,0-0.1c-0.2-0.4-0.4-0.8-0.6-1.3c-0.2-0.4-0.3-0.9-0.3-1.3c0-0.2,0-0.5,0-0.8
				c0.1-0.7,0.4-1.3,0.9-1.7c0.6-0.5,1.5-0.8,2.5-1.1c1.7-0.5,3.8-0.6,5.1-0.5c1.2,0.1,2.2,0.4,3,1c0.4,0.3,0.8,0.5,1.1,0.9
				c1.3,1.2,2.5,1.4,4,2.3c1.2,0.7,1.8,2,2.2,3.4C292.3,438.2,292.3,438.4,292.3,438.6z"/>
			<path class="st13" d="M278.9,439.3l-2,0.1l-1.5,0.1c-0.2-0.5-0.5-1-0.7-1.6c0-0.1-0.1-0.1-0.1-0.2c-0.1-0.2-0.2-0.4-0.3-0.6
				c0,0,0,0,0-0.1c-0.2-0.4-0.4-0.8-0.6-1.3c-0.2-0.4-0.3-0.9-0.3-1.3c0-0.2,0-0.5,0-0.8c1.1,0.5,2.4,1.1,3.2,1.8
				c0.4,0.4,0.7,0.7,0.9,1.1c0.1,0.2,0.1,0.4,0.2,0.6c0.1,0.3,0.1,0.6,0.3,0.9C278.1,438.7,278.5,439,278.9,439.3z"/>
			<path class="st13" d="M288.9,437.8c-0.1,0.1-0.1,0.2-0.3,0.2c-0.1,0-0.1,0.1-0.2,0.1c0,0.1,0,0.1,0,0.2c0,0.1,0,0.3,0,0.4l-0.8,0
				c0,0,0,0,0-0.1c0-0.4,0.3-0.7,0.5-1c0.1-0.1,0.1-0.1,0.2-0.2C288.9,437.2,289.1,437.5,288.9,437.8z"/>
			<path class="st13" d="M284.8,434.1c0,0.3,0.1,0.5,0.1,0.8c-0.1,0.1-0.3,0.1-0.4,0.2c-0.2,0-0.4,0.1-0.5,0
				c-0.2-0.1-0.3-0.3-0.2-0.4c0.1-0.3,0.5-0.2,0.8-0.4c0.1-0.1,0.1-0.1,0.1-0.2S284.8,434.1,284.8,434.1L284.8,434.1z"/>
			<path class="st13" d="M282.5,437.8c0,0.2,0,0.3,0.1,0.5c0,0.2,0,0.3-0.1,0.4c-0.1,0.1-0.2,0.1-0.3,0.1c-0.1,0-0.3,0-0.4,0
				c-0.1,0-0.3-0.1-0.3-0.3c0-0.2,0.2-0.4,0.3-0.5c0.2-0.1,0.4-0.1,0.5-0.3L282.5,437.8z"/>
			<path class="st13" d="M279.2,432.7c0,0.3,0.1,0.5,0.1,0.8c0,0.1,0,0.1,0,0.2c0,0.2-0.3,0.3-0.5,0.2c-0.2-0.1-0.2-0.4-0.2-0.6
				c0-0.2,0.2-0.4,0.3-0.6c0.1-0.1,0.1-0.2,0.2-0.2C279.2,432.6,279.2,432.6,279.2,432.7L279.2,432.7z"/>
		</g>
		<g>
			<path class="st12" d="M276.9,439.4l-1.5,0.1l-3,0.2c0,0,0,0-0.1,0c0,0,0,0,0,0l-0.9,0L264,440l-1.1,0.1l-6.5,0.3
				c0-0.1,0.1-0.2,0.1-0.3c0.4-0.8,1.2-1.7,2.1-2.5c0.3-0.3,0.6-0.5,1-0.8c0.8-0.6,1.6-1.1,2.3-1.5c0.1-0.1,0.2-0.1,0.3-0.2
				c0.1,0,0.2-0.1,0.3-0.1c1.1-0.5,2.1-0.6,3.2-0.5c0.5,0,0.9,0.1,1.4,0.3c1.7,0.4,2.9,0.1,4.7,0.2c0.7,0.1,1.4,0.3,2,0.7
				c0.6,0.4,1.1,0.8,1.6,1.4c0,0,0,0,0.1,0.1c0.5,0.6,1,1.3,1.5,2C276.9,439.2,276.9,439.3,276.9,439.4z"/>
			<path class="st13" d="M272.4,439.6l-0.9,0c-0.1-0.4,0.1-0.7,0.2-1.1c0.3-0.8,0.8-0.3,0.5,0.3c0,0.1-0.1,0.1-0.1,0.2
				c0,0.1,0,0.1,0.1,0.2C272.2,439.3,272.3,439.5,272.4,439.6z"/>
			<path class="st13" d="M266.9,437.1c0.1,0.2,0.3,0.4,0.4,0.7c-0.1,0.1-0.2,0.3-0.3,0.4c-0.1,0.1-0.3,0.2-0.5,0.2
				c-0.2,0-0.4-0.1-0.4-0.3c0-0.3,0.4-0.4,0.5-0.7c0-0.1,0-0.1,0.1-0.2C266.7,437.1,266.8,437.1,266.9,437.1L266.9,437.1z"/>
			<path class="st13" d="M261.3,438.4c0.2,0.2,0.3,0.4,0.5,0.7c0,0,0.1,0.1,0.1,0.1c0.1,0.2-0.1,0.4-0.4,0.4c-0.2,0-0.4-0.2-0.4-0.4
				s0-0.4,0-0.6c0-0.1,0-0.2,0.1-0.3C261.2,438.4,261.2,438.4,261.3,438.4L261.3,438.4z"/>
		</g>
		<g>
			<path class="st12" d="M277.2,434.3c-0.2,0.4-0.4,0.8-0.6,1.1c-0.3,0.6-0.7,1.1-1.2,1.7c0,0,0,0-0.1,0.1c-0.1,0.1-0.2,0.2-0.3,0.4
				c-0.1,0.1-0.2,0.2-0.3,0.3c-0.7,0.7-1.4,1.2-2.2,1.7l-0.1,0l-0.9,0L264,440c-0.3-0.2-0.6-0.3-0.8-0.5c-0.5-0.4-1-0.7-1.6-1.1
				c-0.4-0.3-0.7-0.6-1.1-0.8c-0.3-0.2-0.6-0.4-0.9-0.7c-0.2-0.2-0.5-0.4-0.7-0.6c-0.2-0.1-0.4-0.3-0.6-0.4
				c-0.1-0.1-0.3-0.2-0.4-0.3c-0.4-0.3-0.7-0.7-1-1.1c-0.1-0.2-0.3-0.4-0.3-0.7c-0.2-0.6-0.3-1.2-0.1-1.8c0,0,0-0.1,0.1-0.1
				c0.9-1.9,4.1-4.1,6-5c1.1-0.5,2.1-0.6,3.2-0.5c0.5,0,0.9,0.1,1.4,0.3c1.7,0.5,2.9,0.1,4.7,0.2c2.2,0.2,3.8,2.2,5.1,4.1
				c0,0,0,0,0,0c0.3,0.5,0.7,1,0.8,1.6C277.7,433.2,277.4,433.8,277.2,434.3z"/>
			<path class="st13" d="M275,437.6c-0.1,0.1-0.2,0.2-0.3,0.3c-0.7,0.7-1.4,1.2-2.2,1.7l-0.1,0l-0.9,0L264,440
				c-0.3-0.2-0.6-0.3-0.8-0.5c-0.5-0.4-1-0.7-1.6-1.1c-0.4-0.3-0.7-0.6-1.1-0.8c-0.3-0.2-0.6-0.4-0.9-0.7c-0.2-0.2-0.5-0.4-0.7-0.6
				c-0.2-0.1-0.4-0.3-0.6-0.4c-0.1-0.1-0.3-0.2-0.4-0.3c-0.4-0.3-0.7-0.7-1-1.1c-0.1-0.2-0.3-0.4-0.3-0.7c1.6-0.1,3.5-0.2,4.5,0.4
				c0.2,0.1,0.3,0.2,0.4,0.3c0.3,0.2,0.5,0.5,0.7,0.8c0.1,0.1,0.3,0.3,0.4,0.4c0.9,0.7,2.1,0.5,3.2,0.3c1.1-0.3,2.2-0.6,3.2-0.3
				c0.8,0.2,1.5,0.8,2.2,1.3c0.1,0.1,0.3,0.2,0.4,0.3c0.9,0.6,1.7,0.7,2.7,0.5c0,0,0.1,0,0.2,0c0,0,0,0,0,0
				C274.7,437.7,274.8,437.6,275,437.6z"/>
			<path class="st13" d="M272.1,430.6c0,0.1-0.1,0.1-0.1,0.2c0,0.1,0,0.1,0.1,0.2c0.2,0.4,0.5,0.7,0.7,1c-0.4,0.3-1.1,0.2-1.3-0.3
				c-0.2-0.4-0.1-0.9,0.1-1.3C271.9,429.5,272.5,430,272.1,430.6z"/>
			<path class="st13" d="M266.9,428.9c0.1,0.2,0.3,0.4,0.4,0.7c-0.1,0.1-0.2,0.3-0.3,0.4c-0.1,0.1-0.3,0.2-0.5,0.2
				c-0.2,0-0.4-0.1-0.4-0.3c0-0.3,0.4-0.4,0.5-0.7c0-0.1,0-0.1,0.1-0.2C266.7,428.9,266.8,428.8,266.9,428.9L266.9,428.9z"/>
			<path class="st13" d="M266.6,433.2c0.1,0.2,0.2,0.3,0.3,0.4c0.1,0.1,0.2,0.3,0.1,0.4c0,0.1-0.1,0.2-0.2,0.2
				c-0.1,0.1-0.2,0.2-0.4,0.2c-0.1,0-0.3,0-0.4-0.1c-0.1-0.2,0-0.4,0.1-0.6c0.1-0.2,0.3-0.3,0.3-0.5L266.6,433.2z"/>
			<path class="st13" d="M261.3,430.2c0.2,0.2,0.3,0.4,0.5,0.7c0,0,0.1,0.1,0.1,0.1c0.1,0.2-0.1,0.4-0.4,0.4c-0.2,0-0.4-0.2-0.4-0.4
				s0-0.4,0-0.6c0-0.1,0-0.2,0.1-0.3C261.2,430.1,261.2,430.2,261.3,430.2L261.3,430.2z"/>
		</g>
		<g>
			<path class="st12" d="M251.1,440.7l-4.6,0.2H235c0-0.3-0.1-0.7-0.1-1c0-0.3-0.1-0.5-0.1-0.8c-0.1-0.9-0.2-1.7-0.3-2.6
				c-0.1-0.9-0.2-1.8,0-2.7c0,0,0-0.1,0-0.1c0.1-0.2,0.1-0.4,0.2-0.6c0.3-0.6,0.8-1.1,1.4-1.3c2-0.7,5.8,0.1,7.7,0.8
				c0.3,0.1,0.6,0.3,0.8,0.4c0.7,0.4,1.3,0.9,1.8,1.5c0.3,0.4,0.5,0.8,0.8,1.2c0.6,1.1,1.4,1.7,2.2,2.5c0.3,0.3,0.6,0.6,0.9,1
				c0.3,0.4,0.5,0.7,0.7,1.2C251,440.5,251,440.6,251.1,440.7z"/>
			<path class="st13" d="M239.1,440.9h-4c0-0.3-0.1-0.7-0.1-1c0-0.3-0.1-0.5-0.1-0.8c-0.1-0.9-0.2-1.7-0.3-2.6
				c-0.1-0.9-0.2-1.8,0-2.7c0,0,0-0.1,0-0.1c0.1-0.2,0.1-0.4,0.2-0.6c1.4,1.3,2.9,2.8,3,4c0,0.6-0.1,1.1-0.1,1.7c0,0.1,0,0.1,0,0.2
				C237.8,439.8,238.4,440.4,239.1,440.9z"/>
			<path class="st13" d="M245.4,437.1c-0.1,0.3-0.1,0.5-0.2,0.8c-0.1,0.1-0.3,0.1-0.5,0c-0.2,0-0.4-0.1-0.5-0.2
				c-0.1-0.1-0.2-0.3-0.1-0.5c0.2-0.2,0.6,0,0.8-0.1c0.1,0,0.1-0.1,0.2-0.1C245.3,437,245.4,437,245.4,437.1L245.4,437.1z"/>
			<path class="st13" d="M242.1,439.9c-0.1,0.1-0.1,0.3-0.1,0.5c0,0.2-0.1,0.3-0.2,0.4c-0.1,0-0.2,0-0.3,0c-0.1,0-0.3-0.1-0.4-0.1
				c-0.1-0.1-0.2-0.2-0.2-0.4c0-0.2,0.3-0.3,0.5-0.3c0.2,0,0.4,0,0.6-0.1L242.1,439.9z"/>
			<path class="st13" d="M240.6,434c0,0.3-0.1,0.5-0.1,0.8c0,0.1,0,0.1,0,0.2c-0.1,0.2-0.4,0.2-0.5,0c-0.1-0.2-0.1-0.4,0-0.6
				c0.1-0.2,0.3-0.3,0.4-0.4c0.1-0.1,0.2-0.1,0.3-0.1C240.6,433.9,240.6,433.9,240.6,434L240.6,434z"/>
		</g>
		<g>
			<path class="st12" d="M263.3,438.9c0,0.2-0.1,0.4-0.1,0.6c-0.1,0.2-0.2,0.4-0.3,0.6l-6.5,0.3l-2.1,0.1l-3.3,0.2l-4.6,0.2h-1
				c-0.4-0.4-0.8-0.9-1.3-1.3c-0.3-0.3-0.6-0.6-0.9-1c-0.3-0.4-0.6-0.8-0.8-1.2c-0.1-0.2-0.2-0.5-0.2-0.7c-0.1-0.7-0.1-1.3,0.3-1.9
				c0.4-0.6,1.2-1.2,2-1.8c1.5-1,3.4-1.8,4.7-2.1c1.1-0.3,2.2-0.3,3.2,0c0.4,0.1,0.9,0.3,1.3,0.5c0.9,0.4,1.8,0.5,2.6,0.6
				c0.6,0.1,1.2,0.1,1.9,0.3c1.1,0.3,2,1,2.7,1.9c0.3,0.4,0.6,0.8,0.8,1.3c0.3,0.6,0.6,1.2,0.9,1.7c0,0.1,0.1,0.2,0.1,0.2
				C263.1,437.9,263.3,438.4,263.3,438.9z"/>
			<path class="st13" d="M254.4,440.5l-3.3,0.2l-4.6,0.2h-1c-0.4-0.4-0.8-0.9-1.3-1.3c-0.3-0.3-0.6-0.6-0.9-1
				c-0.3-0.4-0.6-0.8-0.8-1.2c-0.1-0.2-0.2-0.5-0.2-0.7c0.9,0.1,1.9,0.2,2.7,0.4c0.1,0,0.2,0.1,0.4,0.1h0c0.8,0.2,1.4,0.5,1.7,1
				c0.1,0.1,0.1,0.1,0.1,0.2c0.3,0.4,0.5,0.8,0.8,1.2c0.7,0.7,1.8,0.9,2.9,0.8c0.1,0,0.1,0,0.2,0
				C252.2,440.3,253.4,440.1,254.4,440.5z"/>
			<path class="st13" d="M258.2,436c0,0.1-0.1,0.1-0.1,0.2c0,0.1,0,0.1,0,0.2c0.2,0.4,0.4,0.8,0.6,1.1c-0.4,0.2-1.1,0-1.2-0.5
				c-0.1-0.4,0.1-0.9,0.3-1.3C258.2,435,258.6,435.5,258.2,436z"/>
			<path class="st13" d="M253.3,433.5c0.1,0.2,0.2,0.5,0.3,0.7c-0.1,0.1-0.2,0.2-0.4,0.3c-0.2,0.1-0.3,0.2-0.5,0.2
				c-0.2,0-0.4-0.2-0.3-0.3c0-0.3,0.5-0.3,0.6-0.6c0-0.1,0-0.1,0.1-0.2C253.1,433.5,253.2,433.5,253.3,433.5L253.3,433.5z"/>
			<path class="st13" d="M252.3,437.7c0,0.2,0.1,0.3,0.2,0.4c0.1,0.1,0.1,0.3,0,0.5c-0.1,0.1-0.1,0.1-0.2,0.2
				c-0.1,0.1-0.3,0.1-0.4,0.1c-0.1,0-0.3-0.1-0.4-0.2c-0.1-0.2,0-0.4,0.2-0.5c0.2-0.1,0.3-0.3,0.4-0.5L252.3,437.7z"/>
			<path class="st13" d="M247.6,433.9c0.1,0.2,0.3,0.5,0.4,0.7c0,0,0.1,0.1,0.1,0.2c0,0.2-0.2,0.4-0.4,0.3c-0.2-0.1-0.3-0.3-0.4-0.5
				c0-0.2,0-0.4,0.1-0.6c0-0.1,0.1-0.2,0.2-0.2C247.5,433.8,247.5,433.9,247.6,433.9L247.6,433.9z"/>
		</g>
		<g>
			<path class="st12" d="M236.4,439.1c0,0.4-0.1,0.8-0.2,1.2c0,0.2-0.1,0.4-0.2,0.7h-17.7c0.1-0.3,0.2-0.5,0.3-0.8
				c0.4-1,0.9-1.8,1.3-2.5c0.7-1,1.5-1.6,2.4-2.1c0.4-0.2,0.9-0.4,1.3-0.5c1.7-0.5,2.5-1.5,4.1-2.3c2-1,4.4-0.1,6.5,0.8
				c0.1,0,0.1,0.1,0.2,0.1c0.5,0.2,1,0.5,1.3,0.9c0.4,0.5,0.5,1.1,0.6,1.7C236.5,437.3,236.5,438.2,236.4,439.1z"/>
			<path class="st13" d="M236.2,440.3c0,0.2-0.1,0.4-0.2,0.7h-0.5c0.1-0.1,0.2-0.1,0.2-0.2c0,0,0.1-0.1,0.1-0.1
				C236,440.5,236.1,440.4,236.2,440.3z"/>
			<path class="st13" d="M230.1,435.8c0,0.1,0,0.2,0,0.2c0,0.1,0.1,0.1,0.2,0.1c0.4,0.2,0.8,0.3,1.2,0.5c-0.2,0.5-0.8,0.7-1.2,0.4
				c-0.4-0.2-0.5-0.7-0.6-1.2C229.4,435,230.1,435.1,230.1,435.8z"/>
			<path class="st13" d="M224.7,437.1c0.2,0.1,0.5,0.2,0.7,0.3c0,0.2,0,0.3-0.1,0.5c-0.1,0.2-0.1,0.3-0.3,0.4
				c-0.1,0.1-0.4,0.1-0.5,0c-0.2-0.2,0.1-0.6,0.1-0.8c0-0.1-0.1-0.1-0.1-0.2C224.6,437.2,224.7,437.1,224.7,437.1L224.7,437.1z"/>
		</g>
		<polygon class="st11" points="208.4,452.9 246.7,452.9 246.8,456.5 209.1,456.5 		"/>
		<polygon class="st11" points="210.5,466 211,468.9 247.1,470.2 247,467.4 		"/>
		<polygon class="st11" points="246.7,452.9 297.3,449.7 297.2,452.3 246.8,456.5 		"/>
		<polygon class="st11" points="247,467.4 296.5,463.9 296.5,466.4 247.1,470.2 		"/>
	</g>
	<g>
		<path class="st14" d="M287,480.4c0.1,0,0.3,0,0.4-0.1c0.7-0.1,0.7-1,0.1-1.2c-6.8-2.3-25.5-8.1-26.7-3c-0.2,0.8-0.2,1.6,0,2.2
			C262.7,484,279.6,481.5,287,480.4z"/>
		<path class="st15" d="M287,480.4c-10,0.2-26.1-2.1-26.1-2.1C262.7,484,279.6,481.5,287,480.4z"/>
		<path class="st16" d="M254.4,472.9c1,0,1.9,0.7,2.2,1.6c-2.3-0.5-4.7-0.5-7-0.1c1.4,0.2,2.8,0.6,4.1,1c0.2,0.1,0.6,0.3,0.5,0.5
			c-2.5,0.1-5.1,0.5-7.5,1c2.5,0.3,5,0.6,7.4,1c-0.6,0.4-1.2,0.8-1.6,1.4c1.2,0,2.4,0,3.6-0.1c-0.7,0-1.3,0.4-1.6,1
			c2.2-0.1,4.6-0.3,6.1-1.8C263.3,475.7,256.3,473.2,254.4,472.9z"/>
		<path class="st17" d="M257.8,476.9c0.4,0,0.7,0.1,1,0.3c0.1,0.1,0.2,0.2,0.3,0.3c0,0.2-0.1,0.4-0.3,0.4c-0.2,0-0.4,0-0.6-0.1
			c-0.7-0.2-1.4-0.1-2,0c0.4,0.2,0.8,0.4,1.2,0.6c0.1,0,0.1,0.1,0.1,0.1c0.1,0.2-0.2,0.3-0.4,0.4c-0.5,0.2-1,0.6-1.1,1.1
			c0.7,0,1.4,0,2.1,0c0.5,0,0.9,0,1.4-0.2c0.6-0.3,1.6-1.4,1.3-2.1C260.4,476.9,258.5,476.9,257.8,476.9z"/>
	</g>
	<path class="st18" d="M371.1,472.2c-0.5-2.9-4.9-1.6-4.4,1.2c0,0,0,0,0,0.1c0,0,0,0.1,0,0.1c0,0.3,0.1,0.7,0.1,1
		c0.1,0.9,0.1,1.8,0.1,2.7c0.1,2.3,0.1,4.6,0,6.9c-0.1,2.2-0.2,4.3-0.6,6.3c-0.1,0.4-0.2,0.9-0.3,1.3c-0.1,0.2-0.1,0.4-0.2,0.6
		c0,0,0,0,0,0c0,0,0,0,0,0.1c0,0,0,0.1,0,0.1c-2,0.5-2.6,3.9-0.1,4.3c5.3,1,5.6-7.6,5.8-10.9C371.7,481.5,371.9,476.6,371.1,472.2z"
		/>
	<g>
		<g>
			<path class="st19" d="M360.2,182.2c-3.2-2.7-7.6-4.4-11-1.2c-1.6,1.6,0.8,4,2.5,2.5c1.4-1.3,3.2-0.9,4.8,0.2
				c-0.8,0.3-1.4,1-1.1,2c0.7,2.5,2,4.7,2.4,7.3c0.2,1.1,1.1,1.4,1.9,1.2c-0.3,1.7-0.8,3.4-1.1,4.9c-0.8,3.5-1.6,7.4-3.4,10.6
				c-0.6,1.1-1.3,2.2-1.9,3.3c-0.4,0.7-1.2,1.8-1,2.7c0.3,2.1,3.5,2.2,3.5,0.2c0,0,0,0,0-0.1c0-0.1,0-0.1,0-0.2c0,0.1,0,0.1,0,0.2
				c0,0,0-0.1,0-0.1c0.1-0.3,0.3-0.5,0.4-0.8c0.4-0.7,0.8-1.4,1.2-2.1c0.7-1.2,1.4-2.4,1.9-3.8c2-5.1,3.1-10.5,3.9-15.9
				C363.8,189.2,363.4,184.9,360.2,182.2z"/>
			<path class="st20" d="M355.7,215.9C355.7,215.9,355.7,215.9,355.7,215.9C355.7,215.9,355.7,215.9,355.7,215.9z"/>
		</g>
		<path class="st20" d="M355.7,215.9C355.7,215.9,355.7,215.8,355.7,215.9C355.7,215.8,355.7,215.8,355.7,215.9
			C355.7,215.9,355.7,215.9,355.7,215.9z"/>
	</g>
	<path class="st21" d="M362.3,467c-0.3-0.2-0.6-0.4-0.9-0.5c-1.3-0.4-2.3,0.4-2.8,1.6c-0.3,0.7-0.5,1.3-0.8,1.9
		c-1.6,7.6-5.7,14.8-5.4,22.6c0.2,0.3,0.5,0.6,0.7,0.9c2.7,3,7.4,3.8,10.9,1.8c3.5-2.1,5-6.6,5.5-10.4c0.6-4.9,1-10,1-15
		C370.6,465.8,365.3,465.1,362.3,467z"/>
	<path class="st21" d="M338.5,478.6c-1.2,0.7-2.7,1-4.1,1c-7.3,0.1-15,0.5-21.6,0c-3.4-0.2-6.5-0.7-9.2-1.5c-2-0.6-2.3-2.8-1.1-4.3
		c1.8-2.2,4.8-2.8,7.7-3.3c0.9-0.1,1.8-0.3,2.6-0.5c4.2-0.9,8.4-1.7,12.7-2.4c1.4-0.2,2.8-0.4,4.2-0.5c0.4,0,0.7,0,1.1,0
		c0.1,0,0.6,0,0.8,0c0-0.1,0.1-0.3,0.1-0.3c0.3-1,0.4-2,0.6-2.9c0.3-1.8,2.6-2.8,4.2-2.4c1.9,0.5,2.6,2.4,2.4,4.2
		c0,0.2,0,0.3-0.1,0.5c0.3,0.6,0.5,1.2,0.7,1.8c0.6,1.6,1,3.2,1.2,4.1C341.4,475.6,340.3,477.6,338.5,478.6z"/>
	<path class="st18" d="M340.6,472.2c-0.2-0.8-0.6-2.4-1.2-4.1c-0.8,1.9-1.6,3.8-1.8,5.9c-0.2,1.7,0.2,3.2,1,4.6
		c-1.2,0.7-2.7,1-4.1,1.1c-7.3,0.1-15,0.5-21.6,0c0.6-0.6,1-1.5,0.9-2.3c-0.2-2.4-1.5-5.1-3.5-6.7c-2.8,0.5-5.9,1.1-7.7,3.3
		c-0.3,0.3-0.4,0.6-0.5,1c-0.4,0.9-0.5,1.8-0.4,2.7c0.1,1,0.5,1.8,1.1,2.5c0.1,0.3,0.3,0.5,0.5,0.7c0.3,0.3,0.8,0.6,1.3,0.7
		c1.8,0.6,4.2,0.6,5.7,0.8c3.4,0.4,19.2,0.2,23.6-0.5c1.6-0.3,4.8-0.4,6.1-1.4c0.8-0.7,1.1-2.1,1.2-3.7
		C341,475,340.8,473.2,340.6,472.2z"/>
	<path class="st5" d="M327.7,469.6c-0.2-0.8-1.6-1.7-2.4-1.7c-0.5,0-0.8,0.5-1,1.1c-0.3-0.2-0.5-0.5-0.8-0.7
		c-0.5-0.4-1.1-0.6-1.3,0.1c-0.5,0.4-1,0.7-1.4,1.2c-0.1,0.1-0.1,0.2-0.2,0.2c-0.2-0.1-0.3-0.1-0.5-0.2c-0.6-0.2-1.4-0.7-2-0.3
		c-0.4,0.3-0.6,0.8-0.8,1.2c0,0,0,0.1-0.1,0.1c-0.4-0.3-0.8-0.7-1.1-1c-0.1,0-0.1-0.1-0.2,0c-0.6,0.4-1,0.9-1.3,1.5
		c-0.1,0-0.1-0.1-0.2-0.1c-0.5-0.3-1.1-0.6-1.5-1c-0.1-0.1-0.3,0-0.3,0.1c0,0-0.1,0-0.1-0.1c-0.2-0.1-0.3,0.2-0.2,0.3
		c0.9,0.5,0.6,2,1.5,2.6c0.1,0,0.2,0,0.2-0.1c0.2-0.4,0.4-0.9,0.6-1.3c0.3,0.2,0.7,0.4,1,0.6c0.9,0.4,1.3-0.3,1.6-1
		c0.2,0.2,0.5,0.3,0.8,0.5c0.7,0.3,1.3,0.2,1.7-0.3c0.3-0.3,0.5-0.7,0.8-1.1c1,0.4,2.2,1,3.3,0.6c0.1,0,0.1-0.2,0.1-0.2
		c0.2-0.3,0.3-0.6,0.4-0.9c0,0,0,0,0-0.1c0.9,0.5,2.1,0.3,3.1,0.2C327.7,469.8,327.7,469.7,327.7,469.6z M314,472.6
		c-0.6-0.5-0.5-1.4-0.9-2c0.3,0.3,0.7,0.5,1.1,0.7c0.1,0.1,0.2,0.1,0.4,0.2C314.3,471.8,314.2,472.2,314,472.6z M316.4,472
		c-0.4,0.1-1-0.3-1.5-0.6c0.2-0.4,0.7-1.4,1.2-1.3c0.1,0,0.4,0.3,0.4,0.4c0.2,0.2,0.4,0.4,0.6,0.5C317,471.4,316.8,471.9,316.4,472z
		 M319.7,471c-0.6,0.7-1.5,0.4-2.2-0.2c0.2-0.6,0.5-1.4,1.2-1.4c0.5,0,1.1,0.4,1.6,0.5c0,0,0.1,0,0.1,0.1
		C320.2,470.4,320,470.7,319.7,471z M320.9,469.9c0.4-0.5,0.9-0.8,1.4-1.2c0.1,0,0.1,0,0.1-0.1c0,0,0,0,0,0c0.1,0,0.1-0.1,0.1-0.2
		c0.3-0.3,1.1,0.5,1.6,0.9c-0.1,0.5-0.3,0.9-0.4,1.2C322.8,470.7,321.8,470.3,320.9,469.9z M324.8,469.3c-0.1,0-0.2-0.1-0.3-0.1
		c0.1-0.3,0.2-0.7,0.5-0.9c0.5-0.4,2,0.5,2.3,1.2C326.5,469.5,325.6,469.6,324.8,469.3z"/>
	<path class="st22" d="M347.3,352.6c2.2-11.3,4-22.5,3.3-33.9c-0.3-4.3-8-4.4-7.8,0c0.1,1.3,0.1,2.6,0.1,3.9c0,0,0,0,0-0.1
		c-0.6-2.4-0.9-4.8-0.8-7.2c0-0.9-0.2-1.6-0.7-2.1c-0.1-2-2-3.9-4.8-3.1c-1.9,0.5-3.9,1.2-5.7,1.9c-1.3-2.3-6.2-2.7-7.4,0.5
		c0,0.1-0.1,0.2-0.1,0.3c-1.2,3.4-1.3,7-1.4,10.5c-0.1,2.3-0.4,4.6-0.7,6.9c-0.2,1.6-0.4,3.1-0.6,4.7c-1.3,11-2.6,21.9-3.9,32.9
		c-0.8,6.8-1.6,13.6-2.2,20.4c-0.6,7.2,0.5,13.1,1.7,20.2c1.7,9.4,2.6,19.5,3.4,29.2c0.4,5.3,0.8,10.6,1.3,15.8
		c0.3,3.6,0.5,10,0.7,13.9c2.2,0.5,4.7,0.7,7.1,0.8c3.1,0.1,10.6,0.4,13.5-0.2c0.6-0.7-1.7-45.5-1.8-51.8c0-3.3-0.5-6.5-0.8-9.8
		c-0.6-4.4-1.4-8.8-1.6-13.2c0-1,0-2.8-0.3-3.8c0.6-1.5,1.2-3,1.7-4.5C343.1,374.3,345.3,363.3,347.3,352.6z"/>
	<path class="st23" d="M355.6,235.6c-0.1,2.3-0.7,4.2-2.6,5.2c-2.1,1.2-7.3,23.2-9.8,23.3c-3.9,0.2-7.7-21.7-7.7-26.2
		c0-0.5,0-2.6,0-5c0-2,0.1-4.3,0.1-6.4c0.1-2.7,0.3-4.9,0.6-5c1.5-0.7,3.5-0.4,4.6,0.8c0.3,0,0.6,0.1,0.9,0.2
		c0.6,0.2,1.1,0.6,1.5,1.1l0.1,0c0.4-0.2,0.9-0.3,1.3-0.3c0.8-0.8,2-1.1,3.1-1c1.1-0.5,2.4-0.5,3.4-0.1c-0.2-0.1,0-0.9,0.4-1.3
		c0.4,1.9,0.8,3.8,1.3,5.6C353.7,229.7,354.5,232.7,355.6,235.6z"/>
	<path class="st24" d="M352.9,226.6c-6,10.5-14.1,7.9-17.3,6.3c0-2,0.1-4.3,0.1-6.4c0.6-0.5,3.1-2.2,6-4c0.6,0.2,1.1,0.6,1.5,1.1
		l0.1,0c0.4-0.2,0.9-0.3,1.3-0.3c0.8-0.8,2-1.1,3.1-1c1.1-0.5,2.4-0.5,3.4-0.1c-0.2-0.1,0-0.9,0.4-1.3
		C352,222.9,352.4,224.8,352.9,226.6z"/>
	<path class="st23" d="M356.1,212.9c0.5-1.6,1.7-1.3,2.6-2.2c1.7-1.8,3-5.3,1.9-7.6c-0.9-1.9-2.6-3.2-4.7-2.8c-0.1,0-0.2,0-0.3,0.1
		c0.1-1,0.3-2,0.6-3c0-1.1,0-2.3,0-3.4c-0.2-0.5-0.5-1-0.8-1.4c-1.5-2.5-5.5-3.5-8.3-3.7c-7-0.4-14.5,3.3-21.1-0.4
		c-0.1,0.3-0.2,0.7-0.3,1c-0.8,6,0.9,12.4,1.6,18.3c0.2,1.5,0.3,3.1,0.5,4.6c0.2,1.5,0.4,2.9,0.5,4.4c0,0,0,0,0,0
		c0.5,2.8,1.2,5.5,2.9,8c0.3,1.2,0.7,2.3,1.3,3.2c1.7,2.7,4.9,2.9,7.8,2.9c2.7,0,5.6-0.1,7.6-2.2c1.9-2,3.7-4.6,5.2-6.9
		C354.9,219.2,355.1,216,356.1,212.9z"/>
	<path class="st5" d="M366,473.7c0.1-0.1,0.1-0.2,0.1-0.3c-0.5-0.8-1.4-1.4-2.2-1.9c-0.2-0.1-0.5-0.3-0.7-0.4c1-0.1,2.1,0.1,3.1,0.1
		c0.2,0,0.3-0.3,0.1-0.4c-2-0.8-4.2-1.3-6.4-1.2c-0.2,0-0.3,0.3-0.1,0.4c0.3,0.1,1.1,0.5,2.1,0.9c-0.8,0.1-1.8,0.3-2.4,0.9
		c-0.1,0.1-0.1,0.2,0,0.3c1.1,0.6,2.2,1.2,3.2,1.9c-0.1,0-0.1,0-0.2,0c-0.9,0.1-1.9,0.3-2.8,0.5c-0.1,0-0.2,0.2-0.1,0.3
		c0.4,0.9,1.4,1.4,2.2,2.1c-0.7,0.2-1.4,0.4-2.1,0.6c-0.1,0-0.2,0.2-0.1,0.3c0.6,0.6,1.4,1.2,2,1.8c-0.5,0.2-1.1,0.4-1.6,0.7
		c-0.2,0.1-0.1,0.3,0.1,0.4c0.8,0.1,1.6,0.4,2.4,0.3c0.1,0,0.2-0.1,0.2-0.2c0,0,0.1-0.1,0-0.2c-0.1-0.3-0.3-0.6-0.5-0.8
		c0.6-0.2,1.1-0.5,1.5-0.9c0.1-0.1,0.1-0.2,0-0.2c-0.4-0.5-0.8-1.1-1.2-1.5c0.8-0.2,1.7-0.5,2.5-0.8c0.1,0,0.2-0.2,0.1-0.3
		c-0.4-0.6-1-1.2-1.5-1.7C364.5,474.3,365.3,474.2,366,473.7z M365,470.8c-0.4,0-0.7-0.1-1.1,0c-0.4,0-0.9,0.1-1.3,0.1
		c-0.6-0.3-1.1-0.6-1.7-0.8C362.3,470.1,363.6,470.4,365,470.8z M362.4,480.6c-0.5,0-1-0.1-1.5-0.2c0.4-0.2,0.7-0.3,1.1-0.4
		C362.2,480.2,362.3,480.4,362.4,480.6z M362.6,477.6c0.2,0.2,0.9,0.8,0.8,1.1c0,0.4-0.9,0.7-1.3,0.8c0,0,0,0,0,0
		c-0.6-0.6-1.3-1.2-1.9-1.7c0.7-0.2,1.4-0.4,2-0.5C362.4,477.3,362.5,477.5,362.6,477.6z M362.1,476.5c-0.6-0.5-1.5-0.9-1.9-1.6
		c1-0.2,2.1-0.3,3.1-0.5c0.6,0.5,1.1,1,1.6,1.6c-0.8,0.3-1.6,0.5-2.4,0.7C362.3,476.7,362.2,476.6,362.1,476.5z M365.5,473.6
		c-0.2,0.3-1.2,0.4-1.5,0.4c-0.2,0-0.5,0.1-0.7,0.1c-1-0.8-2.2-1.4-3.4-2c0.7-0.5,1.7-0.7,2.5-0.8
		C364.1,472.1,365.8,473,365.5,473.6z"/>
	<path class="st25" d="M376.2,467.5c-5.4,0.2-17.9,0.3-23.3,0.3L350,353c-6.1-0.3-7.5-6.9-7.9-11.9c-0.3-4.9,0.5-9.7,0.5-14.5
		c0-0.1,0-0.2,0-0.4c-0.3-2.2-0.4-4.4-0.5-6.6c0-4.1,7-4.3,7.7-0.6c5.6-4,12-7,19-8.9c0.9-0.2,1.7-0.2,2.3,0
		c0.2,2.5,0.7,4.9,1.2,7.3c0.7,2.8,1.5,5.5,2.4,8.2c0.2,1.4,0.3,2.8,0.5,4.2c0,1.3,0,2.8,0,4.3c0,19.7,0.3,55.1,2.4,77.3
		C380.3,437.2,377.4,459.6,376.2,467.5z"/>
	<path class="st22" d="M375.4,329.8c0,1.3,0,2.8,0,4.3c-0.1,0-0.2,0-0.4,0c-6.4-1-12.2-5.4-10.1-11.5c0.5-1.4,1.5-2.2,2.7-2.5
		c0.6-1.5,2.3-2.4,4.2-2.6c0.2,0,0.5,0,0.7-0.1c0.7,2.8,1.5,5.5,2.4,8.2C375.1,327,375.2,328.4,375.4,329.8z"/>
	<path class="st26" d="M321.5,330.1c-0.1,0-0.2,0-0.2,0c0.3-2.3,0.6-4.6,0.7-6.9c0.2-3.5,0.2-7.1,1.4-10.5c0.1,0,0.2,0,0.3,0.1
		c0.7,0.2,1.2,0.4,1.6,0.8c1-0.1,2.1,0.1,2.9,0.7c0.6,0.4,0.9,0.8,1.2,1.3c0.3,0,0.6,0,0.9,0.1c1.8,0.4,2.7,1.8,2.9,3.3
		C333.9,324.8,327.3,329.1,321.5,330.1z"/>
	<path class="st18" d="M367.1,487.8c-1.3-0.7-3-1-4.3-1.2c-2.6-0.3-5.3-0.3-7.7,0.4c-4.7,1.4-4.1,6-3.3,10c1.8,1.6,4.3,1.9,7.2,2
		c2.6,0.1,6.9,0.5,8.9-1.4c2-1.9,1.8-5.6,0.7-7.8C368.3,489.1,367.8,488.4,367.1,487.8z"/>
	<path class="st19" d="M357.6,193.1c-0.3-0.8-1.1-1.5-1.9-1.7c-1.6-0.4-2.9,0.5-3.4,1.9c-1.6,4,0.3,7,1.9,10.3c1,2,0.1,2.9-0.2,4.7
		c-0.1,0.6,0.6,3.9,2,2c0.9-1.2,1.8-2.6,2.2-3.9c0.9-3.2,4.5-14,4.5-14L357.6,193.1z"/>
	<path class="st27" d="M307.3,264.9c2.5-5.9,5.6-11.8,7.9-17.6c1.1-2.7,2.1-5.5,4.2-7.6c3.8-3.7,10.5-4.3,15.6-3.9
		c0.1,0.3,0.2,0.7,0.3,1c0,0,0.1,0.1,0.1,0.1l6.7,21l13.2-21.9c0.2-0.3,0.3-0.5,0.3-0.5c-0.1,0.2,8.8,0.8,9.4,0.9
		c3.4,0.4,7,1.4,10.1,2.6c4.1,1.7,8.3,2.8,10.8,6.9c1.7,2.7,2.5,5.9,3.5,8.9c1.1,3.4,2.2,6.7,3.2,10.1c1.5,4.9,3,9.9,4.2,14.9
		c-4.9,3.9-11,6.4-17.2,6.8c-1.5-3-3.1-6-4.6-9.1c-1.5-3-3-6-4.2-9c0,10.4,1.5,45.5,2,46.7c0.4,1,3.1,10.6,2.5,11.2
		c-0.1,0.1-0.2,0.2-0.3,0.3c-2.3,2-6,2.5-8.9,3.4c-3.2,0.9-6.4,1.9-9.7,2.5c-6.2,1.3-12.8,1.8-18.9,0.6c-6.5-1.2-16.8-3.4-15.7-12.2
		c1.7-13.2,0.8-30.8,0.1-46.3c-0.2,0.4-0.4,0.8-0.6,1.2c-1.9,3.5-3.8,7.1-5.7,10.6c-3.6-2.2-6.8-5.3-9.3-8.7c-0.7-1-1.4-2-2-3
		C305.5,271.6,306.2,267.6,307.3,264.9z"/>
	<path class="st28" d="M375.3,326.6c-0.1,0.1-0.2,0.2-0.3,0.3c-1.6-2.4-4.1-5-5.3-7.8c-8.3-19.9-2.7-45.2,1.2-54.3
		c0,0.7-0.1,1.5-0.1,2.2c-0.3,7.4,1.4,47.2,2,48.3C373.3,316.3,376,325.9,375.3,326.6z"/>
	<path class="st19" d="M357.7,183c-0.6-1.1-1.6-1.2-2.4-0.9c-0.3-0.4-0.8-0.6-1.2-0.7c-0.2-1.1-0.6-2.2-1.3-3.1
		c-0.6-0.8-1.5-1.2-2.4-0.9c-0.6-1-1.7-1.7-3.2-1.7c-1.4,0-2.6,0.7-3.6,1.7c-0.1-0.1-0.3-0.2-0.5-0.3c-1.4-0.9-2.9-0.9-4.2-0.3
		c-0.5-1.5-1.5-2.6-3.4-2.7c-1.4-0.1-2.8,0.7-4,1.8c-0.1-1.3-0.5-2.5-1.2-3.6c-0.3-0.4-0.6-0.8-1-1c-0.5-0.2-1-0.1-1.5,0.1
		c-1.9,0.6-3.7,1.7-5,3.2c-1.3-1-3.4-1.1-4.7-0.1c-1.8,1.4-2.2,4.2-1.3,6.4c0.3,0.8,0.8,1.6,1.5,2.2c-1.3-0.7-3.3-0.1-4,1.3
		c-0.8,1.6-0.2,3.7,1.1,4.9c1,1,2.2,1.6,3.5,1.9c-0.3,0.1-0.6,0.3-0.8,0.6c-0.9,1.2-0.7,3.1,0.4,4.1c1.1,0.9,2.8,0.9,3.9,0
		c-0.8,0.8-0.2,2.5,1,2.8c1.2,0.3,2.6-0.5,3.2-1.6c0.4-0.7,0.6-1.7,0.5-2.5c0.7,1.1,2.8,1.1,3.9,0.2c1.3-1.1,2-2.9,3.3-4.1
		c3.8,3.8,9.3,5.9,14.6,5.6c1.7-0.1,3.6-0.6,4.2-2.1c0.1,0,0.3,0,0.4-0.1c0,0,0.1,0,0.1,0c0.7,1,2.2,1.2,3.2,0.2
		c0.8,0.3,1.8,0.1,2.4-0.9C361.2,190.4,359.2,185.9,357.7,183z"/>
	<polygon class="st28" points="343.6,255.6 343.2,333.9 340.1,333.8 342.1,258.1 	"/>
	<polygon class="st28" points="343.6,258.2 357.4,235.9 355.6,235.6 342.1,258.1 	"/>
	<polygon class="st28" points="354.4,232.1 361,236.2 359.4,250.6 351.3,242.7 	"/>
	<polygon class="st28" points="335.6,232.1 331,235.8 331.9,250.2 336.6,242.3 	"/>
	<path class="st23" d="M314.5,291.2c0,0.1-1.6,12.3-2.2,14.3c-1,3.5-1.3,14-1.9,14.7c-3.3,0-5.9,0.6-8.2-1.3
		c0.9-8.2-4.7-26.5-3.2-31.3c0.3-1.1,0.7-2.2,1.3-3.3c0.7-0.3,2.6-4.7,3.3-5C303.6,280.2,313.3,290.8,314.5,291.2z"/>
	<path class="st28" d="M316.7,286.4c0.2,0.2,0.4,0.4,0.5,0.6c0.2,0.4,0.1,0.9,0,1.3c-0.4,2.1-1.5,4-3,5.4c-0.1,0.1-0.3,0.2-0.4,0.3
		c-0.3,0.1-0.6,0-0.8-0.1c-3.1-1.1-5.7-3.2-7.8-5.7c-2.1-2.5-3.7-5.3-5.3-8.1c-0.1-0.2-0.3-0.5-0.3-0.7c0-0.3,0.2-0.6,0.4-0.9
		c1.3-1.9,2.5-4.2,4.2-5.9c2.2,1.3,4.4,4.8,6.2,6.8C312.4,281.7,314.5,284,316.7,286.4z"/>
	<g>
		<polygon class="st10" points="292.6,299.3 338.2,301.6 337.5,336.3 294.4,333.3 		"/>
		<polygon class="st9" points="338.2,301.6 373.4,301.6 368.7,333.5 337.5,336.3 		"/>
		<polygon class="st11" points="292.6,299.3 297.5,299.5 303,299.8 306.3,300 307.6,300.1 308,300.1 310,300.2 314.3,300.4 
			315.6,300.5 316.4,300.5 316.8,300.5 318.9,300.6 319.3,300.7 323.2,300.9 325,301 325.6,301 326.5,301 326.9,301.1 327.5,301.1 
			329.3,301.2 329.7,301.2 330.8,301.3 334.9,301.5 335.4,301.5 335.7,301.5 335.8,301.5 338.2,301.6 373.4,301.6 370.1,301.4 
			367.6,301.3 361.1,300.9 359.9,300.8 359,300.7 357.7,300.6 354.7,300.5 351.9,300.3 351.8,300.3 350.4,300.2 348.3,300 
			347.7,300 346.4,299.9 343.7,299.8 343.3,299.7 339.8,299.5 337.4,299.4 336.7,299.3 334,299.2 333.8,299.1 333.8,299.1 
			329.7,298.9 328.8,298.8 328,298.8 326.7,298.7 326.4,298.7 324.9,298.6 324.5,298.6 323.9,298.5 323.9,298.5 323.7,298.5 
			321.8,298.4 321.4,298.4 321,298.3 319.5,298.2 319,298.2 316.8,298.1 316.6,298.1 316.5,298.1 315.6,298.1 315.6,298.1 
			315.5,298.1 314.6,298.2 313.6,298.2 308.7,298.5 308.3,298.5 307.4,298.5 305.1,298.6 302.7,298.8 297.6,299 		"/>
		<g>
			<path class="st14" d="M305.1,298.6c0.4,0.4,0.8,0.9,1.2,1.4l1.3,0.1l0.4,0l2,0.1l4.3,0.2l1.3,0.1l0.8,0c-0.6-0.8-1.2-1.6-1.8-2.4
				c-0.8-1-1.6-1.9-2.4-2.8c-0.6-0.7-1.3-1.3-1.9-1.9c-0.3-0.3-0.7-0.6-1-0.8c0,0,0,0,0,0c-0.7-0.5-1.3-1-2-1.2h0
				c-0.1-0.1-0.3-0.1-0.4-0.2h0c-0.8-0.3-1.6-0.2-2.2,0.2c0,0,0,0,0,0c-0.6,0.5-1,1-1.3,1.5c0,0.1-0.1,0.1-0.1,0.2
				C302.8,294.8,303.5,296.7,305.1,298.6z"/>
			<path class="st15" d="M305.1,298.6c0.4,0.4,0.8,0.9,1.2,1.4l1.3,0.1l0.4,0l2,0.1c-0.6-0.6-1.1-1.2-1.7-1.7
				c-2.9-3-4.9-5.3-4.9-5.3C302.8,294.8,303.5,296.7,305.1,298.6z"/>
			<path class="st16" d="M301.8,285c0.7,0.6,1,1.7,0.7,2.6c-1.5-1.8-3.3-3.3-5.3-4.5c0.9,1.1,1.8,2.2,2.5,3.4c0.1,0.2,0.2,0.6,0,0.7
				c-2-1.5-4.2-2.9-6.5-4c1.7,1.8,3.4,3.6,5.1,5.5c-0.7-0.1-1.4-0.1-2.1,0c0.9,0.8,1.8,1.5,2.8,2.2c-0.5-0.4-1.3-0.5-1.9-0.3
				c1.7,1.3,3.7,2.7,5.9,2.5C306.9,292.7,303.1,286.4,301.8,285z"/>
			<path class="st17" d="M301.9,290.2c0.3,0.2,0.5,0.6,0.6,0.9c0,0.1,0.1,0.3,0,0.4c-0.1,0.2-0.4,0.2-0.5,0.1s-0.3-0.3-0.4-0.4
				c-0.4-0.5-1-1-1.6-1.3c0.2,0.4,0.4,0.8,0.5,1.2c0,0.1,0,0.1,0,0.2c0,0.2-0.3,0.1-0.5,0.1c-0.5-0.2-1.1-0.2-1.6,0.1
				c0.6,0.4,1.1,0.9,1.7,1.3c0.4,0.3,0.7,0.6,1.2,0.7c0.6,0.2,2.1-0.1,2.3-0.8C303.9,291.8,302.4,290.7,301.9,290.2z"/>
		</g>
		<g>
			<path class="st14" d="M312.2,295.4c0.2,0.9,0.7,1.9,1.4,2.8c0.6,0.7,1.2,1.5,2,2.3l0.8,0l0.4,0l2,0.1l0.5,0l3.9,0.2l1.8,0.1
				l0.6,0c-0.6-0.8-1.1-1.5-1.7-2.2c0,0-0.1-0.1-0.1-0.1c0,0,0,0,0,0c0,0-0.1-0.1-0.1-0.1c-0.4-0.5-0.7-0.9-1.1-1.3c0,0,0,0,0,0
				c-0.1-0.1-0.2-0.2-0.3-0.4c0,0,0,0,0,0c-0.5-0.5-0.9-1-1.3-1.5c-0.5-0.5-1-1-1.4-1.5c-2.4-2.2-4.5-3.4-5.9-2.3c0,0,0,0,0,0
				c-0.6,0.5-1,1-1.3,1.5c0,0.1-0.1,0.1-0.1,0.2C312,293.9,312,294.6,312.2,295.4z"/>
			<path class="st15" d="M312.2,295.4c0.2,0.9,0.7,1.9,1.4,2.8c0.6,0.7,1.2,1.5,2,2.3l0.8,0l0.4,0l2,0.1l0.5,0
				c-0.9-0.9-1.8-1.8-2.5-2.6c-2.7-2.8-4.5-4.8-4.5-4.8C312,293.9,312,294.6,312.2,295.4z"/>
			<path class="st16" d="M310.7,285c0.7,0.6,1,1.7,0.7,2.6c-1.5-1.8-3.3-3.3-5.3-4.5c0.9,1.1,1.8,2.2,2.5,3.4c0.1,0.2,0.2,0.6,0,0.7
				c-2-1.5-4.2-2.9-6.5-4c1.7,1.8,3.4,3.6,5.1,5.5c-0.7-0.1-1.4-0.1-2.1,0c0.9,0.8,1.8,1.5,2.8,2.2c-0.5-0.4-1.3-0.5-1.9-0.3
				c1.7,1.3,3.7,2.7,5.9,2.5C315.8,292.7,312,286.4,310.7,285z"/>
			<path class="st17" d="M310.8,290.2c0.3,0.2,0.5,0.6,0.6,0.9c0,0.1,0.1,0.3,0,0.4c-0.1,0.2-0.4,0.2-0.5,0.1
				c-0.2-0.1-0.3-0.3-0.4-0.4c-0.4-0.5-1-1-1.6-1.3c0.2,0.4,0.4,0.8,0.5,1.2c0,0.1,0,0.1,0,0.2c0,0.2-0.3,0.1-0.5,0.1
				c-0.5-0.2-1.1-0.2-1.6,0.1c0.6,0.4,1.1,0.9,1.7,1.3c0.4,0.3,0.7,0.6,1.2,0.7c0.6,0.2,2.1-0.1,2.3-0.8
				C312.8,291.8,311.3,290.7,310.8,290.2z"/>
		</g>
		<g>
			<path class="st14" d="M324.5,297.9c0.1,0.1,0.1,0.3,0.2,0.4c0,0.1,0.1,0.2,0.1,0.2c0.4,0.8,1,1.6,1.6,2.5l0.5,0l0.6,0l1.8,0.1
				l0.3,0l1.1,0.1l4.1,0.2l0.5,0c-0.2-0.4-0.5-0.9-0.7-1.3c-0.2-0.4-0.4-0.7-0.6-1.1c-0.8-1.4-1.7-2.7-2.5-3.8c0,0,0,0,0,0
				c-2.1-2.8-4.2-4.5-5.8-3.7c0,0,0,0,0,0c-0.6,0.3-1.1,0.7-1.4,1.2c0,0-0.1,0.1-0.1,0.1c0,0-0.1,0.1-0.1,0.2
				C323.4,294.4,323.6,296.1,324.5,297.9z"/>
			<path class="st15" d="M324.5,297.9c0.1,0.1,0.1,0.3,0.2,0.4c0,0.1,0.1,0.2,0.1,0.2c0.4,0.8,1,1.6,1.6,2.5l0.5,0l0.6,0l1.8,0.1
				l0.3,0c-0.6-0.8-1.2-1.7-1.7-2.4c-0.3-0.4-0.5-0.8-0.8-1.1c-1-1.5-1.9-2.8-2.4-3.6c-0.4-0.6-0.6-1-0.6-1
				C323.4,294.4,323.6,296.1,324.5,297.9z"/>
			<path class="st16" d="M323.9,284.7c0.6,0.7,0.7,1.9,0.3,2.7c-1.2-2-2.7-3.8-4.6-5.3c0.8,1.2,1.4,2.5,1.9,3.8
				c0.1,0.2,0.2,0.6-0.1,0.7c-1.8-1.8-3.7-3.5-5.7-5c1.4,2.1,2.8,4.1,4.2,6.2c-0.7-0.2-1.4-0.3-2.1-0.3c0.8,0.9,1.6,1.8,2.4,2.6
				c-0.4-0.5-1.2-0.7-1.8-0.6c1.5,1.6,3.2,3.2,5.4,3.4C327.7,293.2,324.9,286.2,323.9,284.7z"/>
			<path class="st17" d="M323.2,289.8c0.2,0.3,0.4,0.6,0.4,1c0,0.1,0,0.3-0.1,0.4c-0.1,0.2-0.4,0.2-0.6,0c-0.2-0.1-0.3-0.3-0.4-0.5
				c-0.3-0.6-0.8-1.1-1.4-1.5c0.1,0.4,0.2,0.9,0.3,1.3c0,0.1,0,0.1,0,0.2c-0.1,0.2-0.4,0.1-0.5,0c-0.5-0.3-1.1-0.3-1.6-0.1
				c0.5,0.5,1,1.1,1.4,1.6c0.3,0.3,0.6,0.7,1.1,0.9c0.6,0.3,2.1,0.3,2.4-0.4C324.9,291.8,323.6,290.4,323.2,289.8z"/>
		</g>
		<g>
			<path class="st14" d="M331.5,295.3C331.5,295.3,331.5,295.3,331.5,295.3c0.5,1.2,1.3,2.5,2.3,3.8c0.3,0.4,0.5,0.7,0.8,1.1
				c0.3,0.4,0.7,0.9,1.1,1.3l0.1,0l2.4,0.1h6.5c-0.1-0.2-0.2-0.3-0.3-0.5c-0.2-0.5-0.5-0.9-0.7-1.4c-0.8-1.5-1.6-2.9-2.4-4.2
				c-0.8-1.2-1.5-2.3-2.3-3.3c0,0,0,0,0,0c-0.3-0.3-0.5-0.7-0.8-1c0,0,0,0,0,0c-0.3-0.4-0.6-0.7-0.9-1c-0.3-0.3-0.6-0.6-1-0.8
				c-1.1-0.8-2.1-1-3.1-0.6c0,0,0,0,0,0c-0.7,0.4-1.3,0.9-1.6,1.4c0,0.1-0.1,0.1-0.1,0.2C330.6,291.9,330.8,293.5,331.5,295.3z"/>
			<path class="st15" d="M331.5,295.3C331.5,295.3,331.5,295.3,331.5,295.3c0.5,1.2,1.3,2.5,2.3,3.8c0.3,0.4,0.5,0.7,0.8,1.1
				c0.3,0.4,0.7,0.9,1.1,1.3l0.1,0l2.4,0.1h0.8c-0.6-0.8-1.1-1.5-1.6-2.3c-3.5-4.9-6-8.8-6-8.8C330.6,291.9,330.8,293.5,331.5,295.3
				z"/>
			<path class="st16" d="M331.1,281.4c0.7,0.8,0.8,2,0.3,3c-1.3-2.2-3-4.2-5-5.8c0.8,1.3,1.5,2.7,2.1,4.1c0.1,0.3,0.2,0.7-0.1,0.8
				c-1.9-2-4-3.8-6.3-5.5c1.5,2.3,3.1,4.5,4.6,6.8c-0.7-0.2-1.5-0.4-2.3-0.3c0.8,1,1.7,2,2.7,2.9c-0.5-0.6-1.3-0.8-2-0.6
				c1.6,1.7,3.5,3.6,5.9,3.7C335.3,290.7,332.3,283.1,331.1,281.4z"/>
			<path class="st17" d="M330.3,287c0.3,0.3,0.4,0.7,0.5,1.1c0,0.1,0,0.3-0.1,0.4c-0.1,0.2-0.4,0.2-0.6,0c-0.2-0.1-0.3-0.3-0.4-0.5
				c-0.4-0.7-0.9-1.2-1.5-1.7c0.1,0.5,0.3,0.9,0.4,1.4c0,0.1,0,0.1,0,0.2c-0.1,0.2-0.4,0.1-0.6,0c-0.5-0.3-1.2-0.4-1.7-0.1
				c0.5,0.6,1.1,1.2,1.6,1.7c0.3,0.4,0.7,0.8,1.2,1c0.7,0.3,2.3,0.3,2.7-0.5C332.2,289.2,330.8,287.7,330.3,287z"/>
		</g>
		<g>
			<path class="st14" d="M341.2,295.6c0.3,1.3,1.1,2.7,2.1,4.2c0.3,0.5,0.7,0.9,1.1,1.4c0.1,0.2,0.3,0.3,0.4,0.5h7.8
				c-0.2-0.5-0.5-0.9-0.7-1.4c-3-5.5-6.4-10.2-8.8-8.9c0,0,0,0,0,0c-0.6,0.3-1.1,0.7-1.4,1.2c0,0-0.1,0.1-0.1,0.1
				C341,293.6,341,294.5,341.2,295.6z"/>
			<path class="st15" d="M341.2,295.6c0.3,1.3,1.1,2.7,2.1,4.2c0.3,0.5,0.7,0.9,1.1,1.4c0.1,0.2,0.3,0.3,0.4,0.5h2.8
				c-0.4-0.6-0.8-1.2-1.2-1.7c-2.8-4-4.9-7.2-4.9-7.2C341,293.6,341,294.5,341.2,295.6z"/>
			<path class="st16" d="M341.3,284.9c0.6,0.7,0.7,1.7,0.2,2.5c-1.1-1.9-2.6-3.6-4.3-5c0.7,1.1,1.3,2.3,1.8,3.5
				c0.1,0.2,0.1,0.6-0.1,0.7c-1.7-1.7-3.5-3.3-5.4-4.7c1.3,1.9,2.6,3.9,3.9,5.8c-0.6-0.2-1.3-0.3-2-0.3c0.7,0.9,1.5,1.7,2.3,2.5
				c-0.4-0.5-1.1-0.7-1.7-0.5c1.4,1.5,3,3.1,5.1,3.2C344.8,292.8,342.3,286.3,341.3,284.9z"/>
			<path class="st17" d="M340.6,289.7c0.2,0.3,0.4,0.6,0.4,0.9c0,0.1,0,0.3,0,0.4c-0.1,0.2-0.4,0.1-0.5,0c-0.2-0.1-0.2-0.3-0.3-0.5
				c-0.3-0.6-0.8-1.1-1.3-1.4c0.1,0.4,0.2,0.8,0.3,1.2c0,0.1,0,0.1,0,0.2c-0.1,0.2-0.3,0.1-0.5,0c-0.4-0.3-1-0.3-1.5-0.1
				c0.5,0.5,0.9,1,1.4,1.5c0.3,0.3,0.6,0.7,1,0.8c0.6,0.3,1.9,0.3,2.3-0.4C342.2,291.5,341,290.3,340.6,289.7z"/>
		</g>
		<g>
			<path class="st14" d="M323.2,300.9l1.8,0.1l0.6,0l0.8,0l0.5,0l0.6,0l1.8,0.1l0.3,0l1.1,0.1c-0.7-1-1.4-1.8-2-2.4
				c-0.5-0.5-1.1-0.9-1.6-1.2c-0.7-0.4-1.4-0.4-2-0.1c0,0,0,0,0,0c-0.2,0.1-0.4,0.2-0.6,0.4c-0.2,0.2-0.4,0.4-0.6,0.6
				c0,0-0.1,0.1-0.1,0.1s-0.1,0.1-0.1,0.1c0,0-0.1,0.1-0.1,0.1C323.3,299.5,323.2,300.1,323.2,300.9z"/>
			<path class="st15" d="M323.2,300.9l1.8,0.1c-0.9-1.3-1.4-2.1-1.4-2.1C323.3,299.5,323.2,300.1,323.2,300.9z"/>
			<path class="st16" d="M323.4,291c0.6,0.7,0.7,1.7,0.2,2.5c-1.1-1.9-2.6-3.6-4.3-5c0.7,1.1,1.3,2.3,1.8,3.5
				c0.1,0.2,0.1,0.6-0.1,0.7c-1.7-1.7-3.5-3.3-5.4-4.7c1.3,1.9,2.6,3.9,3.9,5.8c-0.6-0.2-1.3-0.3-2-0.3c0.7,0.9,1.5,1.7,2.3,2.5
				c-0.4-0.5-1.1-0.7-1.7-0.5c1.4,1.5,3,3.1,5.1,3.2C327,299,324.4,292.5,323.4,291z"/>
			<path class="st17" d="M322.8,295.8c0.2,0.3,0.4,0.6,0.4,0.9c0,0.1,0,0.3,0,0.4c-0.1,0.2-0.4,0.1-0.5,0c-0.2-0.1-0.2-0.3-0.3-0.5
				c-0.3-0.6-0.8-1.1-1.3-1.4c0.1,0.4,0.2,0.8,0.3,1.2c0,0.1,0,0.1,0,0.2c-0.1,0.2-0.3,0.1-0.5,0c-0.4-0.3-1-0.3-1.5-0.1
				c0.5,0.5,0.9,1,1.4,1.5c0.3,0.3,0.6,0.7,1,0.8c0.6,0.3,1.9,0.3,2.3-0.4C324.3,297.7,323.1,296.4,322.8,295.8z"/>
		</g>
		<g>
			<path class="st14" d="M351.9,300.3c0.2,0.4,0.4,0.9,0.6,1.4h7.7c-0.1-0.3-0.2-0.6-0.4-0.9c-2-4.6-4.2-8.1-6.4-7.3c0,0,0,0,0,0
				c-0.7,0.2-1.2,0.6-1.6,1c0,0-0.1,0.1-0.1,0.1C350.7,295.9,351,297.9,351.9,300.3z"/>
			<path class="st15" d="M351.9,300.3c0.2,0.4,0.4,0.9,0.6,1.4h2.7c-0.2-0.4-0.4-0.8-0.6-1.2c-1.7-3.4-2.8-5.9-2.8-5.9
				C350.7,295.9,351,297.9,351.9,300.3z"/>
			<path class="st16" d="M352.7,286.7c0.5,0.8,0.4,1.8-0.1,2.6c-0.8-2-2-3.9-3.5-5.5c0.5,1.2,1,2.5,1.3,3.8c0.1,0.2,0.1,0.6-0.2,0.6
				c-1.4-1.9-3-3.7-4.7-5.4c1,2.1,2.1,4.2,3.1,6.3c-0.6-0.3-1.3-0.5-1.9-0.6c0.6,1,1.2,1.9,1.9,2.8c-0.3-0.5-1-0.8-1.6-0.8
				c1.2,1.7,2.6,3.5,4.6,3.9C355.1,295.1,353.5,288.3,352.7,286.7z"/>
			<path class="st17" d="M351.3,291.4c0.2,0.3,0.3,0.6,0.3,1c0,0.1,0,0.3-0.1,0.4c-0.1,0.1-0.4,0.1-0.5,0c-0.1-0.1-0.2-0.3-0.3-0.5
				c-0.2-0.6-0.6-1.2-1.1-1.6c0.1,0.4,0.1,0.8,0.1,1.2c0,0.1,0,0.1,0,0.2c-0.1,0.2-0.3,0-0.5-0.1c-0.4-0.3-1-0.5-1.5-0.3
				c0.4,0.6,0.8,1.1,1.1,1.7c0.2,0.4,0.5,0.7,0.9,1c0.5,0.3,1.9,0.5,2.3-0.1C352.7,293.5,351.6,292,351.3,291.4z"/>
		</g>
	</g>
	<path class="st23" d="M359.1,327.6c8.1-7,23.7-14.6,31.8-21.6c2.6-1.5,6.2-3,7.8-5.6c1.9-3.1-0.2-9.9,0.2-10.2
		c-4.9-3.3-7.9,1.5-10.5-3.8c-3.7,4-7.4,7.9-11.3,11.7c-3.7,3.6-7.5,7.1-11.5,10.5c-3.1,2.6-10.5,11.1-10.4,12.3
		C355.5,324.8,357.7,328.8,359.1,327.6z"/>
	<path class="st28" d="M397.6,278.4c1.5,2.6,2,5.7,2.4,8.8c0.1,0.6,0.2,1.2,0,1.7c-0.2,0.6-0.6,1-1.1,1.4c-2.8,2.6-5.8,5.3-9.5,6.4
		c-1.9,0.6-7.3-1.6-9.3-1.5c-1.3-2.8,0.1-3.6-0.7-6.6c-0.9-3.2,1.3-2.9,4-3.3c2.7-0.3,5.3-1.1,7.8-2.3
		C391.8,282.7,398,279.2,397.6,278.4z"/>
	<path class="st23" d="M361.5,325.7c0,0-4,9.6-6,10.6c-1.4,0.7-6.4,0.7-9.2,0.6c-0.9,0-1.4-1-0.9-1.7c1.4-2.3,3.8-6.5,3.7-7.4
		c-0.2-1.2-2.5,1.4-4.4,1.2c-1.9-0.2-1.6-1.2-1.6-1.2s5.6-2,5.6-2.9c0-0.9,2-4.5,6.5-3.9C359.7,321.6,361.5,325.7,361.5,325.7z"/>
</g>
<g id="logo-amap_1_">
	<g>
		<ellipse class="st29" cx="160.5" cy="429.9" rx="79.9" ry="11.3"/>
		<g>
			<ellipse class="st30" cx="156.5" cy="299.2" rx="12.5" ry="10.5"/>
			<path class="st31" d="M159.1,291.6c1.6-0.1,2.8-1,2.8-1s-1.2-1-2.8-1.2c1-1.2,1.3-2.7,1.3-2.7s-1.6,0.1-2.8,1.2
				c-0.1-1.6-1-2.8-1-2.8s-1,1.2-1.2,2.8c-1.2-1-2.7-1.3-2.7-1.3s0.1,1.6,1.2,2.8c-1.6,0.1-2.8,1-2.8,1s1.2,1,2.8,1.2
				c-1,1.2-1.3,2.7-1.3,2.7s1.6-0.1,2.8-1.2c0.1,1.6,1,2.8,1,2.8s1-1.2,1.2-2.8c1.2,1,2.7,1.3,2.7,1.3S160.1,292.8,159.1,291.6z"/>
		</g>
		<g>
			<path class="st32" d="M138.5,316c0.4,1.2-0.1,2.5-1.3,2.9l-5.1,2c-1.2,0.4-2.5-0.1-2.9-1.3l-10.8-28.2c-0.4-1.2,0.1-2.5,1.3-2.9
				l5.1-2c1.2-0.4,2.5,0.1,2.9,1.3L138.5,316z"/>
			
				<ellipse transform="matrix(0.9343 -0.3566 0.3566 0.9343 -98.4391 60.9839)" class="st31" cx="116.2" cy="297.5" rx="12.4" ry="12.4"/>
			
				<ellipse transform="matrix(0.9343 -0.3565 0.3565 0.9343 -93.5301 60.3908)" class="st31" cx="117.1" cy="283.9" rx="8.6" ry="8.6"/>
			
				<ellipse transform="matrix(0.9343 -0.3565 0.3565 0.9343 -94.4094 66.1203)" class="st31" cx="132.2" cy="289.2" rx="14.8" ry="14.8"/>
			
				<ellipse transform="matrix(0.9343 -0.3565 0.3565 0.9343 -99.4701 60.3431)" class="st33" cx="113.9" cy="300" rx="5.2" ry="5.2"/>
			
				<ellipse transform="matrix(0.9343 -0.3565 0.3565 0.9343 -92.5295 65.6439)" class="st33" cx="131.8" cy="283.8" rx="5.2" ry="5.2"/>
			
				<ellipse transform="matrix(0.9342 -0.3567 0.3567 0.9342 -94.171 60.8473)" class="st33" cx="117.9" cy="285.7" rx="3.5" ry="3.5"/>
			
				<ellipse transform="matrix(0.9344 -0.3563 0.3563 0.9344 -96.5115 65.8554)" class="st33" cx="130.5" cy="294.9" rx="2.5" ry="2.5"/>
		</g>
		<g>
			<g>
				<g>
					<polygon class="st34" points="128.2,346.7 126,351.3 126,355.9 128.2,355.9 					"/>
				</g>
			</g>
			<g>
				<g>
					<polygon class="st35" points="115.6,355.9 126,351.3 126,355.9 					"/>
				</g>
			</g>
			<g>
				<g>
					<rect x="128.2" y="346.7" class="st36" width="81.7" height="78.8"/>
				</g>
			</g>
		</g>
		<path class="st31" d="M216.7,326.8c2.2,1.4,2.9,4.3,1.5,6.5l-25,40.1c-1.4,2.2-4.3,2.9-6.5,1.5l0,0c-2.2-1.4-2.9-4.3-1.5-6.5
			l25-40.1C211.6,326.1,214.5,325.4,216.7,326.8L216.7,326.8z"/>
		<g>
			<g>
				<path class="st37" d="M207.3,325.3l-6,32.1c-0.8,4.5-5.1,7.4-9.6,6.6c-2.2-0.4-4.1-1.7-5.3-3.4c-1.2-1.7-1.7-3.9-1.3-6.2l6-32.1
					c0.8-4.5,5.1-7.4,9.6-6.6c2.2,0.4,4.1,1.7,5.3,3.4C207.2,320.9,207.7,323.1,207.3,325.3z"/>
			</g>
			<g>
				<path class="st38" d="M191.3,351.7c1.6,8.8,3.5,16,0.4,17.3c-3.1,1.3-12.6-2.7-10.3-11.3c2.2-8.3-1.5-29.6-1.5-29.6
					S189.1,339.3,191.3,351.7z"/>
			</g>
			<g>
				<path class="st39" d="M200.7,315.7l-9,48.3c-2.2-0.4-4.1-1.7-5.3-3.4c-1.2-1.7-1.7-3.9-1.3-6.2l6-32.1
					C192,317.8,196.3,314.8,200.7,315.7z"/>
			</g>
			<g>
				<path class="st40" d="M196.6,352.7c-4.6,7.6-9,13.6-6.6,16c2.5,2.3,12.8,2,13.8-6.8c0.9-8.5,12.1-27,12.1-27
					S203.1,341.9,196.6,352.7z"/>
			</g>
			<g>
				<path class="st40" d="M189.8,379.6c-0.2,0.8-0.9,1.3-1.7,1.2l0,0c-0.8-0.2-1.3-0.9-1.2-1.7l2.4-13c0.2-0.8,0.9-1.3,1.7-1.2l0,0
					c0.8,0.2,1.3,0.9,1.2,1.7L189.8,379.6z"/>
			</g>
		</g>
		<g>
			<g>
				<path class="st30" d="M134.4,353.8c2.9,6,7.1,10.1,12.3,10.3c1,0,1.8-0.6,2.8-0.7c0.5,0,1.1,0.4,1.7,0.6
					c0.3,0.1,0.6,0.2,0.9,0.2c5.4-0.3,10-4.1,13-10.4c4.3-8.9,3-18.4-3-21.3c-0.8-0.4-1.6-0.7-2.4-1c-1-0.3-1.9-0.4-3-0.3
					c-1.8,0-3.9,0.5-6.7,1.5c-0.1,0-0.2,0.1-0.3,0.1c-4.8-2.1-8.7-2.1-12.4-0.3C131.4,335.5,130.1,345,134.4,353.8z"/>
			</g>
			<g>
				<path class="st41" d="M149.3,334.6c0.4,0,0.8-0.2,1-0.5c0.1-0.1,2-3.2,1.2-6.4c-0.5-1.9-1.7-3.4-3.7-4.5
					c-0.6-0.3-1.3-0.1-1.6,0.5c-0.3,0.6-0.1,1.3,0.5,1.6c1.4,0.8,2.3,1.8,2.6,3c0.6,2.2-0.9,4.6-0.9,4.6c-0.3,0.5-0.2,1.3,0.3,1.6
					C148.9,334.5,149.1,334.6,149.3,334.6z"/>
			</g>
			<g>
				
					<ellipse transform="matrix(0.7047 -0.7095 0.7095 0.7047 -200.0724 199.4071)" class="st5" cx="139.5" cy="340" rx="4.7" ry="2.8"/>
			</g>
			<path class="st38" d="M146,324.1c0,0,6,1.1,11-1.8c5-2.9,7-8.6,7-8.6s-6-1.1-11,1.8C148.1,318.3,146,324.1,146,324.1z"/>
		</g>
		<g>
			<g>
				<path class="st42" d="M81.5,294.6c10.5,9.9,20.8,15.9,20.8,15.9s-6.6-10-17.1-19.9c-10.4-9.9-20.8-15.9-20.8-15.9
					S71.1,284.8,81.5,294.6z"/>
				<path class="st33" d="M79.2,297.7c11.7,8.4,22.8,12.9,22.8,12.9s-7.9-9-19.6-17.4c-11.7-8.4-22.8-12.9-22.8-12.9
					S67.4,289.3,79.2,297.7z"/>
				<path class="st33" d="M89.4,295.5c5.5,9,11.6,15.2,11.6,15.2s-2.8-8.3-8.2-17.3c-5.5-9-11.6-15.2-11.6-15.2S84,286.5,89.4,295.5
					z"/>
			</g>
			<path class="st43" d="M106.7,320c10,9.4,19.2,15.9,20.6,14.3c1.4-1.5-5.5-10.4-15.4-19.8c-10-9.4-14.1-11-15.5-9.5
				C95,306.5,96.8,310.6,106.7,320z"/>
			<path class="st44" d="M102.8,315.3c0.3,0.3,0.7,0.3,1,0l1.6-1.7c0.3-0.3,0.3-0.7,0-1l0,0c-0.3-0.3-0.7-0.2-1,0l-1.6,1.7
				C102.5,314.6,102.5,315.1,102.8,315.3L102.8,315.3z"/>
			<path class="st44" d="M110.9,318.6c0.3,0.3,0.7,0.3,1,0l1.6-1.7c0.3-0.3,0.3-0.7,0-1l0,0c-0.3-0.3-0.7-0.3-1,0l-1.6,1.7
				C110.6,317.9,110.6,318.3,110.9,318.6L110.9,318.6z"/>
			<path class="st44" d="M114.1,326.1c0.3,0.3,0.7,0.3,1,0l1.6-1.7c0.3-0.3,0.2-0.7,0-1l0,0c-0.3-0.3-0.7-0.2-1,0l-1.6,1.7
				C113.8,325.4,113.8,325.8,114.1,326.1L114.1,326.1z"/>
			<path class="st44" d="M121.3,330.3c0.3,0.3,0.7,0.3,1,0l1.6-1.7c0.3-0.3,0.2-0.7,0-1l0,0c-0.3-0.3-0.7-0.2-1,0l-1.6,1.7
				C121,329.6,121,330,121.3,330.3L121.3,330.3z"/>
		</g>
		<g>
			<g>
				<path class="st45" d="M195.5,290.2c0.1,0.1,0.2,0.1,0.3,0.2c2.5,1.9,3.7,4.7,2.7,7l-28.3,64.3c-1,2.3-3.9,3.3-6.9,2.8
					c0,0,0,0-0.1-0.1c-2.8-2-3.6-7.9-2.4-15.9c0.2-1.2,0.4-2.5,0.7-3.8c0.4-1.7,0.8-3.4,1.3-5.2c0.3-1.2,0.7-2.4,1.1-3.6
					c0.5-1.6,1.1-3.3,1.7-5c0.4-1.2,0.8-2.3,1.3-3.5c0.6-1.5,1.3-3.1,2-4.7l0.1-0.2c0.5-1.2,1-2.3,1.6-3.4c0.8-1.6,1.6-3.2,2.4-4.7
					c0.6-1.1,1.2-2.3,1.8-3.3c0.9-1.6,1.8-3.1,2.8-4.6c0.7-1.1,1.4-2.2,2.1-3.2C185.4,294.8,191.4,289.7,195.5,290.2z"/>
				<path class="st46" d="M161.5,344.8l5.5,2.4c1,0.4,1.4,1.5,1,2.5c-0.4,1-1.5,1.4-2.5,1l-4.6-2C161,347.4,161.2,346.1,161.5,344.8
					z"/>
				<path class="st46" d="M163.8,335.9l6.8,3c1,0.4,1.4,1.5,1,2.5c-0.4,1-1.5,1.4-2.5,1l-6.3-2.8
					C163.1,338.4,163.4,337.1,163.8,335.9z"/>
				<path class="st46" d="M166.8,327.3l7.4,3.3c1,0.4,1.4,1.5,1,2.5c-0.4,1-1.5,1.4-2.5,1l-7.2-3.2
					C165.9,329.7,166.3,328.5,166.8,327.3z"/>
				<path class="st46" d="M170.4,319l7.5,3.3c1,0.4,1.4,1.5,1,2.5c-0.4,1-1.5,1.4-2.5,1l-7.5-3.3C169.4,321.3,169.9,320.2,170.4,319
					z"/>
				<path class="st46" d="M174.6,311l6.9,3c1,0.4,1.4,1.5,1,2.5c-0.4,1-1.5,1.4-2.5,1l-7.2-3.2C173.4,313.2,174,312.1,174.6,311z"/>
				<path class="st46" d="M179.5,303.3l5.7,2.5c1,0.4,1.4,1.5,1,2.5c-0.4,1-1.5,1.4-2.5,1l-6.3-2.8
					C178.1,305.3,178.8,304.3,179.5,303.3z"/>
			</g>
			<path class="st46" d="M195.7,290.4c2.5,1.9,3.7,4.7,2.7,7l-28.3,64.3c-1,2.3-3.9,3.3-6.9,2.8c0,0,0,0-0.1-0.1L195.7,290.4z"/>
		</g>
		<g>
			<path class="st47" d="M112.2,348.5c-1.2-3.9,0.9-8.1,4.8-9.3l11-3.5c3.9-1.3,8.1,0.9,9.3,4.8l1.9,14c1.2,3.9-0.9,8.1-4.8,9.3
				l-6.3,2c-3.9,1.2-8.1-0.9-9.3-4.8L112.2,348.5z"/>
			<path class="st48" d="M118.4,345.6c-0.3-0.8,0-1.7,0.7-2l0,0c0.8-0.3,1.7,0,2,0.7l7.5,16.3c0.3,0.8,0,1.7-0.7,2l0,0
				c-0.8,0.3-1.7,0-2-0.7L118.4,345.6z"/>
			<path class="st31" d="M115.5,340.1c-0.4-1.2,0.3-2.4,1.4-2.8l9.9-3.2c1.2-0.4,2.4,0.3,2.8,1.4l0,0c0.4,1.2-0.3,2.4-1.4,2.8
				l-9.9,3.2C117.2,341.9,115.9,341.3,115.5,340.1L115.5,340.1z"/>
			<path class="st31" d="M119.1,331c-0.2-0.7,0.2-1.4,0.8-1.6l0,0c0.7-0.2,1.4,0.2,1.6,0.8l1.8,5.7c0.2,0.7-0.2,1.4-0.8,1.6l0,0
				c-0.7,0.2-1.4-0.2-1.6-0.8L119.1,331z"/>
		</g>
		<g>
			<path class="st30" d="M168.1,342.3c0.7-4,4.6-6.7,8.6-5.9l11.4,2.1c4,0.7,6.7,4.6,5.9,8.6l-4.9,13.3c-0.7,4-4.6,6.7-8.6,5.9
				l-6.5-1.2c-4-0.7-6.7-4.6-5.9-8.6L168.1,342.3z"/>
			<path class="st49" d="M175,342.7c0.1-0.8,0.8-1.5,1.6-1.4l0,0c0.8,0.1,1.5,0.8,1.4,1.6l-1.1,17.9c-0.1,0.8-0.8,1.5-1.6,1.4l0,0
				c-0.8-0.1-1.5-0.8-1.4-1.6L175,342.7z"/>
			<path class="st31" d="M175,336.5c0.2-1.2,1.4-2,2.6-1.8l10.2,1.9c1.2,0.2,2,1.4,1.8,2.6l0,0c-0.2,1.2-1.4,2-2.6,1.8l-10.2-1.9
				C175.6,338.9,174.8,337.7,175,336.5L175,336.5z"/>
			<path class="st31" d="M182.5,330.1c0.1-0.7,0.8-1.1,1.5-1l0,0c0.7,0.1,1.1,0.8,1,1.5l-1.1,5.9c-0.1,0.7-0.8,1.1-1.5,1l0,0
				c-0.7-0.1-1.1-0.8-1-1.5L182.5,330.1z"/>
		</g>
		<g>
			<g>
				<polygon class="st35" points="209.9,346.7 209.9,425.5 200.5,425.5 197.3,434.7 197.3,355.9 200.3,350.3 200.5,350.2 				"/>
			</g>
		</g>
		<g>
			<g>
				<polygon class="st34" points="209.9,346.7 209.9,425.5 200.5,425.5 200.5,350.2 				"/>
			</g>
		</g>
		<g>
			<g>
				<rect x="115.6" y="355.9" class="st50" width="81.7" height="78.8"/>
			</g>
		</g>
		<g>
			<g>
				<path class="st51" d="M191.9,391.9l-1.3-1.9l0.5-2.2c1.6-6.8-2.7-13.6-9.9-15.8l-2.3-0.7l-1.1-2c-3.5-6.2-11.6-8.9-18.6-6.2
					l-2.2,0.8l-2.2-0.8c-7-2.6-15.1,0.1-18.6,6.2l-1.1,2l-2.3,0.7c-7.2,2.1-11.5,8.9-9.9,15.8l0.5,2.2l-1.3,1.9
					c-4,5.9-2.6,13.7,3.4,17.9l1.9,1.4l0.3,2.2c1,6.9,7.6,12,15.2,11.7l2.4-0.1l1.8,1.5c2.8,2.3,6.4,3.5,9.9,3.5
					c3.6,0,7.1-1.2,9.9-3.5l1.8-1.5l2.4,0.1c7.6,0.3,14.2-4.8,15.2-11.7l0.3-2.2l1.9-1.4C194.5,405.5,195.9,397.8,191.9,391.9z"/>
			</g>
		</g>
		<g>
			<g>
				<path class="st50" d="M189.8,391.9l-1.2-1.8l0.5-2c1.5-6.4-2.5-12.8-9.3-14.8l-2.2-0.6l-1.1-1.8c-3.3-5.8-10.9-8.3-17.5-5.9
					l-2.1,0.8l-2.1-0.8c-6.6-2.5-14.2,0.1-17.5,5.9l-1.1,1.8l-2.2,0.6c-6.8,2-10.8,8.4-9.3,14.8l0.5,2l-1.2,1.8
					c-3.8,5.6-2.4,12.9,3.2,16.9l1.8,1.3l0.3,2.1c1,6.5,7.1,11.3,14.3,11l2.3-0.1l1.7,1.4c2.6,2.2,6,3.3,9.3,3.3
					c3.3,0,6.7-1.1,9.3-3.3l1.7-1.4l2.3,0.1c7.1,0.3,13.3-4.5,14.3-11l0.3-2.1l1.8-1.3C192.3,404.8,193.7,397.5,189.8,391.9z"/>
			</g>
		</g>
		<g>
			<g>
				<path class="st51" d="M186.5,392.2l-1.1-1.6l0.4-1.8c1.4-5.8-2.3-11.5-8.4-13.3l-1.9-0.6l-0.9-1.6c-3-5.2-9.8-7.5-15.8-5.3
					l-1.9,0.7l-1.9-0.7c-5.9-2.2-12.8,0-15.8,5.3l-0.9,1.6l-1.9,0.6c-6.1,1.8-9.8,7.6-8.4,13.3l0.4,1.8l-1.1,1.6
					c-3.4,5-2.2,11.5,2.9,15.2l1.6,1.1l0.3,1.9c0.9,5.8,6.4,10.1,12.9,9.9l2-0.1l1.5,1.3c2.4,2,5.4,3,8.4,3c3,0,6-1,8.4-3l1.5-1.3
					l2,0.1c6.4,0.2,12-4.1,12.8-9.9l0.3-1.9l1.6-1.1C188.7,403.7,189.9,397.2,186.5,392.2z"/>
			</g>
		</g>
		<g>
			<g>
				<path class="st52" d="M222.7,309.2c-3.6,3-7.5,4.3-10.8,2.9c-0.7-0.3-1-0.9-1.6-1.3c-0.3-0.1-0.8-0.1-1.2-0.1
					c-0.2,0-0.4,0-0.6-0.1c-3.3-1.8-5.1-5.5-5.2-10.4c-0.1-6.9,3.5-12.5,8.1-12.6c0.7,0,1.3,0,1.8,0.1c0.7,0.1,1.3,0.3,2,0.6
					c1.1,0.6,2.3,1.5,3.8,2.9c0,0,0.1,0.1,0.2,0.1c3.7,0.1,6.1,1.2,8,3.4C230,298.4,228.1,304.8,222.7,309.2z"/>
			</g>
			<g>
				<path class="st41" d="M218.9,292.6c-0.2-0.1-0.4-0.3-0.5-0.6c0-0.1-0.3-2.6,1.1-4.4c0.8-1,2.1-1.6,3.7-1.7
					c0.4,0,0.8,0.3,0.9,0.7c0,0.4-0.3,0.8-0.7,0.9c-1.1,0.1-2,0.5-2.5,1.1c-1,1.3-0.8,3.2-0.8,3.2c0.1,0.4-0.2,0.8-0.7,0.9
					C219.2,292.7,219,292.7,218.9,292.6z"/>
			</g>
			<g>
				
					<ellipse transform="matrix(0.9394 -0.3429 0.3429 0.9394 -88.953 94.7608)" class="st5" cx="223.5" cy="299" rx="1.9" ry="3.3"/>
			</g>
		</g>
	</g>
	<text transform="matrix(1 0 0 1 134.776 392.5444)" class="st50 st53 st54">AMAP</text>
	<text transform="matrix(1 0 0 1 127.9898 402.4741)" class="st50 st53 st55">des Monts dOr</text>
</g>
</svg>
