<?xml version="1.0" encoding="utf-8"?>
<!-- Generator: Adobe Illustrator 21.1.0, SVG Export Plug-In . SVG Version: 6.00 Build 0)  -->
<!DOCTYPE svg PUBLIC "-//W3C//DTD SVG 1.1//EN" "http://www.w3.org/Graphics/SVG/1.1/DTD/svg11.dtd">
<svg version="1.1" id="Calque_1" xmlns="http://www.w3.org/2000/svg" xmlns:xlink="http://www.w3.org/1999/xlink" x="0px" y="0px"
	 viewBox="0 0 1398 867" style="enable-background:new 0 0 1398 867;" xml:space="preserve">
<style type="text/css">
	.st0{fill:#00BCD4;}
	.st1{fill:#233A56;}
	.st2{fill:#EE5159;}
	.st3{fill:#006989;}
	.st4{fill:#F4D194;}
	.st5{fill:#42B883;}
	.st6{fill:#FFFFFF;}
	.st7{clip-path:url(#SVGID_2_);}
	.st8{clip-path:url(#SVGID_4_);fill:#233A56;}
	.st9{clip-path:url(#SVGID_6_);}
	.st10{fill:#C4C4C4;}
	.st11{fill:#EFB9BE;}
	.st12{display:none;fill:#FFFFFF;}
	.st13{fill:#63686E;}
	.st14{fill:#A5A9AD;}
	.st15{clip-path:url(#SVGID_8_);}
	.st16{fill:#DAA88D;}
	.st17{fill:#F1F2F2;}
	.st18{fill:#E7E8E9;}
	.st19{fill:#EAC0A8;}
	.st20{fill:#F2D7BC;}
	.st21{fill:#30353B;}
	.st22{fill:#A1B3C0;}
</style>
<g id="bg">
	<path class="st0" d="M469.9,483l341.6-331.7c9.4-9.1,24.7-9.1,34.1,0l0,0c9.4,9.1,9.4,24,0,33.1L504.1,516.1
		c-9.4,9.1-24.7,9.1-34.1,0l0,0C460.5,507,460.5,492.1,469.9,483z"/>
	<path class="st1" d="M274.5,792.9l450.6-437.4c12.4-12.1,32.6-12.1,45,0l0,0c12.4,12.1,12.4,31.6,0,43.7L319.5,836.6
		c-12.4,12.1-32.6,12.1-45,0l0,0C262.1,824.5,262.1,804.9,274.5,792.9z"/>
	<path class="st2" d="M860.3,379.6l103.2-100.1c10-9.7,26.1-9.7,36.1,0l0,0c10,9.7,10,25.4,0,35L896.4,414.7
		c-10,9.7-26.1,9.7-36.1,0l0,0C850.3,405,850.3,389.3,860.3,379.6z"/>
	<path class="st3" d="M783.4,307.4l128.4-124.7c10.1-9.8,26.5-9.8,36.5,0l0,0c10.1,9.8,10.1,25.7,0,35.5L820,342.8
		c-10.1,9.8-26.5,9.8-36.5,0l0,0C773.3,333,773.3,317.2,783.4,307.4z"/>
	<path class="st2" d="M778.7,708.6l77.6-75.3c7.5-7.3,19.7-7.3,27.2,0l0,0c7.5,7.3,7.5,19.1,0,26.4L805.9,735
		c-7.5,7.3-19.7,7.3-27.2,0l0,0C771.2,727.7,771.2,715.9,778.7,708.6z"/>
	<path class="st2" d="M1025.3,468.4l77.6-75.3c7.5-7.3,19.7-7.3,27.2,0l0,0c7.5,7.3,7.5,19.1,0,26.4l-77.6,75.3
		c-7.5,7.3-19.7,7.3-27.2,0l0,0C1017.8,487.4,1017.8,475.6,1025.3,468.4z"/>
	<path class="st2" d="M1009.9,718.6l77.6-75.3c7.5-7.3,19.7-7.3,27.2,0l0,0c7.5,7.3,7.5,19.1,0,26.4l-77.6,75.3
		c-7.5,7.3-19.7,7.3-27.2,0l0,0C1002.4,737.7,1002.4,725.9,1009.9,718.6z"/>
	<path class="st4" d="M498,680.4l183.2-177.9c17.7-17.2,46.4-17.2,64.1,0l0,0c17.7,17.2,17.7,45.1,0,62.2L562.1,742.6
		c-17.7,17.2-46.4,17.2-64.1,0l0,0C480.3,725.4,480.3,697.6,498,680.4z"/>
	<path class="st1" d="M585.5,734l97.4-94.6c9.4-9.1,24.7-9.1,34.1,0l0,0c9.4,9.1,9.4,24,0,33.1l-97.4,94.6c-9.4,9.1-24.7,9.1-34.1,0
		l0,0C576,757.9,576,743.1,585.5,734z"/>
	<path class="st3" d="M685.2,717l23-22.3c9.4-9.1,24.7-9.1,34.1,0l0,0c9.4,9.1,9.4,24,0,33.1l-23,22.3c-9.4,9.1-24.7,9.1-34.1,0l0,0
		C675.8,741,675.8,726.2,685.2,717z"/>
	<path class="st3" d="M774.9,447.7l23-22.3c9.4-9.1,24.7-9.1,34.1,0l0,0c9.4,9.1,9.4,24,0,33.1l-23,22.3c-9.4,9.1-24.7,9.1-34.1,0
		l0,0C765.5,471.7,765.5,456.9,774.9,447.7z"/>
	<path class="st5" d="M336.1,181.2l23-22.3c9.4-9.1,24.7-9.1,34.1,0l0,0c9.4,9.1,9.4,24,0,33.1l-23,22.3c-9.4,9.1-24.7,9.1-34.1,0
		l0,0C326.7,205.2,326.7,190.3,336.1,181.2z"/>
	<path class="st2" d="M461.2,168.5l23-22.3c9.4-9.1,24.7-9.1,34.1,0l0,0c9.4,9.1,9.4,24,0,33.1l-23,22.3c-9.4,9.1-24.7,9.1-34.1,0
		l0,0C451.8,192.5,451.8,177.6,461.2,168.5z"/>
	<path class="st5" d="M164.8,477.7l23-22.3c9.4-9.1,24.7-9.1,34.1,0l0,0c9.4,9.1,9.4,24,0,33.1l-23,22.3c-9.4,9.1-24.7,9.1-34.1,0
		l0,0C155.4,501.6,155.4,486.8,164.8,477.7z"/>
	<path class="st0" d="M924.5,647.2l23-22.3c9.4-9.1,24.7-9.1,34.1,0l0,0c9.4,9.1,9.4,24,0,33.1l-23,22.3c-9.4,9.1-24.7,9.1-34.1,0
		l0,0C915.1,671.2,915.1,656.3,924.5,647.2z"/>
	<path class="st0" d="M1149.4,418.7l23-22.3c9.4-9.1,24.7-9.1,34.1,0l0,0c9.4,9.1,9.4,24,0,33.1l-23,22.3c-9.4,9.1-24.7,9.1-34.1,0
		l0,0C1140,442.7,1140,427.9,1149.4,418.7z"/>
	<path class="st0" d="M1088.1,571.3l1.8-1.7c9.4-9.1,24.7-9.1,34.1,0l0,0c9.4,9.1,9.4,24,0,33.1l-1.8,1.7c-9.4,9.1-24.7,9.1-34.1,0
		l0,0C1078.7,595.2,1078.7,580.4,1088.1,571.3z"/>
	<path class="st0" d="M1171.1,626.6l1.8-1.7c9.4-9.1,24.7-9.1,34.1,0l0,0c9.4,9.1,9.4,24,0,33.1l-1.8,1.7c-9.4,9.1-24.7,9.1-34.1,0
		l0,0C1161.7,650.5,1161.7,635.7,1171.1,626.6z"/>
	<path class="st1" d="M253.6,284.5l23-22.3c9.4-9.1,24.7-9.1,34.1,0l0,0c9.4,9.1,9.4,24,0,33.1l-23,22.3c-9.4,9.1-24.7,9.1-34.1,0
		l0,0C244.2,308.5,244.2,293.7,253.6,284.5z"/>
	<path class="st1" d="M82.3,581l23-22.3c9.4-9.1,24.7-9.1,34.1,0l0,0c9.4,9.1,9.4,24,0,33.1l-23,22.3c-9.4,9.1-24.7,9.1-34.1,0l0,0
		C72.9,605,72.9,590.2,82.3,581z"/>
	<path class="st0" d="M894.5,738.1L894.5,738.1c8.9-8.6,23.2-8.6,32.1,0l0,0c8.9,8.6,8.9,22.5,0,31.1l0,0c-8.9,8.6-23.2,8.6-32.1,0
		l0,0C885.7,760.6,885.7,746.7,894.5,738.1z"/>
	<path class="st2" d="M1253.5,424.4L1253.5,424.4c8.9-8.6,23.2-8.6,32.1,0l0,0c8.9,8.6,8.9,22.5,0,31.1l0,0
		c-8.9,8.6-23.2,8.6-32.1,0l0,0C1244.7,446.9,1244.7,433,1253.5,424.4z"/>
	<path class="st4" d="M423.8,108.2L423.8,108.2c8.9-8.6,23.2-8.6,32.1,0l0,0c8.9,8.6,8.9,22.5,0,31.1l0,0c-8.9,8.6-23.2,8.6-32.1,0
		l0,0C414.9,130.7,414.9,116.8,423.8,108.2z"/>
	<path class="st0" d="M520.1,778.6L520.1,778.6c8.9-8.6,23.2-8.6,32.1,0l0,0c8.9,8.6,8.9,22.5,0,31.1l0,0c-8.9,8.6-23.2,8.6-32.1,0
		l0,0C511.2,801.1,511.2,787.2,520.1,778.6z"/>
	<path class="st3" d="M249.9,184.1L249.9,184.1c8.9-8.6,23.2-8.6,32.1,0l0,0c8.9,8.6,8.9,22.5,0,31.1l0,0c-8.9,8.6-23.2,8.6-32.1,0
		l0,0C241,206.7,241,192.7,249.9,184.1z"/>
	<path class="st3" d="M994.8,136.4L994.8,136.4c8.9-8.6,23.2-8.6,32.1,0l0,0c8.9,8.6,8.9,22.5,0,31.1l0,0c-8.9,8.6-23.2,8.6-32.1,0
		l0,0C986,159,986,145,994.8,136.4z"/>
	<path class="st2" d="M86.7,475.2L86.7,475.2c8.9-8.6,23.2-8.6,32.1,0l0,0c8.9,8.6,8.9,22.5,0,31.1l0,0c-8.9,8.6-23.2,8.6-32.1,0
		l0,0C77.8,497.7,77.8,483.8,86.7,475.2z"/>
	<path class="st0" d="M1071.3,171.5L1071.3,171.5c8.9-8.6,23.2-8.6,32.1,0l0,0c8.9,8.6,8.9,22.5,0,31.1l0,0
		c-8.9,8.6-23.2,8.6-32.1,0l0,0C1062.5,194,1062.5,180,1071.3,171.5z"/>
	<path class="st0" d="M203.6,371.8L203.6,371.8c8.9-8.6,23.2-8.6,32.1,0l0,0c8.9,8.6,8.9,22.5,0,31.1l0,0c-8.9,8.6-23.2,8.6-32.1,0
		l0,0C194.8,394.3,194.8,380.4,203.6,371.8z"/>
	<path class="st4" d="M1010.7,565l33.6-32.6c9.4-9.1,24.7-9.1,34.1,0l0,0c9.4,9.1,9.4,24,0,33.1l-33.6,32.6
		c-9.4,9.1-24.7,9.1-34.1,0l0,0C1001.3,589,1001.3,574.1,1010.7,565z"/>
	<path class="st4" d="M1247.3,328.4l33.6-32.6c9.4-9.1,24.7-9.1,34.1,0l0,0c9.4,9.1,9.4,24,0,33.1l-33.6,32.6
		c-9.4,9.1-24.7,9.1-34.1,0l0,0C1237.9,352.3,1237.9,337.5,1247.3,328.4z"/>
	<path class="st4" d="M125.8,369.2l33.6-32.6c9.4-9.1,24.7-9.1,34.1,0l0,0c9.4,9.1,9.4,24,0,33.1l-33.6,32.6
		c-9.4,9.1-24.7,9.1-34.1,0l0,0C116.4,393.1,116.4,378.3,125.8,369.2z"/>
	<path class="st5" d="M909.1,564.1l33.6-32.6c9.4-9.1,24.7-9.1,34.1,0l0,0c9.4,9.1,9.4,24,0,33.1l-33.6,32.6
		c-9.4,9.1-24.7,9.1-34.1,0l0,0C899.7,588.1,899.7,573.2,909.1,564.1z"/>
	<path class="st5" d="M1161.2,294.8l33.6-32.6c9.4-9.1,24.7-9.1,34.1,0l0,0c9.4,9.1,9.4,24,0,33.1l-33.6,32.6
		c-9.4,9.1-24.7,9.1-34.1,0l0,0C1151.8,318.8,1151.8,304,1161.2,294.8z"/>
	<path class="st5" d="M1145.8,545.1l33.6-32.6c9.4-9.1,24.7-9.1,34.1,0l0,0c9.4,9.1,9.4,24,0,33.1l-33.6,32.6
		c-9.4,9.1-24.7,9.1-34.1,0l0,0C1136.3,569,1136.3,554.2,1145.8,545.1z"/>
	<path class="st5" d="M405.9,803.4l33.6-32.6c9.4-9.1,24.7-9.1,34.1,0l0,0c9.4,9.1,9.4,24,0,33.1L440,836.5
		c-9.4,9.1-24.7,9.1-34.1,0l0,0C396.5,827.4,396.5,812.6,405.9,803.4z"/>
	<path class="st2" d="M296.2,558.9l35.7-34.7c9.4-9.1,24.7-9.1,34.1,0l0,0c9.4,9.1,9.4,24,0,33.1L330.3,592
		c-9.4,9.1-24.7,9.1-34.1,0l0,0C286.8,582.9,286.8,568.1,296.2,558.9z"/>
	<path class="st0" d="M456.7,278.8l97.4-94.6c9.4-9.1,24.7-9.1,34.1,0l0,0c9.4,9.1,9.4,24,0,33.1l-97.4,94.6
		c-9.4,9.1-24.7,9.1-34.1,0l0,0C447.3,302.8,447.3,288,456.7,278.8z"/>
	<path class="st4" d="M288.1,351.4l97.4-94.6c9.4-9.1,24.7-9.1,34.1,0l0,0c9.4,9.1,9.4,24,0,33.1l-97.4,94.6
		c-9.4,9.1-24.7,9.1-34.1,0l0,0C278.7,375.3,278.7,360.5,288.1,351.4z"/>
	<path class="st2" d="M116.7,647.8l97.4-94.6c9.4-9.1,24.7-9.1,34.1,0l0,0c9.4,9.1,9.4,24,0,33.1l-97.4,94.6
		c-9.4,9.1-24.7,9.1-34.1,0l0,0C107.3,671.8,107.3,657,116.7,647.8z"/>
	<path class="st4" d="M396,464.9l97.4-94.6c9.4-9.1,24.7-9.1,34.1,0l0,0c9.4,9.1,9.4,24,0,33.1L430.1,498c-9.4,9.1-24.7,9.1-34.1,0
		l0,0C386.6,488.9,386.6,474.1,396,464.9z"/>
	<path class="st4" d="M1017.9,320.5l97.4-94.6c9.4-9.1,24.7-9.1,34.1,0l0,0c9.4,9.1,9.4,24,0,33.1l-97.4,94.6
		c-9.4,9.1-24.7,9.1-34.1,0l0,0C1008.5,344.5,1008.5,329.7,1017.9,320.5z"/>
	<path class="st3" d="M534.1,302.9l130.5-126.7c12.6-12.2,33.1-12.2,45.7,0l0,0c12.6,12.2,12.6,32.1,0,44.3L579.8,347.3
		c-12.6,12.2-33.1,12.2-45.7,0l0,0C521.5,335,521.5,315.2,534.1,302.9z"/>
	<path class="st5" d="M767.3,557.1l183.2-177.9c17.7-17.2,46.4-17.2,64.1,0l0,0c17.7,17.2,17.7,45.1,0,62.2L831.4,619.3
		c-17.7,17.2-46.4,17.2-64.1,0l0,0C749.6,602.1,749.6,574.3,767.3,557.1z"/>
	<path class="st5" d="M259.5,706.8l110.2-107c10.6-10.3,27.9-10.3,38.6,0l0,0c10.6,10.3,10.6,27.1,0,37.4L298,744.3
		c-10.6,10.3-27.9,10.3-38.6,0l0,0C248.8,733.9,248.8,717.2,259.5,706.8z"/>
	<path class="st0" d="M260.4,473.6l105.3-102.2c10.2-9.9,26.7-9.9,36.8,0l0,0c10.2,9.9,10.2,25.9,0,35.8L297.3,509.4
		c-10.2,9.9-26.7,9.9-36.8,0l0,0C250.3,499.5,250.3,483.5,260.4,473.6z"/>
</g>
<g>
	<g>
		<path class="st6" d="M1056.4,666H341.6c-20.5,0-37.1-16.6-37.1-37.1V238c0-20.5,16.6-37.1,37.1-37.1h714.8
			c20.5,0,37.1,16.6,37.1,37.1v391C1093.5,649.4,1076.9,666,1056.4,666z"/>
	</g>
</g>
<g id="site-card">
	<g>
		<defs>
			<path id="SVGID_1_" d="M1056.4,666H341.6c-20.5,0-37.1-16.6-37.1-37.1V238c0-20.5,16.6-37.1,37.1-37.1h714.8
				c20.5,0,37.1,16.6,37.1,37.1v391C1093.5,649.4,1076.9,666,1056.4,666z"/>
		</defs>
		<clipPath id="SVGID_2_">
			<use xlink:href="#SVGID_1_"  style="overflow:visible;"/>
		</clipPath>
		<g class="st7">
			<g>
				<path class="st6" d="M1056.4,666H341.6c-20.5,0-37.1-16.6-37.1-37.1V238c0-20.5,16.6-37.1,37.1-37.1h714.8
					c20.5,0,37.1,16.6,37.1,37.1v391C1093.5,649.4,1076.9,666,1056.4,666z"/>
			</g>
		</g>
	</g>
	<g>
		<defs>
			<path id="SVGID_3_" d="M1056.4,666H341.6c-20.5,0-37.1-16.6-37.1-37.1V238c0-20.5,16.6-37.1,37.1-37.1h714.8
				c20.5,0,37.1,16.6,37.1,37.1v391C1093.5,649.4,1076.9,666,1056.4,666z"/>
		</defs>
		<clipPath id="SVGID_4_">
			<use xlink:href="#SVGID_3_"  style="overflow:visible;"/>
		</clipPath>
		<rect x="304.5" y="201" class="st8" width="163.8" height="465.1"/>
	</g>
	<g>
		<defs>
			<path id="SVGID_5_" d="M1056.4,666H341.6c-20.5,0-37.1-16.6-37.1-37.1V238c0-20.5,16.6-37.1,37.1-37.1h714.8
				c20.5,0,37.1,16.6,37.1,37.1v391C1093.5,649.4,1076.9,666,1056.4,666z"/>
		</defs>
		<clipPath id="SVGID_6_">
			<use xlink:href="#SVGID_5_"  style="overflow:visible;"/>
		</clipPath>
		<g class="st9">
			<path class="st6" d="M339.6,234.3v13.5h-13.5v-13.5H339.6 M343.4,230.4h-21.2v21.2h21.2V230.4z"/>
		</g>
	</g>
</g>
<g>
	<path class="st6" d="M448,284.6h-89.5c-3.4,0-6.2-2.8-6.2-6.2l0,0c0-3.4,2.8-6.2,6.2-6.2H448c3.4,0,6.2,2.8,6.2,6.2l0,0
		C454.2,281.9,451.4,284.6,448,284.6z"/>
	<path class="st6" d="M339.5,284.6H324c-3.4,0-6.2-2.8-6.2-6.2l0,0c0-3.4,2.8-6.2,6.2-6.2h15.5c3.4,0,6.2,2.8,6.2,6.2l0,0
		C345.7,281.9,342.9,284.6,339.5,284.6z"/>
</g>
<g>
	<path class="st6" d="M448,310.6h-89.5c-3.4,0-6.2-2.8-6.2-6.2l0,0c0-3.4,2.8-6.2,6.2-6.2H448c3.4,0,6.2,2.8,6.2,6.2l0,0
		C454.2,307.8,451.4,310.6,448,310.6z"/>
	<path class="st6" d="M339.5,310.6H324c-3.4,0-6.2-2.8-6.2-6.2l0,0c0-3.4,2.8-6.2,6.2-6.2h15.5c3.4,0,6.2,2.8,6.2,6.2l0,0
		C345.7,307.8,342.9,310.6,339.5,310.6z"/>
</g>
<g>
	<path class="st6" d="M448,341h-89.5c-3.4,0-6.2-2.8-6.2-6.2l0,0c0-3.4,2.8-6.2,6.2-6.2H448c3.4,0,6.2,2.8,6.2,6.2l0,0
		C454.2,338.2,451.4,341,448,341z"/>
	<path class="st6" d="M339.5,341H324c-3.4,0-6.2-2.8-6.2-6.2l0,0c0-3.4,2.8-6.2,6.2-6.2h15.5c3.4,0,6.2,2.8,6.2,6.2l0,0
		C345.7,338.2,342.9,341,339.5,341z"/>
</g>
<g>
	<path class="st6" d="M448,371.6h-89.5c-3.4,0-6.2-2.8-6.2-6.2l0,0c0-3.4,2.8-6.2,6.2-6.2H448c3.4,0,6.2,2.8,6.2,6.2l0,0
		C454.2,368.8,451.4,371.6,448,371.6z"/>
	<path class="st6" d="M339.5,371.6H324c-3.4,0-6.2-2.8-6.2-6.2l0,0c0-3.4,2.8-6.2,6.2-6.2h15.5c3.4,0,6.2,2.8,6.2,6.2l0,0
		C345.7,368.8,342.9,371.6,339.5,371.6z"/>
</g>
<g>
	<path class="st6" d="M448,634h-89.5c-3.4,0-6.2-2.8-6.2-6.2l0,0c0-3.4,2.8-6.2,6.2-6.2H448c3.4,0,6.2,2.8,6.2,6.2l0,0
		C454.2,631.2,451.4,634,448,634z"/>
	<path class="st6" d="M339.5,634H324c-3.4,0-6.2-2.8-6.2-6.2l0,0c0-3.4,2.8-6.2,6.2-6.2h15.5c3.4,0,6.2,2.8,6.2,6.2l0,0
		C345.7,631.2,342.9,634,339.5,634z"/>
</g>
<g>
	<path class="st10" d="M868.7,306.5H499.3c-4.6,0-8.3-3.7-8.3-8.3l0,0c0-4.6,3.7-8.3,8.3-8.3h369.4c4.6,0,8.3,3.7,8.3,8.3l0,0
		C877,302.8,873.3,306.5,868.7,306.5z"/>
	<path class="st10" d="M1064.6,332.6H695.2c-4.6,0-8.3-3.7-8.3-8.3l0,0c0-4.6,3.7-8.3,8.3-8.3h369.4c4.6,0,8.3,3.7,8.3,8.3l0,0
		C1072.9,328.8,1069.2,332.6,1064.6,332.6z"/>
	<path class="st10" d="M868.7,360.6H499.3c-4.6,0-8.3-3.7-8.3-8.3l0,0c0-4.6,3.7-8.3,8.3-8.3h369.4c4.6,0,8.3,3.7,8.3,8.3l0,0
		C877,356.9,873.3,360.6,868.7,360.6z"/>
	<path class="st10" d="M868.7,390.9H499.3c-4.6,0-8.3-3.7-8.3-8.3l0,0c0-4.6,3.7-8.3,8.3-8.3h369.4c4.6,0,8.3,3.7,8.3,8.3l0,0
		C877,387.2,873.3,390.9,868.7,390.9z"/>
	<path class="st5" d="M564.2,284.6h-66c-4.6,0-8.3-3.7-8.3-8.3l0,0c0-4.6,3.7-8.3,8.3-8.3h66c4.6,0,8.3,3.7,8.3,8.3l0,0
		C572.5,280.9,568.8,284.6,564.2,284.6z"/>
	<g>
		<path class="st2" d="M519,410.6v19.7c0,1.3-1.1,2.4-2.6,2.4l0,0h-19.6c-1.4,0-2.6-1.1-2.6-2.4l0,0V405c0-1.3,1.1-2.4,2.6-2.4l0,0
			h13.6L519,410.6z"/>
		<path class="st11" d="M519,410.2v1h-7c-1.4,0-2.1-1.1-2.1-2.4v-6h1.1L519,410.2z"/>
		<path class="st12" d="M503,423.3c-0.2,0-0.4,0-0.6-0.1s-0.4-0.2-0.5-0.4h-0.1c0,0.2,0.1,0.4,0.1,0.5v1.7h-1.5v-6h1.3l0.2,0.5l0,0
			c0.3-0.4,0.7-0.6,1.2-0.6s0.9,0.2,1.2,0.6c0.3,0.5,0.5,1,0.4,1.6c0,0.6-0.1,1.1-0.4,1.6C503.9,423.1,503.4,423.4,503,423.3z
			 M502.5,420.2c-0.2,0-0.4,0.1-0.5,0.2c-0.1,0.2-0.2,0.4-0.2,0.7v0.1c0,0.3,0,0.5,0.2,0.8c0.1,0.2,0.3,0.3,0.5,0.2
			c0.2,0,0.3-0.1,0.4-0.2c0.1-0.2,0.2-0.5,0.1-0.8c0-0.3,0-0.5-0.1-0.8C502.8,420.3,502.6,420.2,502.5,420.2L502.5,420.2z"/>
		<path class="st12" d="M506.9,423.3c-0.3,0-0.6-0.1-0.8-0.3c-0.3-0.2-0.4-0.5-0.5-0.7c-0.1-0.4-0.2-0.8-0.2-1.1
			c0-0.6,0.1-1.1,0.4-1.6c0.4-0.5,1.2-0.7,1.9-0.4c0.2,0.1,0.4,0.3,0.5,0.5l0,0c-0.1-0.3-0.1-0.6-0.1-1v-1.1h1.6v5.7h-1.2l-0.3-0.5
			H508C507.8,423.1,507.3,423.4,506.9,423.3z M507.5,422.2c0.2,0,0.4-0.1,0.5-0.2c0.1-0.2,0.2-0.4,0.2-0.7v-0.1c0-0.3,0-0.5-0.2-0.8
			c-0.1-0.2-0.3-0.2-0.5-0.2s-0.4,0.1-0.5,0.3c-0.1,0.2-0.2,0.5-0.1,0.8c0,0.3,0,0.5,0.2,0.7C507.1,422.1,507.3,422.2,507.5,422.2
			L507.5,422.2z"/>
		<path class="st12" d="M513.4,420.2h-1v3.1h-1.5v-3.1h-0.6v-0.7l0.6-0.4V419c0-0.4,0.1-0.8,0.4-1.2c0.3-0.3,0.7-0.4,1.2-0.4
			c0.2,0,0.4,0,0.6,0c0.2,0,0.4,0.1,0.6,0.2l-0.3,0.9c-0.2,0-0.4-0.1-0.6-0.1c-0.1,0-0.2,0-0.3,0.1s-0.1,0.2-0.1,0.3v0.1h0.9
			L513.4,420.2z"/>
	</g>
	<g>
		<path class="st13" d="M553.2,410.6v19.7c0,1.3-1.1,2.4-2.4,2.4l0,0h-18.2c-1.3,0-2.4-1.1-2.4-2.4l0,0V405c0-1.3,1.1-2.4,2.4-2.4
			l0,0h12.7L553.2,410.6z"/>
		<path class="st14" d="M553.2,410.2v1h-6.5c-1.3,0-2-1.1-2-2.4v-6h1L553.2,410.2z"/>
		<path class="st12" d="M538.4,420.2h-0.9v3.1h-1.4v-3.1h-0.5v-0.7l0.6-0.4V419c0-0.4,0.1-0.8,0.3-1.2c0.3-0.3,0.7-0.4,1.1-0.4
			c0.2,0,0.4,0,0.5,0c0.2,0,0.4,0.1,0.6,0.2l-0.3,0.9c-0.2,0-0.3-0.1-0.5-0.1c-0.1,0-0.2,0-0.2,0.1c-0.1,0.1-0.1,0.2-0.1,0.3v0.1
			h0.9L538.4,420.2z M539,418.1c0-0.2,0.1-0.3,0.2-0.5c0.2-0.1,0.4-0.2,0.6-0.2c0.2,0,0.4,0,0.6,0.2c0.1,0.1,0.2,0.3,0.2,0.5
			c0,0.4-0.3,0.6-0.8,0.6C539.2,418.7,539,418.5,539,418.1z M540.4,423.3H539v-4.2h1.4V423.3z"/>
		<path class="st12" d="M542.9,423.3h-1.4v-5.7h1.4V423.3z"/>
		<path class="st12" d="M545.9,423.3c-0.6,0-1.2-0.2-1.6-0.6c-0.4-0.4-0.6-1-0.6-1.6s0.2-1.2,0.5-1.6c0.4-0.4,1-0.6,1.5-0.6
			s1,0.1,1.4,0.5s0.5,0.9,0.5,1.4v0.6H545c0,0.2,0.1,0.4,0.3,0.5s0.4,0.2,0.7,0.2c0.2,0,0.5,0,0.7-0.1s0.5-0.1,0.7-0.2v1
			c-0.2,0.1-0.5,0.2-0.7,0.2C546.4,423.3,546.1,423.3,545.9,423.3z M545.8,420c-0.2,0-0.3,0.1-0.4,0.2c-0.1,0.1-0.2,0.3-0.2,0.5h1.2
			c0-0.2-0.1-0.3-0.2-0.5C546.1,420.1,545.9,420,545.8,420L545.8,420z"/>
	</g>
	<g>
		<path class="st13" d="M589.9,410.6v19.7c0,1.3-1.1,2.4-2.4,2.4l0,0h-18.2c-1.3,0-2.4-1.1-2.4-2.4l0,0V405c0-1.3,1.1-2.4,2.4-2.4
			l0,0H582L589.9,410.6z"/>
		<path class="st14" d="M589.9,410.2v1h-6.5c-1.3,0-2-1.1-2-2.4v-6h1L589.9,410.2z"/>
		<path class="st12" d="M575.1,420.2h-0.9v3.1h-1.4v-3.1h-0.5v-0.7l0.6-0.4V419c0-0.4,0.1-0.8,0.3-1.2c0.3-0.3,0.7-0.4,1.1-0.4
			c0.2,0,0.4,0,0.5,0c0.2,0,0.4,0.1,0.6,0.2l-0.3,0.9c-0.2,0-0.3-0.1-0.5-0.1c-0.1,0-0.2,0-0.2,0.1c-0.1,0.1-0.1,0.2-0.1,0.3v0.1
			h0.9L575.1,420.2z M575.7,418.1c0-0.2,0.1-0.3,0.2-0.5c0.2-0.1,0.4-0.2,0.6-0.2c0.2,0,0.4,0,0.6,0.2c0.1,0.1,0.2,0.3,0.2,0.5
			c0,0.4-0.3,0.6-0.8,0.6C575.9,418.7,575.7,418.5,575.7,418.1z M577.1,423.3h-1.4v-4.2h1.4V423.3z"/>
		<path class="st12" d="M579.6,423.3h-1.4v-5.7h1.4V423.3z"/>
		<path class="st12" d="M582.6,423.3c-0.6,0-1.2-0.2-1.6-0.6c-0.4-0.4-0.6-1-0.6-1.6s0.2-1.2,0.5-1.6c0.4-0.4,1-0.6,1.5-0.6
			s1,0.1,1.4,0.5s0.5,0.9,0.5,1.4v0.6h-2.6c0,0.2,0.1,0.4,0.3,0.5s0.4,0.2,0.7,0.2c0.2,0,0.5,0,0.7-0.1s0.5-0.1,0.7-0.2v1
			c-0.2,0.1-0.5,0.2-0.7,0.2C583.1,423.3,582.8,423.3,582.6,423.3z M582.5,420c-0.2,0-0.3,0.1-0.4,0.2c-0.1,0.1-0.2,0.3-0.2,0.5h1.2
			c0-0.2-0.1-0.3-0.2-0.5C582.8,420.1,582.6,420,582.5,420L582.5,420z"/>
	</g>
</g>
<g>
	<g>
		<path class="st2" d="M519,625v19.7c0,1.3-1.1,2.4-2.6,2.4l0,0h-19.6c-1.4,0-2.6-1.1-2.6-2.4l0,0v-25.3c0-1.3,1.1-2.4,2.6-2.4l0,0
			h13.6L519,625z"/>
		<path class="st11" d="M519,624.5v1h-7c-1.4,0-2.1-1.1-2.1-2.4v-6h1.1L519,624.5z"/>
		<path class="st12" d="M503,637.7c-0.2,0-0.4,0-0.6-0.1s-0.4-0.2-0.5-0.4h-0.1c0,0.2,0.1,0.4,0.1,0.5v1.7h-1.5v-6h1.3l0.2,0.5l0,0
			c0.3-0.4,0.7-0.6,1.2-0.6s0.9,0.2,1.2,0.6c0.3,0.5,0.5,1,0.4,1.6c0,0.6-0.1,1.1-0.4,1.6C503.9,637.5,503.4,637.7,503,637.7z
			 M502.5,634.5c-0.2,0-0.4,0.1-0.5,0.2c-0.1,0.2-0.2,0.4-0.2,0.7v0.1c0,0.3,0,0.5,0.2,0.8c0.1,0.2,0.3,0.3,0.5,0.2
			c0.2,0,0.3-0.1,0.4-0.2c0.1-0.2,0.2-0.5,0.1-0.8c0-0.3,0-0.5-0.1-0.8C502.8,634.6,502.6,634.5,502.5,634.5L502.5,634.5z"/>
		<path class="st12" d="M506.9,637.7c-0.3,0-0.6-0.1-0.8-0.3c-0.3-0.2-0.4-0.5-0.5-0.7c-0.1-0.4-0.2-0.8-0.2-1.1
			c0-0.6,0.1-1.1,0.4-1.6c0.4-0.5,1.2-0.7,1.9-0.4c0.2,0.1,0.4,0.3,0.5,0.5l0,0c-0.1-0.3-0.1-0.6-0.1-1V632h1.6v5.7h-1.2l-0.3-0.5
			H508C507.8,637.5,507.3,637.7,506.9,637.7z M507.5,636.6c0.2,0,0.4-0.1,0.5-0.2c0.1-0.2,0.2-0.4,0.2-0.7v-0.1c0-0.3,0-0.5-0.2-0.8
			c-0.1-0.2-0.3-0.2-0.5-0.2s-0.4,0.1-0.5,0.3s-0.2,0.5-0.1,0.8c0,0.3,0,0.5,0.2,0.7C507.1,636.5,507.3,636.6,507.5,636.6
			L507.5,636.6z"/>
		<path class="st12" d="M513.4,634.6h-1v3.1h-1.5v-3.1h-0.6v-0.7l0.6-0.4v-0.1c0-0.4,0.1-0.8,0.4-1.2c0.3-0.3,0.7-0.4,1.2-0.4
			c0.2,0,0.4,0,0.6,0c0.2,0,0.4,0.1,0.6,0.2l-0.3,0.9c-0.2,0-0.4-0.1-0.6-0.1c-0.1,0-0.2,0-0.3,0.1s-0.1,0.2-0.1,0.3v0.1h0.9
			L513.4,634.6z"/>
	</g>
	<g>
		<path class="st13" d="M553.2,625v19.7c0,1.3-1.1,2.4-2.4,2.4l0,0h-18.2c-1.3,0-2.4-1.1-2.4-2.4l0,0v-25.3c0-1.3,1.1-2.4,2.4-2.4
			l0,0h12.7L553.2,625z"/>
		<path class="st14" d="M553.2,624.5v1h-6.5c-1.3,0-2-1.1-2-2.4v-6h1L553.2,624.5z"/>
		<path class="st12" d="M538.4,634.6h-0.9v3.1h-1.4v-3.1h-0.5v-0.7l0.6-0.4v-0.1c0-0.4,0.1-0.8,0.3-1.2c0.3-0.3,0.7-0.4,1.1-0.4
			c0.2,0,0.4,0,0.5,0c0.2,0,0.4,0.1,0.6,0.2l-0.3,0.9c-0.2,0-0.3-0.1-0.5-0.1c-0.1,0-0.2,0-0.2,0.1c-0.1,0.1-0.1,0.2-0.1,0.3v0.1
			h0.9L538.4,634.6z M539,632.5c0-0.2,0.1-0.3,0.2-0.5c0.2-0.1,0.4-0.2,0.6-0.2c0.2,0,0.4,0,0.6,0.2c0.1,0.1,0.2,0.3,0.2,0.5
			c0,0.4-0.3,0.6-0.8,0.6C539.2,633.1,539,632.9,539,632.5z M540.4,637.7H539v-4.2h1.4V637.7z"/>
		<path class="st12" d="M542.9,637.7h-1.4V632h1.4V637.7z"/>
		<path class="st12" d="M545.9,637.7c-0.6,0-1.2-0.2-1.6-0.6c-0.4-0.4-0.6-1-0.6-1.6s0.2-1.2,0.5-1.6c0.4-0.4,1-0.6,1.5-0.6
			s1,0.1,1.4,0.5s0.5,0.9,0.5,1.4v0.6H545c0,0.2,0.1,0.4,0.3,0.5s0.4,0.2,0.7,0.2c0.2,0,0.5,0,0.7-0.1s0.5-0.1,0.7-0.2v1
			c-0.2,0.1-0.5,0.2-0.7,0.2C546.4,637.7,546.1,637.7,545.9,637.7z M545.8,634.4c-0.2,0-0.3,0.1-0.4,0.2c-0.1,0.1-0.2,0.3-0.2,0.5
			h1.2c0-0.2-0.1-0.3-0.2-0.5C546.1,634.5,545.9,634.4,545.8,634.4L545.8,634.4z"/>
	</g>
	<g>
		<path class="st2" d="M589.9,625v19.7c0,1.3-1.1,2.4-2.4,2.4l0,0h-18.2c-1.3,0-2.4-1.1-2.4-2.4l0,0v-25.3c0-1.3,1.1-2.4,2.4-2.4
			l0,0H582L589.9,625z"/>
		<path class="st11" d="M589.9,624.5v1h-6.5c-1.3,0-2-1.1-2-2.4v-6h1L589.9,624.5z"/>
		<path class="st12" d="M575.1,634.6h-0.9v3.1h-1.4v-3.1h-0.5v-0.7l0.6-0.4v-0.1c0-0.4,0.1-0.8,0.3-1.2c0.3-0.3,0.7-0.4,1.1-0.4
			c0.2,0,0.4,0,0.5,0c0.2,0,0.4,0.1,0.6,0.2l-0.3,0.9c-0.2,0-0.3-0.1-0.5-0.1c-0.1,0-0.2,0-0.2,0.1c-0.1,0.1-0.1,0.2-0.1,0.3v0.1
			h0.9L575.1,634.6z M575.7,632.5c0-0.2,0.1-0.3,0.2-0.5c0.2-0.1,0.4-0.2,0.6-0.2c0.2,0,0.4,0,0.6,0.2c0.1,0.1,0.2,0.3,0.2,0.5
			c0,0.4-0.3,0.6-0.8,0.6C575.9,633.1,575.7,632.9,575.7,632.5z M577.1,637.7h-1.4v-4.2h1.4V637.7z"/>
		<path class="st12" d="M579.6,637.7h-1.4V632h1.4V637.7z"/>
		<path class="st12" d="M582.6,637.7c-0.6,0-1.2-0.2-1.6-0.6c-0.4-0.4-0.6-1-0.6-1.6s0.2-1.2,0.5-1.6c0.4-0.4,1-0.6,1.5-0.6
			s1,0.1,1.4,0.5s0.5,0.9,0.5,1.4v0.6h-2.6c0,0.2,0.1,0.4,0.3,0.5s0.4,0.2,0.7,0.2c0.2,0,0.5,0,0.7-0.1s0.5-0.1,0.7-0.2v1
			c-0.2,0.1-0.5,0.2-0.7,0.2C583.1,637.7,582.8,637.7,582.6,637.7z M582.5,634.4c-0.2,0-0.3,0.1-0.4,0.2c-0.1,0.1-0.2,0.3-0.2,0.5
			h1.2c0-0.2-0.1-0.3-0.2-0.5C582.8,634.5,582.6,634.4,582.5,634.4L582.5,634.4z"/>
	</g>
	<g>
		<path class="st10" d="M868.7,521.9H499.3c-4.6,0-8.3-3.7-8.3-8.3l0,0c0-4.6,3.7-8.3,8.3-8.3h369.4c4.6,0,8.3,3.7,8.3,8.3l0,0
			C877,518.1,873.3,521.9,868.7,521.9z"/>
		<path class="st10" d="M1064.6,548H695.2c-4.6,0-8.3-3.7-8.3-8.3l0,0c0-4.6,3.7-8.3,8.3-8.3h369.4c4.6,0,8.3,3.7,8.3,8.3l0,0
			C1072.9,544.2,1069.2,548,1064.6,548z"/>
		<path class="st10" d="M1064.6,576H695.2c-4.6,0-8.3-3.7-8.3-8.3l0,0c0-4.6,3.7-8.3,8.3-8.3h369.4c4.6,0,8.3,3.7,8.3,8.3l0,0
			C1072.9,572.3,1069.2,576,1064.6,576z"/>
		<path class="st10" d="M868.7,606.3H499.3c-4.6,0-8.3-3.7-8.3-8.3l0,0c0-4.6,3.7-8.3,8.3-8.3h369.4c4.6,0,8.3,3.7,8.3,8.3l0,0
			C877,602.6,873.3,606.3,868.7,606.3z"/>
		<path class="st4" d="M564.2,500h-66c-4.6,0-8.3-3.7-8.3-8.3l0,0c0-4.6,3.7-8.3,8.3-8.3h66c4.6,0,8.3,3.7,8.3,8.3l0,0
			C572.5,496.3,568.8,500,564.2,500z"/>
	</g>
</g>
<g id="Calque_2">
	<g id="Calque_1-2">
		<circle class="st0" cx="1055.8" cy="226.9" r="17.9"/>
		<g>
			<g>
				<defs>
					<circle id="SVGID_7_" cx="1055.8" cy="226.9" r="17.9"/>
				</defs>
				<clipPath id="SVGID_8_">
					<use xlink:href="#SVGID_7_"  style="overflow:visible;"/>
				</clipPath>
				<g class="st15">
					<polygon class="st16" points="1058.4,237.1 1055.9,243.4 1053.2,237.1 1053.2,231.4 1058.4,231.4 					"/>
					<path class="st17" d="M1053.2,234.8c0,0-5.6,0.7-6.3,1.5c-0.6,0.7-2,7.1-2.3,8.5h11.2v-3.4L1053.2,234.8z"/>
					<path class="st18" d="M1058.4,234.8c0,0,5.6,0.7,6.3,1.5c0.6,0.7,2,7.1,2.3,8.5h-11.2v-3.4L1058.4,234.8z"/>
					<path class="st19" d="M1055.8,215c2.5,0,6.6,1.4,6.6,8.2c0,3.9-1.3,6.5-1.8,7.2s-3.4,2-4.7,2L1055.8,215L1055.8,215z"/>
					<path class="st19" d="M1063.6,224.8c0.1-1.1-0.4-2-1.2-2.1c-0.7-0.1-1.4,0.7-1.6,1.8s0.4,2,1.2,2.1
						C1062.8,226.7,1063.5,225.9,1063.6,224.8z"/>
					<path class="st20" d="M1055.8,215c-2.5,0-6.6,1.4-6.6,8.2c0,3.9,1.3,6.5,1.8,7.2s3.4,2,4.7,2L1055.8,215L1055.8,215z"/>
					<path class="st20" d="M1048,224.8c-0.1-1.1,0.4-2,1.2-2.1s1.4,0.7,1.6,1.8c0.1,1.1-0.4,2-1.2,2.1
						C1048.8,226.7,1048.1,225.9,1048,224.8z"/>
					<path class="st21" d="M1050.1,224.9h0.5c0,0-0.3-1.8,0.5-2.3v-1.1c0,0-0.3,0-0.3-1.4s1.6-2.3,5-2.3v-4.9c0,0-6.8,0.1-6.8,5v4.7
						c0.3,0,0.6,0,0.8,0.2C1050.3,223.2,1050.1,224.9,1050.1,224.9z"/>
					<path class="st21" d="M1061.5,224.9h-0.5c0,0,0.3-1.8-0.5-2.3v-1.1c0,0,0.3,0,0.3-1.4s-1.6-2.3-5-2.3v-4.9c0,0,6.8-0.2,6.8,4.7
						v5c-0.3,0-0.6,0-0.8,0.2C1061.3,223.2,1061.5,224.9,1061.5,224.9z"/>
					<polygon class="st22" points="1055.8,241.4 1054,235.3 1053.4,238.1 					"/>
					<polygon class="st6" points="1053.1,234.2 1054,235.4 1053.4,238.1 1051.9,236.1 					"/>
					<polygon class="st22" points="1055.8,241.4 1057.4,235.3 1058.2,238.1 					"/>
					<polygon class="st6" points="1058.5,234.2 1057.4,235.3 1058.2,238.1 1059.8,236.1 					"/>
					<path class="st6" d="M1055.8,229.5c1.2,0,2.1-0.4,2.1-0.9h-4.3C1053.7,229.1,1054.6,229.5,1055.8,229.5z"/>
				</g>
			</g>
		</g>
	</g>
</g>
<g id="Page-1">
	<g id="logo-ipm-ico" transform="translate(-23.000000, -21.000000)">
		<g id="ipm-ico" transform="translate(23.000000, 21.000000)">
			<circle id="Oval" class="st0" cx="641.1" cy="70.5" r="41.5"/>
			<g id="Group" transform="translate(21.000000, 12.000000)">
				<path id="Shape" class="st6" d="M619.9,29h16.3c0.7,0,1.3,0.6,1.3,1.4v6.2c0,0.8-0.6,1.4-1.3,1.4h-16.3c-0.7,0-1.3-0.6-1.3-1.4
					v-1.7H610c-10.6,0-10.6,21.1,0,21.1h3.1c0.5-3.3,3.2-5.8,6.3-5.8c3.1,0,5.7,2.5,6.3,5.8h5.4c14,0,14,26.6,0,26.6H618v4.1
					c0,0.8-0.6,1.4-1.3,1.4H607c-0.7,0-1.3-0.6-1.3-1.4V75.2c0-0.8,0.6-1.4,1.3-1.4h9.8c0.7,0,1.3,0.6,1.3,1.4v4.6h13.1
					c10.6,0,10.6-21.1,0-21.1h-5.5c-0.7,3.1-3.2,5.3-6.2,5.3c-3,0-5.5-2.2-6.2-5.3H610c-14,0-14-26.6,0-26.6h8.6v-1.7
					C618.6,29.6,619.2,29,619.9,29z M619.3,61.3c2.1,0,3.8-1.8,3.8-4.2c0-2.3-1.7-4.2-3.8-4.2c-2.1,0-3.8,1.9-3.8,4.2
					C615.5,59.4,617.1,61.3,619.3,61.3z M615.5,76.6h-7.2v8.6h7.2V76.6z M634.9,31.8h-13.8v3.5h13.8V31.8z"/>
			</g>
		</g>
	</g>
</g>
<g>
	<path d="M706.9,96.1V44.9h11.2v51.2H706.9z"/>
	<path d="M728.5,96.1V44.9h23.2c5.8,0,10.2,1.4,13.3,4.1c3.1,2.7,4.6,6.5,4.6,11.2c0,4.7-1.6,8.4-4.7,11.1
		c-3.1,2.8-7.5,4.1-13.2,4.1h-12v20.7H728.5z M739.7,66.8h10.6c3,0,5.2-0.6,6.6-1.7s2.2-2.8,2.2-4.9c0-2.2-0.7-3.8-2.1-5
		c-1.4-1.2-3.6-1.7-6.7-1.7h-10.6V66.8z"/>
	<path d="M777.2,96.1V44.9h8.9l18.5,42.3h-4l18.4-42.3h8.9v51.2H818l-0.1-34.6l2.6,0.6l-14.3,34h-7.3l-14.6-34l2.7-0.6v34.6H777.2z"
		/>
</g>
</svg>
