<?xml version="1.0" encoding="utf-8"?>
<!-- Generator: Adobe Illustrator 21.1.0, SVG Export Plug-In . SVG Version: 6.00 Build 0)  -->
<!DOCTYPE svg PUBLIC "-//W3C//DTD SVG 1.1//EN" "http://www.w3.org/Graphics/SVG/1.1/DTD/svg11.dtd">
<svg version="1.1" id="Layer_1" xmlns="http://www.w3.org/2000/svg" xmlns:xlink="http://www.w3.org/1999/xlink" x="0px" y="0px"
	 viewBox="0 0 1440 879" style="enable-background:new 0 0 1440 879;" xml:space="preserve">
<style type="text/css">
	.st0{fill:#CC0000;}
</style>
<path class="st0" d="M44.2,879h498.9c0,0-95.4-435.1,220.4-611.3c68.8-33.5,287.9-158.5,646.6,106.7c11.4-9.5,22.1-17,22.1-17
	s-328.4-327.7-694-291.1C554.4,82.7,328.4,250.1,195.8,471.1S44.2,879,44.2,879z"/>
<path class="st0" d="M44.2,879h498.9c0,0-95.4-435.1,220.4-611.3c68.8-33.5,287.9-158.5,646.6,106.7c11.4-9.5,22.1-17,22.1-17
	s-328.4-327.7-694-291.1C554.4,82.7,328.4,250.1,195.8,471.1S44.2,879,44.2,879z"/>
<path class="st0" d="M44.2,879h498.9c0,0-95.4-435.1,220.4-611.3c68.8-33.5,287.9-158.5,646.6,106.7c11.4-9.5,22.1-17,22.1-17
	s-328.4-327.7-694-291.1C553.8,82.7,327.7,250.1,195.1,471.1S44.2,879,44.2,879z M1083.6,101.7l2.5-42.3
	c-5.7-3.2-21.5-10.7-61.3-22.1l-2.5,41.7C1043.2,85.9,1063.4,93.5,1083.6,101.7z"/>
<path class="st0" d="M1023.6,235.5l-2.5,39.8c20.8,0.6,41.7,3.2,62.5,7.6l2.5-39.2C1064.7,239.3,1043.8,236.8,1023.6,235.5z
	 M790,38.5h6.3L783.7,0c-19.6,0-39.8,1.3-60.6,3.8L735,41C753.4,39.2,771.7,38.5,790,38.5z M820.3,270.9l14.5,43.6
	c18.3-8.8,36.6-16.4,54.9-22.1l-13.9-41.7C854.4,257,836.1,264,820.3,270.9L820.3,270.9z M533.6,104.8l-28.4-43.6
	c-15.8,8.2-32.2,17-49.3,27.2l29,44.2C501.4,122.5,517.2,113,533.6,104.8L533.6,104.8z M663.1,389l30.3,45.5
	c10.7-15.8,23.4-30.3,37.3-44.8l-28.4-42.9C687.7,359.9,674.4,374.5,663.1,389L663.1,389z M571.5,592.3l51.1,40.4
	c2.5-24.6,6.9-49.3,13.3-73.9l-45.5-36C582.2,546.2,576.5,569.6,571.5,592.3L571.5,592.3z M294.9,292.4l-44.8-39.2
	c-16.4,15.8-32.2,31.6-46.7,47.4l48.6,41.7C265.2,325.2,279.8,308.2,294.9,292.4L294.9,292.4z M104.2,574.6l-72.6-26.5
	c-12,27.2-25.3,58.7-31.6,75.8l72.6,26.5C80.8,628.9,94.1,598,104.2,574.6z M562,752.7c1.3,33.5,4.4,60.6,7.6,79.6l75.8,27.2
	c-5.7-24.6-11.4-52.4-15.2-82.1L562,752.7z"/>
</svg>
